<mxfile host="app.diagrams.net" modified="2023-11-16T07:20:39.408Z" agent="Mozilla/5.0 (X11; Linux x86_64) AppleWebKit/537.36 (KHTML, like Gecko) Chrome/111.0.0.0 Safari/537.36" etag="g59oJ_bVrWUHU8UsIQ5m" version="21.5.0" type="device">
  <diagram name="Page-1" id="vDxrkK0J8CHT32m0sAUy">
    <mxGraphModel dx="1751" dy="1147" grid="1" gridSize="10" guides="1" tooltips="1" connect="1" arrows="1" fold="1" page="1" pageScale="1" pageWidth="827" pageHeight="1169" math="0" shadow="0">
      <root>
        <mxCell id="0" />
        <mxCell id="1" parent="0" />
        <mxCell id="ypXd9VW-_T2MgpefGKx2-1" value="" style="shape=image;verticalLabelPosition=bottom;labelBackgroundColor=default;verticalAlign=top;aspect=fixed;imageAspect=0;image=data:image/svg+xml,PHN2ZyB4bWxuczp4bGluaz0iaHR0cDovL3d3dy53My5vcmcvMTk5OS94bGluayIgeG1sbnM9Imh0dHA6Ly93d3cudzMub3JnLzIwMDAvc3ZnIiB2ZXJzaW9uPSIxLjAiIGlkPSJzdmcyIiBoZWlnaHQ9IjUyNSIgd2lkdGg9IjE2NTAiIHZpZXdCb3g9IjAgMCAxNjUwIDUyNSI+JiN4YTsgIDxkZWZzIGlkPSJkZWZzNCI+JiN4YTsgICAgPGxpbmVhckdyYWRpZW50IGlkPSJsaW5lYXJHcmFkaWVudDQyODEiPiYjeGE7ICAgICAgPHN0b3Agc3R5bGU9InN0b3AtY29sb3I6I2NmY2ZjZjtzdG9wLW9wYWNpdHk6MTsiIG9mZnNldD0iMCIgaWQ9InN0b3A0MjgzIi8+JiN4YTsgICAgICA8c3RvcCBzdHlsZT0ic3RvcC1jb2xvcjojM2YzZjNmO3N0b3Atb3BhY2l0eToxOyIgb2Zmc2V0PSIxIiBpZD0ic3RvcDQyODUiLz4mI3hhOyAgICA8L2xpbmVhckdyYWRpZW50PiYjeGE7ICAgIDxsaW5lYXJHcmFkaWVudCBpZD0ibGluZWFyR3JhZGllbnQ0MDk0Ij4mI3hhOyAgICAgIDxzdG9wIHN0eWxlPSJzdG9wLWNvbG9yOiNmZmZlOTk7c3RvcC1vcGFjaXR5OjE7IiBvZmZzZXQ9IjAiIGlkPSJzdG9wNDA5NiIvPiYjeGE7ICAgICAgPHN0b3Agc3R5bGU9InN0b3AtY29sb3I6I2ZmZmZlMTtzdG9wLW9wYWNpdHk6MTsiIG9mZnNldD0iMSIgaWQ9InN0b3A0MDk4Ii8+JiN4YTsgICAgPC9saW5lYXJHcmFkaWVudD4mI3hhOyAgICAmI3hhOyAgICA8bGluZWFyR3JhZGllbnQgaWQ9ImxpbmVhckdyYWRpZW50NDg0MyI+JiN4YTsgICAgICA8c3RvcCBpZD0ic3RvcDQ4NDUiIG9mZnNldD0iMCIgc3R5bGU9InN0b3AtY29sb3I6I2ZmOTliZDtzdG9wLW9wYWNpdHk6MTsiLz4mI3hhOyAgICAgIDxzdG9wIGlkPSJzdG9wNDg0NyIgb2Zmc2V0PSIxIiBzdHlsZT0ic3RvcC1jb2xvcjojZmZlMWVjO3N0b3Atb3BhY2l0eToxOyIvPiYjeGE7ICAgIDwvbGluZWFyR3JhZGllbnQ+JiN4YTsgICAgPGxpbmVhckdyYWRpZW50IGlkPSJsaW5lYXJHcmFkaWVudDQ4MjciPiYjeGE7ICAgICAgPHN0b3AgaWQ9InN0b3A0ODI5IiBvZmZzZXQ9IjAiIHN0eWxlPSJzdG9wLWNvbG9yOiM4MWI5ZmY7c3RvcC1vcGFjaXR5OjE7Ii8+JiN4YTsgICAgICA8c3RvcCBpZD0ic3RvcDQ4MzEiIG9mZnNldD0iMSIgc3R5bGU9InN0b3AtY29sb3I6I2UxZWZmZjtzdG9wLW9wYWNpdHk6MTsiLz4mI3hhOyAgICA8L2xpbmVhckdyYWRpZW50PiYjeGE7ICAgIDxsaW5lYXJHcmFkaWVudCBpZD0ibGluZWFyR3JhZGllbnQ0ODE5Ij4mI3hhOyAgICAgIDxzdG9wIGlkPSJzdG9wNDgyMSIgb2Zmc2V0PSIwIiBzdHlsZT0ic3RvcC1jb2xvcjojYzFmZmE2O3N0b3Atb3BhY2l0eToxOyIvPiYjeGE7ICAgICAgPHN0b3AgaWQ9InN0b3A0ODIzIiBvZmZzZXQ9IjEiIHN0eWxlPSJzdG9wLWNvbG9yOiNlYmZmZTE7c3RvcC1vcGFjaXR5OjE7Ii8+JiN4YTsgICAgPC9saW5lYXJHcmFkaWVudD4mI3hhOyAgICA8bGluZWFyR3JhZGllbnQgaWQ9ImxpbmVhckdyYWRpZW50MzQyMiI+JiN4YTsgICAgICA8c3RvcCBpZD0ic3RvcDM0MjQiIG9mZnNldD0iMCIgc3R5bGU9InN0b3AtY29sb3I6I2ZmZmZmZjtzdG9wLW9wYWNpdHk6MTsiLz4mI3hhOyAgICAgIDxzdG9wIGlkPSJzdG9wMzQyNiIgb2Zmc2V0PSIxIiBzdHlsZT0ic3RvcC1jb2xvcjojZDBkMGQwO3N0b3Atb3BhY2l0eToxOyIvPiYjeGE7ICAgIDwvbGluZWFyR3JhZGllbnQ+JiN4YTsgICAgPGxpbmVhckdyYWRpZW50IGlkPSJsaW5lYXJHcmFkaWVudDM0MTQiPiYjeGE7ICAgICAgPHN0b3AgaWQ9InN0b3AzNDE2IiBvZmZzZXQ9IjAiIHN0eWxlPSJzdG9wLWNvbG9yOiM4MDgwZmY7c3RvcC1vcGFjaXR5OjE7Ii8+JiN4YTsgICAgICA8c3RvcCBpZD0ic3RvcDM0MTgiIG9mZnNldD0iMSIgc3R5bGU9InN0b3AtY29sb3I6IzAwMDBhMDtzdG9wLW9wYWNpdHk6MTsiLz4mI3hhOyAgICA8L2xpbmVhckdyYWRpZW50PiYjeGE7ICAgIDxsaW5lYXJHcmFkaWVudCBpZD0ibGluZWFyR3JhZGllbnQzNDA2Ij4mI3hhOyAgICAgIDxzdG9wIGlkPSJzdG9wMzQwOCIgb2Zmc2V0PSIwIiBzdHlsZT0ic3RvcC1jb2xvcjojYmRmZjk5O3N0b3Atb3BhY2l0eToxOyIvPiYjeGE7ICAgICAgPHN0b3AgaWQ9InN0b3AzNDEwIiBvZmZzZXQ9IjEiIHN0eWxlPSJzdG9wLWNvbG9yOiMwMGUwMDA7c3RvcC1vcGFjaXR5OjE7Ii8+JiN4YTsgICAgPC9saW5lYXJHcmFkaWVudD4mI3hhOyAgICA8bWFya2VyIHN0eWxlPSJvdmVyZmxvdzp2aXNpYmxlIiBpZD0iQXJyb3cyTWVuZCIgcmVmWD0iMCIgcmVmWT0iMCIgb3JpZW50PSJhdXRvIj4mI3hhOyAgICAgIDxwYXRoIHRyYW5zZm9ybT0ic2NhbGUoLTAuNikiIGQ9Ik0gOC43MTg1ODc4LDQuMDMzNzM1MiAtMi4yMDcyODk1LDAuMDE2MDEzMjYgOC43MTg1ODg0LC00LjAwMTcwNzggYyAtMS43NDU0OTg0LDIuMzcyMDYwOSAtMS43MzU0NDA4LDUuNjE3NDUxOSAtNmUtNyw4LjAzNTQ0MyB6IiBzdHlsZT0iZm9udC1zaXplOjEycHg7ZmlsbC1ydWxlOmV2ZW5vZGQ7c3Ryb2tlLXdpZHRoOjAuNjI1O3N0cm9rZS1saW5lam9pbjpyb3VuZCIgaWQ9InBhdGgzNTYzIi8+JiN4YTsgICAgPC9tYXJrZXI+JiN4YTsgICAgPGxpbmVhckdyYWRpZW50IGdyYWRpZW50VHJhbnNmb3JtPSJtYXRyaXgoMC45ODc2NTQzLDAsMCwxLjAxMjY1ODIsLTI3My43NDA3NCwtOTQuMzE0KSIgeTI9Ijc4NyIgeDI9IjM1MC4wNjI1IiB5MT0iNzc2Ljg3NSIgeDE9IjM1MC4wNjI1IiBncmFkaWVudFVuaXRzPSJ1c2VyU3BhY2VPblVzZSIgaWQ9ImxpbmVhckdyYWRpZW50MzQyNSIgeGxpbms6aHJlZj0iI2xpbmVhckdyYWRpZW50MzQxNCIvPiYjeGE7ICAgIDxsaW5lYXJHcmFkaWVudCBncmFkaWVudFRyYW5zZm9ybT0ibWF0cml4KDEuMDEyNjU4MiwwLDAsMC45ODc2NTQzLC01ODYuMTY0NTYsLTk0Ljg4NTkzKSIgeTI9Ijc4Ny4yNSIgeDI9IjY0OS45Mzc1IiB5MT0iNzc2Ljg3NSIgeDE9IjY0OS45Mzc1IiBncmFkaWVudFVuaXRzPSJ1c2VyU3BhY2VPblVzZSIgaWQ9ImxpbmVhckdyYWRpZW50NDM5OCIgeGxpbms6aHJlZj0iI2xpbmVhckdyYWRpZW50MzQwNiIvPiYjeGE7ICAgIDxsaW5lYXJHcmFkaWVudCBncmFkaWVudFRyYW5zZm9ybT0ibWF0cml4KDAuOTk5OTcxMjIsMCwwLDEuMzM5OTgxOCwyMTcuMDIwNzksLTI4LjA4NDg4KSIgZ3JhZGllbnRVbml0cz0idXNlclNwYWNlT25Vc2UiIHkyPSI2NjYuNDc4NTIiIHgyPSIxODUiIHkxPSI1NDEuNDc4NTIiIHgxPSIxODUiIGlkPSJsaW5lYXJHcmFkaWVudDQ4MjUiIHhsaW5rOmhyZWY9IiNsaW5lYXJHcmFkaWVudDQ4MTkiLz4mI3hhOyAgICA8bGluZWFyR3JhZGllbnQgZ3JhZGllbnRUcmFuc2Zvcm09InRyYW5zbGF0ZSgyMTcsMTk4LjUyMTQ4KSIgZ3JhZGllbnRVbml0cz0idXNlclNwYWNlT25Vc2UiIHkyPSI3NjYuNDc4NTIiIHgyPSIxODUiIHkxPSI2NzYuNDc4NTIiIHgxPSIxODUiIGlkPSJsaW5lYXJHcmFkaWVudDQ4MzMiIHhsaW5rOmhyZWY9IiNsaW5lYXJHcmFkaWVudDQ4MjciLz4mI3hhOyAgICA8bGluZWFyR3JhZGllbnQgZ3JhZGllbnRUcmFuc2Zvcm09InRyYW5zbGF0ZSgyMTcsNDE0LjUyMTQ4KSIgZ3JhZGllbnRVbml0cz0idXNlclNwYWNlT25Vc2UiIHkyPSIyNzEuNDc4NTIiIHgyPSIxODUiIHkxPSIyMjYuNDc4NTIiIHgxPSIxODUiIGlkPSJsaW5lYXJHcmFkaWVudDQ4NDkiIHhsaW5rOmhyZWY9IiNsaW5lYXJHcmFkaWVudDQwOTQiLz4mI3hhOyAgICA8bGluZWFyR3JhZGllbnQgeTI9IjgxMi4xMjUiIHgyPSI3NTAiIHkxPSI3NzYuODc1IiB4MT0iNzUwIiBncmFkaWVudFRyYW5zZm9ybT0ibWF0cml4KDAuMiwwLDAsMC4yODU3MTQyOSwtNzgsMzcwKSIgZ3JhZGllbnRVbml0cz0idXNlclNwYWNlT25Vc2UiIGlkPSJsaW5lYXJHcmFkaWVudDMzMDciIHhsaW5rOmhyZWY9IiNsaW5lYXJHcmFkaWVudDQyODEiLz4mI3hhOyAgICA8bGluZWFyR3JhZGllbnQgeTI9IjI3MS40Nzg1MiIgeDI9IjE4NSIgeTE9IjIyNi40Nzg1MiIgeDE9IjE4NSIgZ3JhZGllbnRUcmFuc2Zvcm09InRyYW5zbGF0ZSgyMTcsMzQ0LjUyMTQ4KSIgZ3JhZGllbnRVbml0cz0idXNlclNwYWNlT25Vc2UiIGlkPSJsaW5lYXJHcmFkaWVudDQwOTIiIHhsaW5rOmhyZWY9IiNsaW5lYXJHcmFkaWVudDQ4NDMiLz4mI3hhOyAgICA8bGluZWFyR3JhZGllbnQgeTI9IjgxMi4xMjUiIHgyPSI3NTAiIHkxPSI3NzYuODc1IiB4MT0iNzUwIiBncmFkaWVudFRyYW5zZm9ybT0ibWF0cml4KDAuMiwwLDAsMC4yODU3MTQyOSwtNzgsMzkwKSIgZ3JhZGllbnRVbml0cz0idXNlclNwYWNlT25Vc2UiIGlkPSJsaW5lYXJHcmFkaWVudDQyNzUiIHhsaW5rOmhyZWY9IiNsaW5lYXJHcmFkaWVudDM0MjIiLz4mI3hhOyAgICA8bWFya2VyIHN0eWxlPSJvdmVyZmxvdzp2aXNpYmxlIiBpZD0iQXJyb3cyTWVuZC0yIiByZWZYPSIwIiByZWZZPSIwIiBvcmllbnQ9ImF1dG8iPiYjeGE7ICAgICAgPHBhdGggdHJhbnNmb3JtPSJzY2FsZSgtMC42KSIgZD0iTSA4LjcxODU4NzgsNC4wMzM3MzUyIC0yLjIwNzI4OTUsMC4wMTYwMTMyNiA4LjcxODU4ODQsLTQuMDAxNzA3OCBjIC0xLjc0NTQ5ODQsMi4zNzIwNjA5IC0xLjczNTQ0MDgsNS42MTc0NTE5IC02ZS03LDguMDM1NDQzIHoiIHN0eWxlPSJmb250LXNpemU6MTJweDtmaWxsLXJ1bGU6ZXZlbm9kZDtzdHJva2Utd2lkdGg6MC42MjU7c3Ryb2tlLWxpbmVqb2luOnJvdW5kIiBpZD0icGF0aDM1NjMtOSIvPiYjeGE7ICAgIDwvbWFya2VyPiYjeGE7ICAgIDxtYXJrZXIgc3R5bGU9Im92ZXJmbG93OnZpc2libGUiIGlkPSJBcnJvdzJNZW5kLTItOSIgcmVmWD0iMCIgcmVmWT0iMCIgb3JpZW50PSJhdXRvIj4mI3hhOyAgICAgIDxwYXRoIHRyYW5zZm9ybT0ic2NhbGUoLTAuNikiIGQ9Ik0gOC43MTg1ODc4LDQuMDMzNzM1MiAtMi4yMDcyODk1LDAuMDE2MDEzMjYgOC43MTg1ODg0LC00LjAwMTcwNzggYyAtMS43NDU0OTg0LDIuMzcyMDYwOSAtMS43MzU0NDA4LDUuNjE3NDUxOSAtNmUtNyw4LjAzNTQ0MyB6IiBzdHlsZT0iZm9udC1zaXplOjEycHg7ZmlsbC1ydWxlOmV2ZW5vZGQ7c3Ryb2tlLXdpZHRoOjAuNjI1O3N0cm9rZS1saW5lam9pbjpyb3VuZCIgaWQ9InBhdGgzNTYzLTktMyIvPiYjeGE7ICAgIDwvbWFya2VyPiYjeGE7ICAgIDxtYXJrZXIgc3R5bGU9Im92ZXJmbG93OnZpc2libGUiIGlkPSJBcnJvdzJNZW5kLTI2IiByZWZYPSIwIiByZWZZPSIwIiBvcmllbnQ9ImF1dG8iPiYjeGE7ICAgICAgPHBhdGggdHJhbnNmb3JtPSJzY2FsZSgtMC42KSIgZD0iTSA4LjcxODU4NzgsNC4wMzM3MzUyIC0yLjIwNzI4OTUsMC4wMTYwMTMyNiA4LjcxODU4ODQsLTQuMDAxNzA3OCBjIC0xLjc0NTQ5ODQsMi4zNzIwNjA5IC0xLjczNTQ0MDgsNS42MTc0NTE5IC02ZS03LDguMDM1NDQzIHoiIHN0eWxlPSJmb250LXNpemU6MTJweDtmaWxsLXJ1bGU6ZXZlbm9kZDtzdHJva2Utd2lkdGg6MC42MjU7c3Ryb2tlLWxpbmVqb2luOnJvdW5kIiBpZD0icGF0aDM1NjMtMSIvPiYjeGE7ICAgIDwvbWFya2VyPiYjeGE7ICAgIDxtYXJrZXIgc3R5bGU9Im92ZXJmbG93OnZpc2libGUiIGlkPSJBcnJvdzJNZW5kLTciIHJlZlg9IjAiIHJlZlk9IjAiIG9yaWVudD0iYXV0byI+JiN4YTsgICAgICA8cGF0aCB0cmFuc2Zvcm09InNjYWxlKC0wLjYpIiBkPSJNIDguNzE4NTg3OCw0LjAzMzczNTIgLTIuMjA3Mjg5NSwwLjAxNjAxMzI2IDguNzE4NTg4NCwtNC4wMDE3MDc4IGMgLTEuNzQ1NDk4NCwyLjM3MjA2MDkgLTEuNzM1NDQwOCw1LjYxNzQ1MTkgLTZlLTcsOC4wMzU0NDMgeiIgc3R5bGU9ImZvbnQtc2l6ZToxMnB4O2ZpbGwtcnVsZTpldmVub2RkO3N0cm9rZS13aWR0aDowLjYyNTtzdHJva2UtbGluZWpvaW46cm91bmQiIGlkPSJwYXRoMzU2My05MiIvPiYjeGE7ICAgIDwvbWFya2VyPiYjeGE7ICAgIDxtYXJrZXIgc3R5bGU9Im92ZXJmbG93OnZpc2libGUiIGlkPSJBcnJvdzJNZW5kLTIzIiByZWZYPSIwIiByZWZZPSIwIiBvcmllbnQ9ImF1dG8iPiYjeGE7ICAgICAgPHBhdGggdHJhbnNmb3JtPSJzY2FsZSgtMC42KSIgZD0iTSA4LjcxODU4NzgsNC4wMzM3MzUyIC0yLjIwNzI4OTUsMC4wMTYwMTMyNiA4LjcxODU4ODQsLTQuMDAxNzA3OCBjIC0xLjc0NTQ5ODQsMi4zNzIwNjA5IC0xLjczNTQ0MDgsNS42MTc0NTE5IC02ZS03LDguMDM1NDQzIHoiIHN0eWxlPSJmb250LXNpemU6MTJweDtmaWxsLXJ1bGU6ZXZlbm9kZDtzdHJva2Utd2lkdGg6MC42MjU7c3Ryb2tlLWxpbmVqb2luOnJvdW5kIiBpZD0icGF0aDM1NjMtNyIvPiYjeGE7ICAgIDwvbWFya2VyPiYjeGE7ICAgIDxtYXJrZXIgc3R5bGU9Im92ZXJmbG93OnZpc2libGUiIGlkPSJBcnJvdzJNZW5kLTc1IiByZWZYPSIwIiByZWZZPSIwIiBvcmllbnQ9ImF1dG8iPiYjeGE7ICAgICAgPHBhdGggdHJhbnNmb3JtPSJzY2FsZSgtMC42KSIgZD0iTSA4LjcxODU4NzgsNC4wMzM3MzUyIC0yLjIwNzI4OTUsMC4wMTYwMTMyNiA4LjcxODU4ODQsLTQuMDAxNzA3OCBjIC0xLjc0NTQ5ODQsMi4zNzIwNjA5IC0xLjczNTQ0MDgsNS42MTc0NTE5IC02ZS03LDguMDM1NDQzIHoiIHN0eWxlPSJmb250LXNpemU6MTJweDtmaWxsLXJ1bGU6ZXZlbm9kZDtzdHJva2Utd2lkdGg6MC42MjU7c3Ryb2tlLWxpbmVqb2luOnJvdW5kIiBpZD0icGF0aDM1NjMtMyIvPiYjeGE7ICAgIDwvbWFya2VyPiYjeGE7ICAgIDxtYXJrZXIgc3R5bGU9Im92ZXJmbG93OnZpc2libGUiIGlkPSJBcnJvdzJNZW5kLTEiIHJlZlg9IjAiIHJlZlk9IjAiIG9yaWVudD0iYXV0byI+JiN4YTsgICAgICA8cGF0aCB0cmFuc2Zvcm09InNjYWxlKC0wLjYpIiBkPSJNIDguNzE4NTg3OCw0LjAzMzczNTIgLTIuMjA3Mjg5NSwwLjAxNjAxMzI2IDguNzE4NTg4NCwtNC4wMDE3MDc4IGMgLTEuNzQ1NDk4NCwyLjM3MjA2MDkgLTEuNzM1NDQwOCw1LjYxNzQ1MTkgLTZlLTcsOC4wMzU0NDMgeiIgc3R5bGU9ImZvbnQtc2l6ZToxMnB4O2ZpbGwtcnVsZTpldmVub2RkO3N0cm9rZS13aWR0aDowLjYyNTtzdHJva2UtbGluZWpvaW46cm91bmQiIGlkPSJwYXRoMzU2My04Ii8+JiN4YTsgICAgPC9tYXJrZXI+JiN4YTsgICAgPG1hcmtlciBzdHlsZT0ib3ZlcmZsb3c6dmlzaWJsZSIgaWQ9IkFycm93Mk1lbmQtNzYiIHJlZlg9IjAiIHJlZlk9IjAiIG9yaWVudD0iYXV0byI+JiN4YTsgICAgICA8cGF0aCB0cmFuc2Zvcm09InNjYWxlKC0wLjYpIiBkPSJNIDguNzE4NTg3OCw0LjAzMzczNTIgLTIuMjA3Mjg5NSwwLjAxNjAxMzI2IDguNzE4NTg4NCwtNC4wMDE3MDc4IGMgLTEuNzQ1NDk4NCwyLjM3MjA2MDkgLTEuNzM1NDQwOCw1LjYxNzQ1MTkgLTZlLTcsOC4wMzU0NDMgeiIgc3R5bGU9ImZvbnQtc2l6ZToxMnB4O2ZpbGwtcnVsZTpldmVub2RkO3N0cm9rZS13aWR0aDowLjYyNTtzdHJva2UtbGluZWpvaW46cm91bmQiIGlkPSJwYXRoMzU2My03MyIvPiYjeGE7ICAgIDwvbWFya2VyPiYjeGE7ICAgIDxsaW5lYXJHcmFkaWVudCB5Mj0iODA3IiB4Mj0iNzUwIiB5MT0iNzc3IiB4MT0iNzUwIiBncmFkaWVudFRyYW5zZm9ybT0idHJhbnNsYXRlKC0xMTgsNTMpIiBncmFkaWVudFVuaXRzPSJ1c2VyU3BhY2VPblVzZSIgaWQ9ImxpbmVhckdyYWRpZW50MTM2NyIgeGxpbms6aHJlZj0iI2xpbmVhckdyYWRpZW50NDI4MSIvPiYjeGE7ICAgIDxsaW5lYXJHcmFkaWVudCB5Mj0iNzg3LjEyNSIgeDI9IjM3MCIgeTE9Ijc3Ni44NzUiIHgxPSIzNzAiIGdyYWRpZW50VHJhbnNmb3JtPSJ0cmFuc2xhdGUoMTMyLDE0OC41MjE0OCkiIGdyYWRpZW50VW5pdHM9InVzZXJTcGFjZU9uVXNlIiBpZD0ibGluZWFyR3JhZGllbnQxMzY5IiB4bGluazpocmVmPSIjbGluZWFyR3JhZGllbnQzNDE0Ii8+JiN4YTsgICAgPGxpbmVhckdyYWRpZW50IHkyPSI3ODYuNDc4NTIiIHgyPSI2NzAiIHkxPSI3NzYuNDc4NTIiIHgxPSI2NzAiIGdyYWRpZW50VHJhbnNmb3JtPSJ0cmFuc2xhdGUoOTIsMTQ4LjUyMTQ4KSIgZ3JhZGllbnRVbml0cz0idXNlclNwYWNlT25Vc2UiIGlkPSJsaW5lYXJHcmFkaWVudDEzNzEiIHhsaW5rOmhyZWY9IiNsaW5lYXJHcmFkaWVudDM0MDYiLz4mI3hhOyAgICA8bGluZWFyR3JhZGllbnQgeTI9IjgwNi40Nzg1MiIgeDI9IjY3MCIgeTE9Ijc4Ni40Nzg1MiIgeDE9IjY3MCIgZ3JhZGllbnRUcmFuc2Zvcm09InRyYW5zbGF0ZSg5MiwxNDguNTIxNDgpIiBncmFkaWVudFVuaXRzPSJ1c2VyU3BhY2VPblVzZSIgaWQ9ImxpbmVhckdyYWRpZW50MTM3MyIgeGxpbms6aHJlZj0iI2xpbmVhckdyYWRpZW50MzQyMiIvPiYjeGE7ICAgIDxsaW5lYXJHcmFkaWVudCB5Mj0iODA3IiB4Mj0iNzUwIiB5MT0iNzc3IiB4MT0iNzUwIiBncmFkaWVudFRyYW5zZm9ybT0idHJhbnNsYXRlKDc3LDE0OCkiIGdyYWRpZW50VW5pdHM9InVzZXJTcGFjZU9uVXNlIiBpZD0ibGluZWFyR3JhZGllbnQxMzc1IiB4bGluazpocmVmPSIjbGluZWFyR3JhZGllbnQzNDIyIi8+JiN4YTsgICAgPG1hcmtlciBzdHlsZT0ib3ZlcmZsb3c6dmlzaWJsZSIgaWQ9IkFycm93Mk1lbmQtOSIgcmVmWD0iMCIgcmVmWT0iMCIgb3JpZW50PSJhdXRvIj4mI3hhOyAgICAgIDxwYXRoIHRyYW5zZm9ybT0ic2NhbGUoLTAuNikiIGQ9Ik0gOC43MTg1ODc4LDQuMDMzNzM1MiAtMi4yMDcyODk1LDAuMDE2MDEzMjYgOC43MTg1ODg0LC00LjAwMTcwNzggYyAtMS43NDU0OTg0LDIuMzcyMDYwOSAtMS43MzU0NDA4LDUuNjE3NDUxOSAtNmUtNyw4LjAzNTQ0MyB6IiBzdHlsZT0iZm9udC1zaXplOjEycHg7ZmlsbC1ydWxlOmV2ZW5vZGQ7c3Ryb2tlLXdpZHRoOjAuNjI1O3N0cm9rZS1saW5lam9pbjpyb3VuZCIgaWQ9InBhdGgzNTYzLTIiLz4mI3hhOyAgICA8L21hcmtlcj4mI3hhOyAgICA8bWFya2VyIHN0eWxlPSJvdmVyZmxvdzp2aXNpYmxlIiBpZD0iQXJyb3cyTWVuZC04IiByZWZYPSIwIiByZWZZPSIwIiBvcmllbnQ9ImF1dG8iPiYjeGE7ICAgICAgPHBhdGggdHJhbnNmb3JtPSJzY2FsZSgtMC42KSIgZD0iTSA4LjcxODU4NzgsNC4wMzM3MzUyIC0yLjIwNzI4OTUsMC4wMTYwMTMyNiA4LjcxODU4ODQsLTQuMDAxNzA3OCBjIC0xLjc0NTQ5ODQsMi4zNzIwNjA5IC0xLjczNTQ0MDgsNS42MTc0NTE5IC02ZS03LDguMDM1NDQzIHoiIHN0eWxlPSJmb250LXNpemU6MTJweDtmaWxsLXJ1bGU6ZXZlbm9kZDtzdHJva2Utd2lkdGg6MC42MjU7c3Ryb2tlLWxpbmVqb2luOnJvdW5kIiBpZD0icGF0aDM1NjMtMTQiLz4mI3hhOyAgICA8L21hcmtlcj4mI3hhOyAgPC9kZWZzPiYjeGE7ICAmI3hhOyAgICAmI3hhOyAgJiN4YTsgIDxtZXRhZGF0YSBpZD0ibWV0YWRhdGE3Ij4mI3hhOyAgICAmI3hhOyAgICAgICYjeGE7ICAgICAgICBpbWFnZS9zdmcreG1sJiN4YTsgICAgICAgICYjeGE7ICAgICAgICAmI3hhOyAgICAgICAgJiN4YTsgICAgICAgIDIwMTQtRmViLTI4JiN4YTsgICAgICAgICYjeGE7ICAgICAgICAgICYjeGE7ICAgICAgICAgICAgSmFuIEVuZ2VsaGFyZHQgJmx0O2plbmdlbGhAaW5haS5kZSZndDsmI3hhOyAgICAgICAgICAmI3hhOyAgICAgICAgJiN4YTsgICAgICAgICYjeGE7ICAgICAgICAgICYjeGE7ICAgICAgICAgICAgSmFuIEVuZ2VsaGFyZHQgJmx0O2plbmdlbGhAaW5haS5kZSZndDsmI3hhOyAgICAgICAgICAmI3hhOyAgICAgICAgJiN4YTsgICAgICAgIGh0dHA6Ly9pbmFpLmRlLyYjeGE7ICAgICAgICBlbl9VUyYjeGE7ICAgICAgICAmI3hhOyAgICAgICAgICAmI3hhOyAgICAgICAgICAgIFh0YWJsZXMgQ29ubnRyYWNrIGlwdGFibGVzJiN4YTsgICAgICAgICAgJiN4YTsgICAgICAgICYjeGE7ICAgICAgICBTaG93cyB0aGUgcGFja2V0IGZsb3cgdGhyb3VnaG91dCBMaW51eCBOZXR3b3JraW5nLCBhbmQgTmV0ZmlsdGVyIGNvbXBvbmVudHMuJiN4YTsgICAgICAgICYjeGE7ICAgICAgICAgICYjeGE7ICAgICAgICAgICAgSm9zaHVhIFNueWRlciAmbHQ7am9zaEBpbWFnZXN0cmVhbS5jb20mZ3Q7JiN4YTsgICAgICAgICAgJiN4YTsgICAgICAgICYjeGE7ICAgICAgJiN4YTsgICAgICAmI3hhOyAgICAgICAgJiN4YTsgICAgICAgICYjeGE7ICAgICAgICAmI3hhOyAgICAgICAgJiN4YTsgICAgICAgICYjeGE7ICAgICAgICAmI3hhOyAgICAgICYjeGE7ICAgICYjeGE7ICA8L21ldGFkYXRhPiYjeGE7ICA8ZyB0cmFuc2Zvcm09InRyYW5zbGF0ZSgwLC00NzUpIiBzdHlsZT0iZGlzcGxheTppbmxpbmUiIGlkPSJsYXllcjIiPiYjeGE7ICAgIDxyZWN0IHk9Ijg3NSIgeD0iMzkyIiBoZWlnaHQ9IjkwIiB3aWR0aD0iMTA5NSIgaWQ9InJlY3QxMzcwOCIgc3R5bGU9ImRpc3BsYXk6aW5saW5lO2ZpbGw6dXJsKCNsaW5lYXJHcmFkaWVudDQ4MzMpO2ZpbGwtb3BhY2l0eToxO2ZpbGwtcnVsZTpldmVub2RkO3N0cm9rZTojMDAwMDAwO3N0cm9rZS13aWR0aDowLjI7c3Ryb2tlLWxpbmVjYXA6YnV0dDtzdHJva2UtbGluZWpvaW46YmV2ZWw7c3Ryb2tlLW1pdGVybGltaXQ6NDtzdHJva2UtZGFzaGFycmF5Om5vbmU7c3Ryb2tlLWRhc2hvZmZzZXQ6MDtzdHJva2Utb3BhY2l0eToxIi8+JiN4YTsgICAgPHJlY3QgeT0iNjk3LjQ4NjUxIiB4PSIzOTIuMDE1NzUiIGhlaWdodD0iMTY3LjQ5NzczIiB3aWR0aD0iMTA5NC45Njg1IiBpZD0icmVjdDEzNzA2IiBzdHlsZT0iZGlzcGxheTppbmxpbmU7ZmlsbDp1cmwoI2xpbmVhckdyYWRpZW50NDgyNSk7ZmlsbC1vcGFjaXR5OjE7ZmlsbC1ydWxlOmV2ZW5vZGQ7c3Ryb2tlOiMwMDAwMDA7c3Ryb2tlLXdpZHRoOjAuMjMxNTExODU7c3Ryb2tlLWxpbmVjYXA6YnV0dDtzdHJva2UtbGluZWpvaW46YmV2ZWw7c3Ryb2tlLW1pdGVybGltaXQ6NDtzdHJva2UtZGFzaGFycmF5Om5vbmU7c3Ryb2tlLWRhc2hvZmZzZXQ6MDtzdHJva2Utb3BhY2l0eToxIi8+JiN4YTsgICAgPHJlY3QgeT0iNjI2IiB4PSIzOTIiIGhlaWdodD0iNjAiIHdpZHRoPSIxMDk1IiBpZD0icmVjdDM0MTMiIHN0eWxlPSJkaXNwbGF5OmlubGluZTtmaWxsOnVybCgjbGluZWFyR3JhZGllbnQ0ODQ5KTtmaWxsLW9wYWNpdHk6MTtzdHJva2U6IzAwMDAwMDtzdHJva2Utd2lkdGg6MC4yO3N0cm9rZS1saW5lY2FwOnNxdWFyZTtzdHJva2UtbGluZWpvaW46YmV2ZWw7c3Ryb2tlLW1pdGVybGltaXQ6NDtzdHJva2UtZGFzaGFycmF5Om5vbmU7c3Ryb2tlLW9wYWNpdHk6MSIvPiYjeGE7ICAgIDxyZWN0IHN0eWxlPSJkaXNwbGF5OmlubGluZTtmaWxsOnVybCgjbGluZWFyR3JhZGllbnQ0MDkyKTtmaWxsLW9wYWNpdHk6MTtzdHJva2U6IzAwMDAwMDtzdHJva2Utd2lkdGg6MC4yO3N0cm9rZS1saW5lY2FwOnNxdWFyZTtzdHJva2UtbGluZWpvaW46YmV2ZWw7c3Ryb2tlLW1pdGVybGltaXQ6NDtzdHJva2UtZGFzaGFycmF5Om5vbmU7c3Ryb2tlLW9wYWNpdHk6MSIgaWQ9InJlY3Q0MDkwIiB3aWR0aD0iMTA5NSIgaGVpZ2h0PSI0NSIgeD0iMzkyIiB5PSI1NzEiLz4mI3hhOyAgPC9nPiYjeGE7ICA8ZyB0cmFuc2Zvcm09InRyYW5zbGF0ZSgwLC00NzUpIiBzdHlsZT0iZGlzcGxheTppbmxpbmUiIGlkPSJsYXllcjMiPiYjeGE7ICAgIDxyZWN0IHN0eWxlPSJkaXNwbGF5OmlubGluZTtvcGFjaXR5OjAuODYwMDAwMDE7ZmlsbDojMDAwMDAwO2ZpbGwtb3BhY2l0eTowLjA5MDE5NjA4O2ZpbGwtcnVsZTpldmVub2RkO3N0cm9rZTojMDAwMDAwO3N0cm9rZS13aWR0aDowLjIxMjk0NTQ5O3N0cm9rZS1saW5lY2FwOmJ1dHQ7c3Ryb2tlLWxpbmVqb2luOmJldmVsO3N0cm9rZS1taXRlcmxpbWl0OjQ7c3Ryb2tlLWRhc2hhcnJheTpub25lO3N0cm9rZS1kYXNob2Zmc2V0OjA7c3Ryb2tlLW9wYWNpdHk6MSIgaWQ9InJlY3QzNDM5IiB3aWR0aD0iMTk5Ljk4NzA2IiBoZWlnaHQ9IjQxOS40NzU2MiIgeD0iODcyLjAwNjQ3IiB5PSI1NTUuNTE3ODgiLz4mI3hhOyAgICA8cmVjdCBzdHlsZT0iZGlzcGxheTppbmxpbmU7b3BhY2l0eTowLjg2MDAwMDAxO2ZpbGw6IzAwMDAwMDtmaWxsLW9wYWNpdHk6MC4wOTAxOTYwODtmaWxsLXJ1bGU6ZXZlbm9kZDtzdHJva2U6IzAwMDAwMDtzdHJva2Utd2lkdGg6MC4yMTI5NDg4OTtzdHJva2UtbGluZWNhcDpidXR0O3N0cm9rZS1saW5lam9pbjpiZXZlbDtzdHJva2UtbWl0ZXJsaW1pdDo0O3N0cm9rZS1kYXNoYXJyYXk6bm9uZTtzdHJva2UtZGFzaG9mZnNldDowO3N0cm9rZS1vcGFjaXR5OjEiIGlkPSJyZWN0MTM3MTYiIHdpZHRoPSIzOTQuOTg3MDYiIGhlaWdodD0iNDE5LjQ3NTYyIiB4PSIxMDgyLjAwNjUiIHk9IjU1NS41MTc4OCIvPiYjeGE7ICAgIDxyZWN0IHN0eWxlPSJkaXNwbGF5OmlubGluZTtvcGFjaXR5OjAuODYwMDAwMDE7ZmlsbDojMDAwMDAwO2ZpbGwtb3BhY2l0eTowLjA5MDE5NjA4O2ZpbGwtcnVsZTpldmVub2RkO3N0cm9rZTojMDAwMDAwO3N0cm9rZS13aWR0aDowLjIxMjc1MzEyO3N0cm9rZS1saW5lY2FwOmJ1dHQ7c3Ryb2tlLWxpbmVqb2luOmJldmVsO3N0cm9rZS1taXRlcmxpbWl0OjQ7c3Ryb2tlLWRhc2hhcnJheTpub25lO3N0cm9rZS1kYXNob2Zmc2V0OjA7c3Ryb2tlLW9wYWNpdHk6MSIgaWQ9InJlY3QzNDE5IiB3aWR0aD0iNDU5Ljk4NzI0IiBoZWlnaHQ9IjQxOC43MDI1OCIgeD0iNDAxLjQ4NzM3IiB5PSI1NTkuMjUzMDUiLz4mI3hhOyAgPC9nPiYjeGE7ICA8ZyB0cmFuc2Zvcm09InRyYW5zbGF0ZSgwLC00NzUpIiBzdHlsZT0iZGlzcGxheTppbmxpbmUiIGlkPSJsYXllcjEiPiYjeGE7ICAgIDx1c2UgaGVpZ2h0PSI3NDQuMDk0NDgiIHdpZHRoPSIxMDUyLjM2MjIiIHRyYW5zZm9ybT0idHJhbnNsYXRlKC0xOTUsLTk1KSIgaWQ9InVzZTMyMzciIHhsaW5rOmhyZWY9IiNyZWN0MjE4MCIgeT0iMCIgeD0iMCIgc3R5bGU9ImRpc3BsYXk6aW5saW5lIi8+JiN4YTsgICAgPHVzZSBoZWlnaHQ9Ijc0NC4wOTQ0OCIgd2lkdGg9IjEwNTIuMzYyMiIgdHJhbnNmb3JtPSJ0cmFuc2xhdGUoLTE5NSwtOTUpIiBpZD0idXNlMzIzOSIgeGxpbms6aHJlZj0iI3JlY3QzMTY1IiB5PSIwIiB4PSIwIiBzdHlsZT0iZGlzcGxheTppbmxpbmUiLz4mI3hhOyAgICA8dXNlIGhlaWdodD0iNzQ0LjA5NDQ4IiB3aWR0aD0iMTA1Mi4zNjIyIiB0cmFuc2Zvcm09InRyYW5zbGF0ZSgtNjUsLTk1KSIgaWQ9InVzZTMyMjkiIHhsaW5rOmhyZWY9IiNyZWN0MjE4MCIgeT0iMCIgeD0iMCIgc3R5bGU9ImRpc3BsYXk6aW5saW5lIi8+JiN4YTsgICAgPHVzZSBoZWlnaHQ9Ijc0NC4wOTQ0OCIgd2lkdGg9IjEwNTIuMzYyMiIgdHJhbnNmb3JtPSJ0cmFuc2xhdGUoMCwtOTUpIiBpZD0idXNlMzIzMSIgeGxpbms6aHJlZj0iI3JlY3QyMTgwIiB5PSIwIiB4PSIwIiBzdHlsZT0iZGlzcGxheTppbmxpbmUiLz4mI3hhOyAgICA8dXNlIGhlaWdodD0iNzQ0LjA5NDQ4IiB3aWR0aD0iMTA1Mi4zNjIyIiB0cmFuc2Zvcm09InRyYW5zbGF0ZSgtNjUsLTk1KSIgaWQ9InVzZTMyMTkiIHhsaW5rOmhyZWY9IiNyZWN0MzE2NSIgeT0iMCIgeD0iMCIgc3R5bGU9ImRpc3BsYXk6aW5saW5lIi8+JiN4YTsgICAgPHVzZSBoZWlnaHQ9Ijc0NC4wOTQ0OCIgd2lkdGg9IjEwNTIuMzYyMiIgdHJhbnNmb3JtPSJ0cmFuc2xhdGUoMCwtOTUpIiBpZD0idXNlMzIyMSIgeGxpbms6aHJlZj0iI3JlY3QzMTY1IiB5PSIwIiB4PSIwIiBzdHlsZT0iZGlzcGxheTppbmxpbmUiLz4mI3hhOyAgICA8cmVjdCB5PSI4MzAiIHg9IjYwNyIgaGVpZ2h0PSIyNSIgd2lkdGg9IjUwIiBpZD0idXNlMzM0NiIgc3R5bGU9ImRpc3BsYXk6aW5saW5lO2ZpbGw6dXJsKCNsaW5lYXJHcmFkaWVudDEzNjcpO2ZpbGwtb3BhY2l0eToxO2ZpbGwtcnVsZTpldmVub2RkO3N0cm9rZTojMDAwMDAwO3N0cm9rZS13aWR0aDowLjI1O3N0cm9rZS1saW5lY2FwOmJ1dHQ7c3Ryb2tlLWxpbmVqb2luOmJldmVsO3N0cm9rZS1taXRlcmxpbWl0OjQ7c3Ryb2tlLWRhc2hhcnJheTpub25lO3N0cm9rZS1kYXNob2Zmc2V0OjA7c3Ryb2tlLW9wYWNpdHk6MSIgcnk9IjEwIiByeD0iMTAiLz4mI3hhOyAgICA8dXNlIGhlaWdodD0iMTA1MiIgd2lkdGg9IjE0ODgiIHRyYW5zZm9ybT0idHJhbnNsYXRlKDEzOS44LC0zNDQpIiBpZD0idXNlMjYxNDYiIHhsaW5rOmhyZWY9IiNyZWN0MjUxNTQiIHk9IjAiIHg9IjAiIHN0eWxlPSJkaXNwbGF5OmlubGluZSIvPiYjeGE7ICAgIDx1c2UgaGVpZ2h0PSIxMDUyIiB3aWR0aD0iMTQ4OCIgdHJhbnNmb3JtPSJ0cmFuc2xhdGUoLTM0NSwtMjc0KSIgaWQ9InVzZTMzOTIiIHhsaW5rOmhyZWY9IiNyZWN0MjUxNTQiIHk9IjAiIHg9IjAiIHN0eWxlPSJkaXNwbGF5OmlubGluZSIvPiYjeGE7ICAgIDxyZWN0IHN0eWxlPSJkaXNwbGF5OmlubGluZTtmaWxsOnVybCgjbGluZWFyR3JhZGllbnQxMzY5KTtmaWxsLW9wYWNpdHk6MTtmaWxsLXJ1bGU6ZXZlbm9kZDtzdHJva2U6IzAwMDAwMDtzdHJva2Utd2lkdGg6MC4yNTtzdHJva2UtbGluZWNhcDpidXR0O3N0cm9rZS1saW5lam9pbjpiZXZlbDtzdHJva2UtbWl0ZXJsaW1pdDo0O3N0cm9rZS1kYXNoYXJyYXk6bm9uZTtzdHJva2UtZGFzaG9mZnNldDowO3N0cm9rZS1vcGFjaXR5OjEiIGlkPSJyZWN0NjY1OSIgd2lkdGg9IjUwIiBoZWlnaHQ9IjEwIiB4PSI0NzciIHk9IjkyNSIvPiYjeGE7ICAgIDx1c2UgaGVpZ2h0PSIxMDUyLjM2MjIiIHdpZHRoPSIxNDg4LjE4OSIgdHJhbnNmb3JtPSJ0cmFuc2xhdGUoLTE5NSkiIGlkPSJ1c2UxMzc4OCIgeGxpbms6aHJlZj0iI3JlY3QyMTgwIiB5PSIwIiB4PSIwIiBzdHlsZT0iZGlzcGxheTppbmxpbmUiLz4mI3hhOyAgICA8dXNlIGhlaWdodD0iMTA1Mi4zNjIyIiB3aWR0aD0iMTQ4OC4xODkiIHRyYW5zZm9ybT0idHJhbnNsYXRlKC0xOTUpIiBpZD0idXNlMTM3OTAiIHhsaW5rOmhyZWY9IiNyZWN0MzE2NSIgeT0iMCIgeD0iMCIgc3R5bGU9ImRpc3BsYXk6aW5saW5lIi8+JiN4YTsgICAgPHVzZSBzdHlsZT0iZGlzcGxheTppbmxpbmU7c3Ryb2tlOm5vbmUiIGhlaWdodD0iMTA1Mi4zNjIyIiB3aWR0aD0iMTQ4OC4xODkiIHRyYW5zZm9ybT0idHJhbnNsYXRlKC02NSkiIGlkPSJ1c2UxMzgyNiIgeGxpbms6aHJlZj0iI3JlY3Q2NjU5IiB5PSIwIiB4PSIwIi8+JiN4YTsgICAgPHVzZSBoZWlnaHQ9IjEwNTIiIHdpZHRoPSIxNDg4IiB0cmFuc2Zvcm09InRyYW5zbGF0ZSgtNDY1KSIgaWQ9InVzZTI2MTQwIiB4bGluazpocmVmPSIjcmVjdDI1MTU0IiB5PSIwIiB4PSIwIiBzdHlsZT0iZGlzcGxheTppbmxpbmUiLz4mI3hhOyAgICA8dXNlIGhlaWdodD0iMTA1MiIgd2lkdGg9IjE1MTAiIHRyYW5zZm9ybT0idHJhbnNsYXRlKC0zMjUpIiBpZD0idXNlMzQ5MCIgeGxpbms6aHJlZj0iI3JlY3QzMTY1IiB5PSIwIiB4PSIwIiBzdHlsZT0iZGlzcGxheTppbmxpbmUiLz4mI3hhOyAgICA8dXNlIGhlaWdodD0iMTA1MiIgd2lkdGg9IjE1MTAiIHRyYW5zZm9ybT0idHJhbnNsYXRlKC0yNjApIiBpZD0idXNlMzQ5MiIgeGxpbms6aHJlZj0iI3JlY3QzMTY1IiB5PSIwIiB4PSIwIiBzdHlsZT0iZGlzcGxheTppbmxpbmUiLz4mI3hhOyAgICA8dXNlIGhlaWdodD0iMTA1MiIgd2lkdGg9IjE2MTAiIHRyYW5zZm9ybT0idHJhbnNsYXRlKC01MzApIiBpZD0idXNlMjcwOCIgeGxpbms6aHJlZj0iI3JlY3QyNTE1NCIgeT0iMCIgeD0iMCIgc3R5bGU9ImRpc3BsYXk6aW5saW5lIi8+JiN4YTsgICAgPHVzZSBoZWlnaHQ9IjEwNTIiIHdpZHRoPSIxNDg4IiB0cmFuc2Zvcm09InRyYW5zbGF0ZSgwLC05NSkiIGlkPSJ1c2UyNjEzNiIgeGxpbms6aHJlZj0iI3JlY3QyNTE1NCIgeT0iMCIgeD0iMCIgc3R5bGU9ImRpc3BsYXk6aW5saW5lIi8+JiN4YTsgICAgPHJlY3QgeT0iOTI1IiB4PSI3MzciIGhlaWdodD0iMTAiIHdpZHRoPSI1MCIgaWQ9InJlY3QyMTgwIiBzdHlsZT0iZGlzcGxheTppbmxpbmU7ZmlsbDp1cmwoI2xpbmVhckdyYWRpZW50MTM3MSk7ZmlsbC1vcGFjaXR5OjE7ZmlsbC1ydWxlOmV2ZW5vZGQ7c3Ryb2tlOiMwMDAwMDA7c3Ryb2tlLXdpZHRoOjAuMjU7c3Ryb2tlLWxpbmVjYXA6YnV0dDtzdHJva2UtbGluZWpvaW46YmV2ZWw7c3Ryb2tlLW1pdGVybGltaXQ6NDtzdHJva2UtZGFzaGFycmF5Om5vbmU7c3Ryb2tlLWRhc2hvZmZzZXQ6MDtzdHJva2Utb3BhY2l0eToxIi8+JiN4YTsgICAgPHJlY3QgeT0iOTM1IiB4PSI3MzciIGhlaWdodD0iMTUiIHdpZHRoPSI1MCIgaWQ9InJlY3QzMTY1IiBzdHlsZT0iZGlzcGxheTppbmxpbmU7ZmlsbDp1cmwoI2xpbmVhckdyYWRpZW50MTM3Myk7ZmlsbC1vcGFjaXR5OjE7ZmlsbC1ydWxlOmV2ZW5vZGQ7c3Ryb2tlOiMwMDAwMDA7c3Ryb2tlLXdpZHRoOjAuMjU7c3Ryb2tlLWxpbmVjYXA6YnV0dDtzdHJva2UtbGluZWpvaW46YmV2ZWw7c3Ryb2tlLW1pdGVybGltaXQ6NDtzdHJva2UtZGFzaGFycmF5Om5vbmU7c3Ryb2tlLWRhc2hvZmZzZXQ6MDtzdHJva2Utb3BhY2l0eToxIi8+JiN4YTsgICAgPHVzZSBoZWlnaHQ9Ijc0NC4wOTQ0OCIgd2lkdGg9IjEwNTIuMzYyMiIgdHJhbnNmb3JtPSJ0cmFuc2xhdGUoNjUsLTEzNSkiIGlkPSJ1c2UzMjY5IiB4bGluazpocmVmPSIjcmVjdDIxODAiIHk9IjAiIHg9IjAiIHN0eWxlPSJkaXNwbGF5OmlubGluZSIvPiYjeGE7ICAgIDx1c2UgaGVpZ2h0PSI3NDQuMDk0NDgiIHdpZHRoPSIxMDUyLjM2MjIiIHRyYW5zZm9ybT0idHJhbnNsYXRlKDY1LC0xMzUpIiBpZD0idXNlMzI3MSIgeGxpbms6aHJlZj0iI3JlY3QzMTY1IiB5PSIwIiB4PSIwIiBzdHlsZT0iZGlzcGxheTppbmxpbmUiLz4mI3hhOyAgICA8dXNlIGhlaWdodD0iNzQ0LjA5NDQ4IiB3aWR0aD0iMTA1Mi4zNjIyIiB0cmFuc2Zvcm09InRyYW5zbGF0ZSgzMjUsLTQwKSIgaWQ9InVzZTc2MzIiIHhsaW5rOmhyZWY9IiNyZWN0NjY1OSIgeT0iMCIgeD0iMCIgc3R5bGU9ImRpc3BsYXk6aW5saW5lIi8+JiN4YTsgICAgPHVzZSBoZWlnaHQ9IjEwNTIuMzYyMiIgd2lkdGg9IjE0ODguMTg5IiB0cmFuc2Zvcm09InRyYW5zbGF0ZSgtNjUpIiBpZD0idXNlMTM3NjQiIHhsaW5rOmhyZWY9IiNyZWN0MjE4MCIgeT0iMCIgeD0iMCIgc3R5bGU9ImRpc3BsYXk6aW5saW5lIi8+JiN4YTsgICAgPHVzZSBoZWlnaHQ9IjEwNTIuMzYyMiIgd2lkdGg9IjE0ODguMTg5IiB0cmFuc2Zvcm09InRyYW5zbGF0ZSgtNjUpIiBpZD0idXNlMTM3NjYiIHhsaW5rOmhyZWY9IiNyZWN0MzE2NSIgeT0iMCIgeD0iMCIgc3R5bGU9ImRpc3BsYXk6aW5saW5lIi8+JiN4YTsgICAgPHJlY3Qgcng9IjEwIiByeT0iMTAiIHN0eWxlPSJkaXNwbGF5OmlubGluZTtmaWxsOnVybCgjbGluZWFyR3JhZGllbnQxMzc1KTtmaWxsLW9wYWNpdHk6MTtmaWxsLXJ1bGU6ZXZlbm9kZDtzdHJva2U6IzAwMDAwMDtzdHJva2Utd2lkdGg6MC4yNTtzdHJva2UtbGluZWNhcDpidXR0O3N0cm9rZS1saW5lam9pbjpiZXZlbDtzdHJva2UtbWl0ZXJsaW1pdDo0O3N0cm9rZS1kYXNoYXJyYXk6bm9uZTtzdHJva2UtZGFzaG9mZnNldDowO3N0cm9rZS1vcGFjaXR5OjEiIGlkPSJyZWN0MjUxNTQiIHdpZHRoPSI1MCIgaGVpZ2h0PSIyNSIgeD0iODAyIiB5PSI5MjUiLz4mI3hhOyAgICA8dXNlIGhlaWdodD0iMTA1MiIgd2lkdGg9IjE0ODgiIHRyYW5zZm9ybT0idHJhbnNsYXRlKDY1LC0xNzUpIiBpZD0idXNlMzM3NiIgeGxpbms6aHJlZj0iI3JlY3QyMTgwIiB5PSIwIiB4PSIwIiBzdHlsZT0iZGlzcGxheTppbmxpbmUiLz4mI3hhOyAgICA8dXNlIGhlaWdodD0iMTA1MiIgd2lkdGg9IjE0ODgiIHRyYW5zZm9ybT0idHJhbnNsYXRlKDY1LC0xNzUpIiBpZD0idXNlMzM3OCIgeGxpbms6aHJlZj0iI3JlY3QzMTY1IiB5PSIwIiB4PSIwIiBzdHlsZT0iZGlzcGxheTppbmxpbmUiLz4mI3hhOyAgICA8dXNlIGhlaWdodD0iMTA1MiIgd2lkdGg9IjE0ODgiIHRyYW5zZm9ybT0idHJhbnNsYXRlKDAsLTI3NCkiIGlkPSJ1c2UzODE4IiB4bGluazpocmVmPSIjcmVjdDI1MTU0IiB5PSIwIiB4PSIwIiBzdHlsZT0iZGlzcGxheTppbmxpbmUiLz4mI3hhOyAgICA8dXNlIGhlaWdodD0iMTA1MiIgd2lkdGg9IjE1MTAiIHRyYW5zZm9ybT0idHJhbnNsYXRlKDY1LC00MCkiIGlkPSJ1c2UzNDg0IiB4bGluazpocmVmPSIjcmVjdDMxNjUiIHk9IjAiIHg9IjAiIHN0eWxlPSJkaXNwbGF5OmlubGluZSIvPiYjeGE7ICAgIDx1c2UgaGVpZ2h0PSI3NDQuMDk0NDgiIHdpZHRoPSIxMDUyLjM2MjIiIHRyYW5zZm9ybT0idHJhbnNsYXRlKDIxMCwtOTUpIiBpZD0idXNlMzIyNSIgeGxpbms6aHJlZj0iI3JlY3QzMTY1IiB5PSIwIiB4PSIwIiBzdHlsZT0iZGlzcGxheTppbmxpbmUiLz4mI3hhOyAgICA8dXNlIGhlaWdodD0iNzQ0LjA5NDQ4IiB3aWR0aD0iMTA1Mi4zNjIyIiB0cmFuc2Zvcm09InRyYW5zbGF0ZSgyMTAsLTk1KSIgaWQ9InVzZTMyMzUiIHhsaW5rOmhyZWY9IiNyZWN0MjE4MCIgeT0iMCIgeD0iMCIgc3R5bGU9ImRpc3BsYXk6aW5saW5lIi8+JiN4YTsgICAgPHVzZSBoZWlnaHQ9Ijc0NC4wOTQ0OCIgd2lkdGg9IjEwNTIuMzYyMiIgdHJhbnNmb3JtPSJ0cmFuc2xhdGUoMjEwLC00MCkiIGlkPSJ1c2U3NjM4IiB4bGluazpocmVmPSIjcmVjdDIxODAiIHk9IjAiIHg9IjAiIHN0eWxlPSJkaXNwbGF5OmlubGluZSIvPiYjeGE7ICAgIDx1c2UgaGVpZ2h0PSI3NDQuMDk0NDgiIHdpZHRoPSIxMDUyLjM2MjIiIHRyYW5zZm9ybT0idHJhbnNsYXRlKDIxMCwtNDApIiBpZD0idXNlNzY0MCIgeGxpbms6aHJlZj0iI3JlY3QzMTY1IiB5PSIwIiB4PSIwIiBzdHlsZT0iZGlzcGxheTppbmxpbmUiLz4mI3hhOyAgICA8dXNlIHN0eWxlPSJmb250LXN0eWxlOm5vcm1hbDtmb250LXZhcmlhbnQ6bm9ybWFsO2ZvbnQtd2VpZ2h0Om5vcm1hbDtmb250LXN0cmV0Y2g6bm9ybWFsO2ZvbnQtc2l6ZToyMHB4O2xpbmUtaGVpZ2h0OjEwMCU7Zm9udC1mYW1pbHk6QXJpYWw7dGV4dC1hbGlnbjpzdGFydDt3cml0aW5nLW1vZGU6bHItdGI7dGV4dC1hbmNob3I6c3RhcnQ7ZGlzcGxheTppbmxpbmUiIGhlaWdodD0iNzQ0LjA5NDQ4IiB3aWR0aD0iMTA1Mi4zNjIyIiB0cmFuc2Zvcm09InRyYW5zbGF0ZSgyMTApIiBpZD0idXNlNzY5NCIgeGxpbms6aHJlZj0iI3JlY3QyMTgwIiB5PSIwIiB4PSIwIi8+JiN4YTsgICAgPHVzZSBoZWlnaHQ9Ijc0NC4wOTQ0OCIgd2lkdGg9IjEwNTIuMzYyMiIgdHJhbnNmb3JtPSJ0cmFuc2xhdGUoMjEwKSIgaWQ9InVzZTc2OTYiIHhsaW5rOmhyZWY9IiNyZWN0MzE2NSIgeT0iMCIgeD0iMCIgc3R5bGU9ImRpc3BsYXk6aW5saW5lIi8+JiN4YTsgICAgPHVzZSBoZWlnaHQ9IjEwNTIiIHdpZHRoPSIxNDg4IiB0cmFuc2Zvcm09InRyYW5zbGF0ZSgyNzUpIiBpZD0idXNlMzQwMSIgeGxpbms6aHJlZj0iI3JlY3QzMTY1IiB5PSIwIiB4PSIwIiBzdHlsZT0iZGlzcGxheTppbmxpbmUiLz4mI3hhOyAgICA8dXNlIGhlaWdodD0iMTA1MiIgd2lkdGg9IjE0ODgiIHRyYW5zZm9ybT0idHJhbnNsYXRlKDI3NSwtNDApIiBpZD0idXNlMzQwMyIgeGxpbms6aHJlZj0iI3JlY3QzMTY1IiB5PSIwIiB4PSIwIiBzdHlsZT0iZGlzcGxheTppbmxpbmUiLz4mI3hhOyAgICA8dXNlIGhlaWdodD0iMTA1MiIgd2lkdGg9IjE0ODgiIHRyYW5zZm9ybT0idHJhbnNsYXRlKDI3NSwtOTUpIiBpZD0idXNlMzQwNSIgeGxpbms6aHJlZj0iI3JlY3QzMTY1IiB5PSIwIiB4PSIwIiBzdHlsZT0iZGlzcGxheTppbmxpbmUiLz4mI3hhOyAgICA8dXNlIGhlaWdodD0iMTA1MiIgd2lkdGg9IjE0ODgiIHRyYW5zZm9ybT0idHJhbnNsYXRlKDI3NSkiIGlkPSJ1c2UzNDA3IiB4bGluazpocmVmPSIjcmVjdDIxODAiIHk9IjAiIHg9IjAiIHN0eWxlPSJkaXNwbGF5OmlubGluZSIvPiYjeGE7ICAgIDx1c2UgaGVpZ2h0PSIxMDUyIiB3aWR0aD0iMTQ4OCIgdHJhbnNmb3JtPSJ0cmFuc2xhdGUoMjc1LC00MCkiIGlkPSJ1c2UzNDA5IiB4bGluazpocmVmPSIjcmVjdDIxODAiIHk9IjAiIHg9IjAiIHN0eWxlPSJkaXNwbGF5OmlubGluZSIvPiYjeGE7ICAgIDx1c2UgaGVpZ2h0PSIxMDUyIiB3aWR0aD0iMTQ4OCIgdHJhbnNmb3JtPSJ0cmFuc2xhdGUoMjc1LC05NSkiIGlkPSJ1c2UzNDExIiB4bGluazpocmVmPSIjcmVjdDIxODAiIHk9IjAiIHg9IjAiIHN0eWxlPSJkaXNwbGF5OmlubGluZSIvPiYjeGE7ICAgIDx1c2UgaGVpZ2h0PSI3NDQuMDk0NDgiIHdpZHRoPSIxMDUyLjM2MjIiIHRyYW5zZm9ybT0idHJhbnNsYXRlKDQyMCwtMTcwKSIgaWQ9InVzZTY1NjAiIHhsaW5rOmhyZWY9IiNyZWN0MjE4MCIgeT0iMCIgeD0iMCIgc3R5bGU9ImRpc3BsYXk6aW5saW5lIi8+JiN4YTsgICAgPHVzZSBoZWlnaHQ9Ijc0NC4wOTQ0OCIgd2lkdGg9IjEwNTIuMzYyMiIgdHJhbnNmb3JtPSJ0cmFuc2xhdGUoNDIwLC0xNzApIiBpZD0idXNlNjU2MiIgeGxpbms6aHJlZj0iI3JlY3QzMTY1IiB5PSIwIiB4PSIwIiBzdHlsZT0iZGlzcGxheTppbmxpbmUiLz4mI3hhOyAgICA8dXNlIGhlaWdodD0iNzQ0LjA5NDQ4IiB3aWR0aD0iMTA1Mi4zNjIyIiB0cmFuc2Zvcm09InRyYW5zbGF0ZSg0MjApIiBpZD0idXNlMTI2NzEiIHhsaW5rOmhyZWY9IiNyZWN0MjE4MCIgeT0iMCIgeD0iMCIgc3R5bGU9ImRpc3BsYXk6aW5saW5lIi8+JiN4YTsgICAgPHVzZSBoZWlnaHQ9Ijc0NC4wOTQ0OCIgd2lkdGg9IjEwNTIuMzYyMiIgdHJhbnNmb3JtPSJ0cmFuc2xhdGUoNDIwKSIgaWQ9InVzZTEyNjczIiB4bGluazpocmVmPSIjcmVjdDMxNjUiIHk9IjAiIHg9IjAiIHN0eWxlPSJkaXNwbGF5OmlubGluZSIvPiYjeGE7ICAgIDx1c2UgaGVpZ2h0PSIxMDUyIiB3aWR0aD0iMTQ4OCIgdHJhbnNmb3JtPSJ0cmFuc2xhdGUoNDg0LjU2MzA5LC0xMjguNTgzMjYpIiBpZD0idXNlMzQ0MSIgeGxpbms6aHJlZj0iI3JlY3QzMTY1IiB5PSIwIiB4PSIwIiBzdHlsZT0iZGlzcGxheTppbmxpbmUiLz4mI3hhOyAgICA8dXNlIGhlaWdodD0iMTA1MiIgd2lkdGg9IjE0ODgiIHRyYW5zZm9ybT0idHJhbnNsYXRlKDQ4NC41NjMwOSwtMTI4LjU4MzI2KSIgaWQ9InVzZTM3OTAiIHhsaW5rOmhyZWY9IiNyZWN0MjE4MCIgeT0iMCIgeD0iMCIgc3R5bGU9ImRpc3BsYXk6aW5saW5lIi8+JiN4YTsgICAgPHVzZSBoZWlnaHQ9IjEwNTIiIHdpZHRoPSIxNTEwIiB0cmFuc2Zvcm09InRyYW5zbGF0ZSg0MjAsLTQwKSIgaWQ9InVzZTM0NjAiIHhsaW5rOmhyZWY9IiNyZWN0MzE2NSIgeT0iMCIgeD0iMCIgc3R5bGU9ImRpc3BsYXk6aW5saW5lIi8+JiN4YTsgICAgPHVzZSBoZWlnaHQ9IjEwNTIiIHdpZHRoPSIxNTEwIiB0cmFuc2Zvcm09InRyYW5zbGF0ZSg0MjAsLTQwKSIgaWQ9InVzZTM0NjQiIHhsaW5rOmhyZWY9IiNyZWN0MjE4MCIgeT0iMCIgeD0iMCIgc3R5bGU9ImRpc3BsYXk6aW5saW5lIi8+JiN4YTsgICAgPHVzZSBoZWlnaHQ9Ijc0NC4wOTQ0OCIgd2lkdGg9IjEwNTIuMzYyMiIgdHJhbnNmb3JtPSJ0cmFuc2xhdGUoNDg1KSIgaWQ9InVzZTEzNzQ0IiB4bGluazpocmVmPSIjcmVjdDIxODAiIHk9IjAiIHg9IjAiIHN0eWxlPSJkaXNwbGF5OmlubGluZSIvPiYjeGE7ICAgIDx1c2UgaGVpZ2h0PSI3NDQuMDk0NDgiIHdpZHRoPSIxMDUyLjM2MjIiIHRyYW5zZm9ybT0idHJhbnNsYXRlKDQ4NSkiIGlkPSJ1c2UxMzc0NiIgeGxpbms6aHJlZj0iI3JlY3QzMTY1IiB5PSIwIiB4PSIwIiBzdHlsZT0iZGlzcGxheTppbmxpbmUiLz4mI3hhOyAgICA8dXNlIGhlaWdodD0iMTA1MiIgd2lkdGg9IjE0ODgiIHRyYW5zZm9ybT0idHJhbnNsYXRlKDU0OS41NjMwOSwtMTI4LjU4MzI2KSIgaWQ9InVzZTM4MDAiIHhsaW5rOmhyZWY9IiNyZWN0MjE4MCIgeT0iMCIgeD0iMCIgc3R5bGU9ImRpc3BsYXk6aW5saW5lIi8+JiN4YTsgICAgPHVzZSBoZWlnaHQ9IjEwNTIiIHdpZHRoPSIxNDg4IiB0cmFuc2Zvcm09InRyYW5zbGF0ZSg1NDkuNTYzMDksLTEyOC41ODMyNikiIGlkPSJ1c2UzODAyIiB4bGluazpocmVmPSIjcmVjdDMxNjUiIHk9IjAiIHg9IjAiIHN0eWxlPSJkaXNwbGF5OmlubGluZSIvPiYjeGE7ICAgIDx1c2UgaGVpZ2h0PSIxMDUyIiB3aWR0aD0iMTUxMCIgdHJhbnNmb3JtPSJ0cmFuc2xhdGUoNDg1LC00MCkiIGlkPSJ1c2UzNDYyIiB4bGluazpocmVmPSIjcmVjdDMxNjUiIHk9IjAiIHg9IjAiIHN0eWxlPSJkaXNwbGF5OmlubGluZSIvPiYjeGE7ICAgIDx1c2UgaGVpZ2h0PSIxMDUyIiB3aWR0aD0iMTUxMCIgdHJhbnNmb3JtPSJ0cmFuc2xhdGUoNDg1LC00MCkiIGlkPSJ1c2UzNDY2IiB4bGluazpocmVmPSIjcmVjdDIxODAiIHk9IjAiIHg9IjAiIHN0eWxlPSJkaXNwbGF5OmlubGluZSIvPiYjeGE7ICAgIDx1c2UgaGVpZ2h0PSI3NDQuMDk0NDgiIHdpZHRoPSIxMDUyLjM2MjIiIHRyYW5zZm9ybT0idHJhbnNsYXRlKDU1MCwtMTcwKSIgaWQ9InVzZTMzMDMiIHhsaW5rOmhyZWY9IiNyZWN0MjE4MCIgeT0iMCIgeD0iMCIgc3R5bGU9ImRpc3BsYXk6aW5saW5lIi8+JiN4YTsgICAgPHVzZSBoZWlnaHQ9Ijc0NC4wOTQ0OCIgd2lkdGg9IjEwNTIuMzYyMiIgdHJhbnNmb3JtPSJ0cmFuc2xhdGUoNTUwLC0xNzApIiBpZD0idXNlMzMwNSIgeGxpbms6aHJlZj0iI3JlY3QzMTY1IiB5PSIwIiB4PSIwIiBzdHlsZT0iZGlzcGxheTppbmxpbmUiLz4mI3hhOyAgICA8dXNlIGhlaWdodD0iNzQ0LjA5NDQ4IiB3aWR0aD0iMTA1Mi4zNjIyIiB0cmFuc2Zvcm09InRyYW5zbGF0ZSg4MTAsLTQwKSIgaWQ9InVzZTc2MzYiIHhsaW5rOmhyZWY9IiNyZWN0NjY1OSIgeT0iMCIgeD0iMCIgc3R5bGU9ImRpc3BsYXk6aW5saW5lIi8+JiN4YTsgICAgPHVzZSBoZWlnaHQ9IjEwNTIiIHdpZHRoPSIxNTEwIiB0cmFuc2Zvcm09InRyYW5zbGF0ZSg1NTAsLTQwKSIgaWQ9InVzZTM0NzgiIHhsaW5rOmhyZWY9IiNyZWN0MzE2NSIgeT0iMCIgeD0iMCIgc3R5bGU9ImRpc3BsYXk6aW5saW5lIi8+JiN4YTsgICAgPHVzZSBoZWlnaHQ9IjEwNTIiIHdpZHRoPSIxNDg4IiB0cmFuc2Zvcm09InRyYW5zbGF0ZSg0MjAsLTI3NCkiIGlkPSJ1c2UzNDI2IiB4bGluazpocmVmPSIjcmVjdDI1MTU0IiB5PSIwIiB4PSIwIiBzdHlsZT0iZGlzcGxheTppbmxpbmUiLz4mI3hhOyAgICA8dXNlIGhlaWdodD0iMTA1MiIgd2lkdGg9IjE0ODgiIHRyYW5zZm9ybT0idHJhbnNsYXRlKDI5MCwtMTcwKSIgaWQ9InVzZTM4MjAiIHhsaW5rOmhyZWY9IiNyZWN0MjUxNTQiIHk9IjAiIHg9IjAiIHN0eWxlPSJkaXNwbGF5OmlubGluZSIvPiYjeGE7ICAgIDx1c2UgaGVpZ2h0PSI3NDQuMDk0NDgiIHdpZHRoPSIxMDUyLjM2MjIiIHRyYW5zZm9ybT0idHJhbnNsYXRlKDQwNSkiIGlkPSJ1c2U3NzAwIiB4bGluazpocmVmPSIjcmVjdDY2NTkiIHk9IjAiIHg9IjAiIHN0eWxlPSJkaXNwbGF5OmlubGluZSIvPiYjeGE7ICAgIDx1c2UgaGVpZ2h0PSIxMDUyIiB3aWR0aD0iMTUxMCIgdHJhbnNmb3JtPSJ0cmFuc2xhdGUoMTQ1KSIgaWQ9InVzZTM0ODYiIHhsaW5rOmhyZWY9IiNyZWN0MzE2NSIgeT0iMCIgeD0iMCIgc3R5bGU9ImRpc3BsYXk6aW5saW5lIi8+JiN4YTsgICAgPHVzZSBoZWlnaHQ9Ijc0NC4wOTQ0OCIgd2lkdGg9IjEwNTIuMzYyMiIgdHJhbnNmb3JtPSJ0cmFuc2xhdGUoNjE1KSIgaWQ9InVzZTg3NDMiIHhsaW5rOmhyZWY9IiNyZWN0NjY1OSIgeT0iMCIgeD0iMCIgc3R5bGU9ImRpc3BsYXk6aW5saW5lIi8+JiN4YTsgICAgPHVzZSBoZWlnaHQ9IjEwNTIiIHdpZHRoPSIxNTEwIiB0cmFuc2Zvcm09InRyYW5zbGF0ZSgzNTUpIiBpZD0idXNlMzQ4OCIgeGxpbms6aHJlZj0iI3JlY3QzMTY1IiB5PSIwIiB4PSIwIiBzdHlsZT0iZGlzcGxheTppbmxpbmUiLz4mI3hhOyAgICA8dXNlIGhlaWdodD0iNzQ0LjA5NDQ4IiB3aWR0aD0iMTA1Mi4zNjIyIiB0cmFuc2Zvcm09InRyYW5zbGF0ZSg4NzUsLTQwKSIgaWQ9InVzZTc2ODAiIHhsaW5rOmhyZWY9IiNyZWN0NjY1OSIgeT0iMCIgeD0iMCIgc3R5bGU9ImRpc3BsYXk6aW5saW5lIi8+JiN4YTsgICAgPHVzZSBoZWlnaHQ9IjEwNTIiIHdpZHRoPSIxNTEwIiB0cmFuc2Zvcm09InRyYW5zbGF0ZSg2MTUsLTQwKSIgaWQ9InVzZTM0ODIiIHhsaW5rOmhyZWY9IiNyZWN0MzE2NSIgeT0iMCIgeD0iMCIgc3R5bGU9ImRpc3BsYXk6aW5saW5lIi8+JiN4YTsgICAgPHVzZSB4PSIwIiB5PSIwIiB4bGluazpocmVmPSIjcmVjdDI1MTU0IiBpZD0idXNlNDM3OSIgdHJhbnNmb3JtPSJ0cmFuc2xhdGUoNTUwLC05NSkiIHdpZHRoPSIxNDg4IiBoZWlnaHQ9IjEwNTIiIHN0eWxlPSJkaXNwbGF5OmlubGluZSIvPiYjeGE7ICAgIDx1c2UgaGVpZ2h0PSIxMDUyIiB3aWR0aD0iMTUxMCIgdHJhbnNmb3JtPSJ0cmFuc2xhdGUoNjc5Ljk5MjY4LC00MC4wMjY4NSkiIGlkPSJ1c2UzNTAzIiB4bGluazpocmVmPSIjcmVjdDMxNjUiIHk9IjAiIHg9IjAiIHN0eWxlPSJkaXNwbGF5OmlubGluZSIvPiYjeGE7ICAgIDx1c2UgaGVpZ2h0PSIxMDUyIiB3aWR0aD0iMTUxMCIgdHJhbnNmb3JtPSJ0cmFuc2xhdGUoOTM5Ljk5MjY4LC00MC4wMjY4NSkiIGlkPSJ1c2UzNTA3IiB4bGluazpocmVmPSIjcmVjdDY2NTkiIHk9IjAiIHg9IjAiIHN0eWxlPSJkaXNwbGF5OmlubGluZSIvPiYjeGE7ICAgIDx1c2UgaGVpZ2h0PSIxMDUyIiB3aWR0aD0iMTQ4OCIgdHJhbnNmb3JtPSJ0cmFuc2xhdGUoNjk1KSIgaWQ9InVzZTM0MjUiIHhsaW5rOmhyZWY9IiNyZWN0MjUxNTQiIHk9IjAiIHg9IjAiIHN0eWxlPSJkaXNwbGF5OmlubGluZSIvPiYjeGE7ICAgIDx1c2UgaGVpZ2h0PSIxMDUyIiB3aWR0aD0iMTYxMCIgdHJhbnNmb3JtPSJ0cmFuc2xhdGUoNzYwKSIgaWQ9InVzZTI3MjIiIHhsaW5rOmhyZWY9IiNyZWN0MjUxNTQiIHk9IjAiIHg9IjAiIHN0eWxlPSJkaXNwbGF5OmlubGluZSIvPiYjeGE7ICAgIDx1c2UgaGVpZ2h0PSI0NzUiIHdpZHRoPSIxNDAwIiB0cmFuc2Zvcm09InRyYW5zbGF0ZSgtNTMwLC05NSkiIGlkPSJ1c2UzMzM5IiB4bGluazpocmVmPSIjcmVjdDI1MTU0IiB5PSIwIiB4PSIwIi8+JiN4YTsgICAgPHVzZSBoZWlnaHQ9IjQ3NSIgd2lkdGg9IjE0MDAiIHRyYW5zZm9ybT0idHJhbnNsYXRlKC01OTUpIiBpZD0idXNlMzM0NyIgeGxpbms6aHJlZj0iI3JlY3QyNTE1NCIgeT0iMCIgeD0iMCIvPiYjeGE7ICAgIDx1c2UgdHJhbnNmb3JtPSJ0cmFuc2xhdGUoNzYwLC05NSkiIGhlaWdodD0iNDc1IiB3aWR0aD0iMTQwMCIgaWQ9InVzZTQxMzgiIHhsaW5rOmhyZWY9IiNyZWN0MjUxNTQiIHk9IjAiIHg9IjAiLz4mI3hhOyAgICA8dXNlIGhlaWdodD0iNDc1IiB3aWR0aD0iMTQ1MCIgdHJhbnNmb3JtPSJ0cmFuc2xhdGUoMCw5NSkiIGlkPSJ1c2U0MjkzIiB4bGluazpocmVmPSIjdXNlMzM0NiIgeT0iMCIgeD0iMCIvPiYjeGE7ICAgIDx1c2UgaGVpZ2h0PSI0NzUiIHdpZHRoPSIxNDUwIiB0cmFuc2Zvcm09InRyYW5zbGF0ZSg2MTUsLTc1KSIgaWQ9InVzZTQyOTUiIHhsaW5rOmhyZWY9IiN1c2UzMzQ2IiB5PSIwIiB4PSIwIi8+JiN4YTsgICAgPHVzZSBoZWlnaHQ9IjQ3NSIgd2lkdGg9IjE0MDAiIHRyYW5zZm9ybT0idHJhbnNsYXRlKC03MTguODg2MDksMC42MzIwNTY5MikiIGlkPSJ1c2UzMzQ3LTYiIHhsaW5rOmhyZWY9IiNyZWN0MjUxNTQiIHk9IjAiIHg9IjAiIHN0eWxlPSJkaXNwbGF5OmlubGluZSIvPiYjeGE7ICAgIDx1c2UgaGVpZ2h0PSI0NzUiIHdpZHRoPSIxNDAwIiB0cmFuc2Zvcm09InRyYW5zbGF0ZSgtNzk2LjIyNDg0LDEuNjE5MTM3KSIgaWQ9InVzZTMzNDctNi0wIiB4bGluazpocmVmPSIjcmVjdDI1MTU0IiB5PSIwIiB4PSIwIiBzdHlsZT0iZGlzcGxheTppbmxpbmUiLz4mI3hhOyAgICA8cGF0aCBpZD0icGF0aDU5NCIgZD0ibSAxMTAuNTA2MSw5MjUuMTE0OTEgdiAtODIuMTcxMiBsIDE3LjAwMDk0LC0xNy4wMDA5NCBoIDIxLjA0ODc4IiBzdHlsZT0iZmlsbDpub25lO3N0cm9rZTojMDAwMDAwO3N0cm9rZS13aWR0aDoxLjU7c3Ryb2tlLWxpbmVjYXA6YnV0dDtzdHJva2UtbGluZWpvaW46bWl0ZXI7c3Ryb2tlLW1pdGVybGltaXQ6NDtzdHJva2UtZGFzaGFycmF5Om5vbmU7c3Ryb2tlLW9wYWNpdHk6MTttYXJrZXItZW5kOnVybCgjQXJyb3cyTWVuZCkiLz4mI3hhOyAgICA8dXNlIGhlaWdodD0iMTA1MiIgd2lkdGg9IjE0ODgiIHRyYW5zZm9ybT0idHJhbnNsYXRlKDY0Ljk0OTQxMiwtMjE1LjQ2OTE4KSIgaWQ9InVzZTMzNzYtNSIgeGxpbms6aHJlZj0iI3JlY3QyMTgwIiB5PSIwIiB4PSIwIiBzdHlsZT0iZGlzcGxheTppbmxpbmUiLz4mI3hhOyAgICA8dXNlIGhlaWdodD0iNzQ0LjA5NDQ4IiB3aWR0aD0iMTA1Mi4zNjIyIiB0cmFuc2Zvcm09InRyYW5zbGF0ZSg2NC44NjMyNTUsLTIxNi4zNTM5NCkiIGlkPSJ1c2UzMjIxLTEiIHhsaW5rOmhyZWY9IiNyZWN0MzE2NSIgeT0iMCIgeD0iMCIgc3R5bGU9ImRpc3BsYXk6aW5saW5lIi8+JiN4YTsgIDwvZz4mI3hhOyAgPGcgdHJhbnNmb3JtPSJ0cmFuc2xhdGUoMCwtNDc1KSIgc3R5bGU9ImRpc3BsYXk6aW5saW5lIiBpZD0ibGF5ZXI2Ij4mI3hhOyAgICA8dGV4dCBpZD0idGV4dDEzNzkyIiB5PSI5MzMuMTE0MjYiIHg9IjU2Ni43MjY1NiIgc3R5bGU9ImZvbnQtc3R5bGU6bm9ybWFsO2ZvbnQtdmFyaWFudDpub3JtYWw7Zm9udC13ZWlnaHQ6bm9ybWFsO2ZvbnQtc3RyZXRjaDpub3JtYWw7Zm9udC1zaXplOjEwcHg7bGluZS1oZWlnaHQ6MTAwJTtmb250LWZhbWlseTpBcmlhbDt0ZXh0LWFsaWduOmNlbnRlcjt3cml0aW5nLW1vZGU6bHItdGI7dGV4dC1hbmNob3I6bWlkZGxlO2Rpc3BsYXk6aW5saW5lO2ZpbGw6IzAwMDAwMDtmaWxsLW9wYWNpdHk6MTtzdHJva2U6bm9uZSIgeG1sOnNwYWNlPSJwcmVzZXJ2ZSI+PHRzcGFuIHk9IjkzMy4xMTQyNiIgeD0iNTY2LjcyNjU2IiBpZD0idHNwYW4xMzc5NCI+cmF3PC90c3Bhbj48L3RleHQ+JiN4YTsgICAgPHRleHQgaWQ9InRleHQxMzgwNCIgeT0iOTMzLjk2MTQzIiB4PSI1MDEuNzA0NTkiIHN0eWxlPSJmb250LXN0eWxlOm5vcm1hbDtmb250LXZhcmlhbnQ6bm9ybWFsO2ZvbnQtd2VpZ2h0Om5vcm1hbDtmb250LXN0cmV0Y2g6bm9ybWFsO2ZvbnQtc2l6ZToxMHB4O2xpbmUtaGVpZ2h0OjEwMCU7Zm9udC1mYW1pbHk6QXJpYWw7dGV4dC1hbGlnbjpjZW50ZXI7d3JpdGluZy1tb2RlOmxyLXRiO3RleHQtYW5jaG9yOm1pZGRsZTtkaXNwbGF5OmlubGluZTtmaWxsOiNmZmZmZmY7ZmlsbC1vcGFjaXR5OjE7c3Ryb2tlOm5vbmUiIHhtbDpzcGFjZT0icHJlc2VydmUiPjx0c3BhbiB5PSI5MzMuOTYxNDMiIHg9IjUwMS43MDQ1OSIgaWQ9InRzcGFuMTM4MDYiPm5hdDwvdHNwYW4+PC90ZXh0PiYjeGE7ICAgIDx0ZXh0IGlkPSJ0ZXh0MTM4MTYiIHk9IjkzMy44NDIwNCIgeD0iNDM2Ljg4MjgxIiBzdHlsZT0iZm9udC1zdHlsZTpub3JtYWw7Zm9udC12YXJpYW50Om5vcm1hbDtmb250LXdlaWdodDpub3JtYWw7Zm9udC1zdHJldGNoOm5vcm1hbDtmb250LXNpemU6MTBweDtsaW5lLWhlaWdodDoxMDAlO2ZvbnQtZmFtaWx5OkFyaWFsO3RleHQtYWxpZ246Y2VudGVyO3dyaXRpbmctbW9kZTpsci10Yjt0ZXh0LWFuY2hvcjptaWRkbGU7ZGlzcGxheTppbmxpbmU7ZmlsbDojZmZmZmZmO2ZpbGwtb3BhY2l0eToxO3N0cm9rZTpub25lIiB4bWw6c3BhY2U9InByZXNlcnZlIj48dHNwYW4geT0iOTMzLjg0MjA0IiB4PSI0MzYuODgyODEiIGlkPSJ0c3BhbjEzODE4Ij5icm91dGU8L3RzcGFuPjwvdGV4dD4mI3hhOyAgICA8dGV4dCBpZD0idGV4dDEzODIwIiB5PSI5NDUuMDI2ODYiIHg9IjQzNy4wMDk3NyIgc3R5bGU9ImZvbnQtc3R5bGU6bm9ybWFsO2ZvbnQtdmFyaWFudDpub3JtYWw7Zm9udC13ZWlnaHQ6bm9ybWFsO2ZvbnQtc3RyZXRjaDpub3JtYWw7Zm9udC1zaXplOjEwcHg7bGluZS1oZWlnaHQ6MTAwJTtmb250LWZhbWlseTpBcmlhbDt0ZXh0LWFsaWduOmNlbnRlcjt3cml0aW5nLW1vZGU6bHItdGI7dGV4dC1hbmNob3I6bWlkZGxlO2Rpc3BsYXk6aW5saW5lO2ZpbGw6IzAwMDAwMDtmaWxsLW9wYWNpdHk6MTtzdHJva2U6bm9uZSIgeG1sOnNwYWNlPSJwcmVzZXJ2ZSI+PHRzcGFuIHk9Ijk0NS4wMjY4NiIgeD0iNDM3LjAwOTc3IiBpZD0idHNwYW4xMzgyMiI+YnJvdXRpbmc8L3RzcGFuPjwvdGV4dD4mI3hhOyAgICA8dGV4dCBpZD0idGV4dDE0ODQ0IiB5PSI5MzYuMDIwNTEiIHg9IjM2MS44ODI4MSIgc3R5bGU9ImZvbnQtc3R5bGU6bm9ybWFsO2ZvbnQtdmFyaWFudDpub3JtYWw7Zm9udC13ZWlnaHQ6bm9ybWFsO2ZvbnQtc3RyZXRjaDpub3JtYWw7Zm9udC1zaXplOjEwcHg7bGluZS1oZWlnaHQ6MTAwJTtmb250LWZhbWlseTpBcmlhbDt0ZXh0LWFsaWduOmNlbnRlcjt3cml0aW5nLW1vZGU6bHItdGI7dGV4dC1hbmNob3I6bWlkZGxlO2Rpc3BsYXk6aW5saW5lO2ZpbGw6IzAwMDAwMDtmaWxsLW9wYWNpdHk6MTtzdHJva2U6bm9uZSIgeG1sOnNwYWNlPSJwcmVzZXJ2ZSI+PHRzcGFuIHk9IjkzNi4wMjA1MSIgeD0iMzYxLjg4MjgxIiBpZD0idHNwYW4xNDg0NiI+YnJpZGdlPC90c3Bhbj48dHNwYW4gaWQ9InRzcGFuMTQ4NDgiIHk9Ijk0Ni4wMjA1MSIgeD0iMzYxLjg4MjgxIj5jaGVjazwvdHNwYW4+PC90ZXh0PiYjeGE7ICAgIDx1c2UgaGVpZ2h0PSIxMDUyIiB3aWR0aD0iMTQ4OCIgdHJhbnNmb3JtPSJ0cmFuc2xhdGUoLTE5NSkiIGlkPSJ1c2UyNTA4MCIgeGxpbms6aHJlZj0iI3RleHQxMzc2MCIgeT0iMCIgeD0iMCIgc3R5bGU9ImRpc3BsYXk6aW5saW5lIi8+JiN4YTsgICAgPHVzZSBoZWlnaHQ9IjEwNTIiIHdpZHRoPSIxNDg4IiB0cmFuc2Zvcm09InRyYW5zbGF0ZSgtMjYwKSIgaWQ9InVzZTI1MDkwIiB4bGluazpocmVmPSIjdGV4dDEzNzYwIiB5PSIwIiB4PSIwIiBzdHlsZT0iZGlzcGxheTppbmxpbmUiLz4mI3hhOyAgICA8dGV4dCB4bWw6c3BhY2U9InByZXNlcnZlIiBzdHlsZT0iZm9udC1zdHlsZTpub3JtYWw7Zm9udC12YXJpYW50Om5vcm1hbDtmb250LXdlaWdodDpub3JtYWw7Zm9udC1zdHJldGNoOm5vcm1hbDtmb250LXNpemU6MTBweDtsaW5lLWhlaWdodDoxMDAlO2ZvbnQtZmFtaWx5OkFyaWFsO3RleHQtYWxpZ246Y2VudGVyO3dyaXRpbmctbW9kZTpsci10Yjt0ZXh0LWFuY2hvcjptaWRkbGU7ZGlzcGxheTppbmxpbmU7ZmlsbDojMDAwMDAwO2ZpbGwtb3BhY2l0eToxO3N0cm9rZTpub25lIiB4PSIyOTYuODYwODQiIHk9IjkzNS4wMjY4NiIgaWQ9InRleHQyNzEwIj48dHNwYW4geD0iMjk2Ljg2MDg0IiB5PSI5MzUuMDI2ODYiIGlkPSJ0c3BhbjI3MTQiPmluZ3Jlc3M8L3RzcGFuPjx0c3BhbiBpZD0idHNwYW40MjcxIiB4PSIyOTYuODYwODQiIHk9Ijk0NS4wMjY4NiI+KHFkaXNjKTwvdHNwYW4+PC90ZXh0PiYjeGE7ICAgIDx1c2UgaGVpZ2h0PSIxMDUyIiB3aWR0aD0iMTQ4OCIgdHJhbnNmb3JtPSJ0cmFuc2xhdGUoMCw5NSkiIGlkPSJ1c2UzMzY2IiB4bGluazpocmVmPSIjdGV4dDMzNTAiIHk9IjAiIHg9IjAiIHN0eWxlPSJkaXNwbGF5OmlubGluZSIvPiYjeGE7ICAgIDx1c2UgaGVpZ2h0PSIxMDUyIiB3aWR0aD0iMTQ4OCIgdHJhbnNmb3JtPSJ0cmFuc2xhdGUoLTNlLTYsLTk1KSIgaWQ9InVzZTI1MDcyIiB4bGluazpocmVmPSIjdGV4dDEzNzkyIiB5PSIwIiB4PSIwIiBzdHlsZT0iZGlzcGxheTppbmxpbmUiLz4mI3hhOyAgICA8dXNlIGhlaWdodD0iMTA1MiIgd2lkdGg9IjE0ODgiIHRyYW5zZm9ybT0idHJhbnNsYXRlKDAsLTk0LjY3ODQ3KSIgaWQ9InVzZTI1MDc2IiB4bGluazpocmVmPSIjdGV4dDEzNzU2IiB5PSIwIiB4PSIwIiBzdHlsZT0iZGlzcGxheTppbmxpbmUiLz4mI3hhOyAgICA8dXNlIGhlaWdodD0iMTA1MiIgd2lkdGg9IjE0ODgiIHRyYW5zZm9ybT0idHJhbnNsYXRlKC0xOTUsLTk1KSIgaWQ9InVzZTI1MDgyIiB4bGluazpocmVmPSIjdGV4dDEzNzYwIiB5PSIwIiB4PSIwIiBzdHlsZT0iZGlzcGxheTppbmxpbmUiLz4mI3hhOyAgICA8dXNlIGhlaWdodD0iMTA1MiIgd2lkdGg9IjE0ODgiIHRyYW5zZm9ybT0idHJhbnNsYXRlKC02NSwtOTUpIiBpZD0idXNlMjUwODQiIHhsaW5rOmhyZWY9IiN0ZXh0MTM3NjAiIHk9IjAiIHg9IjAiIHN0eWxlPSJkaXNwbGF5OmlubGluZSIvPiYjeGE7ICAgIDx1c2UgaGVpZ2h0PSIxMDUyIiB3aWR0aD0iMTQ4OCIgdHJhbnNmb3JtPSJ0cmFuc2xhdGUoMCwtOTUpIiBpZD0idXNlMjUwODYiIHhsaW5rOmhyZWY9IiN0ZXh0MTM3NjAiIHk9IjAiIHg9IjAiIHN0eWxlPSJkaXNwbGF5OmlubGluZSIvPiYjeGE7ICAgIDx1c2UgaGVpZ2h0PSIxMDUyIiB3aWR0aD0iMTQ4OCIgdHJhbnNmb3JtPSJ0cmFuc2xhdGUoMCwtOTUpIiBpZD0idXNlMjUwNzQiIHhsaW5rOmhyZWY9IiN0ZXh0MTM3NjgiIHk9IjAiIHg9IjAiIHN0eWxlPSJkaXNwbGF5OmlubGluZSIvPiYjeGE7ICAgIDx0ZXh0IGlkPSJ0ZXh0MzM1MCIgeT0iODQ2LjAyMDUxIiB4PSI2MTAuMTM0NzciIHN0eWxlPSJmb250LXN0eWxlOm5vcm1hbDtmb250LXZhcmlhbnQ6bm9ybWFsO2ZvbnQtd2VpZ2h0Om5vcm1hbDtmb250LXN0cmV0Y2g6bm9ybWFsO2ZvbnQtc2l6ZToyMHB4O2xpbmUtaGVpZ2h0OjEwMCU7Zm9udC1mYW1pbHk6QXJpYWw7dGV4dC1hbGlnbjpzdGFydDt3cml0aW5nLW1vZGU6bHItdGI7dGV4dC1hbmNob3I6c3RhcnQ7ZGlzcGxheTppbmxpbmU7ZmlsbDojMDAwMDAwO2ZpbGwtb3BhY2l0eToxO3N0cm9rZTpub25lIiB4bWw6c3BhY2U9InByZXNlcnZlIj48dHNwYW4gc3R5bGU9ImZvbnQtc2l6ZToxMHB4IiB5PSI4NDYuMDIwNTEiIHg9IjYxMC4xMzQ3NyIgaWQ9InRzcGFuMzM1MiI+Y29ubnRyYWNrPC90c3Bhbj48L3RleHQ+JiN4YTsgICAgPHRleHQgaWQ9InRleHQzMjY1IiB5PSI4NDEuMDIwNTEiIHg9IjgyNy4xNzU3OCIgc3R5bGU9ImZvbnQtc3R5bGU6bm9ybWFsO2ZvbnQtdmFyaWFudDpub3JtYWw7Zm9udC13ZWlnaHQ6bm9ybWFsO2ZvbnQtc3RyZXRjaDpub3JtYWw7Zm9udC1zaXplOjEwcHg7bGluZS1oZWlnaHQ6MTAwJTtmb250LWZhbWlseTpBcmlhbDt0ZXh0LWFsaWduOmNlbnRlcjt3cml0aW5nLW1vZGU6bHItdGI7dGV4dC1hbmNob3I6bWlkZGxlO2Rpc3BsYXk6aW5saW5lO2ZpbGw6IzAwMDAwMDtmaWxsLW9wYWNpdHk6MTtzdHJva2U6bm9uZSIgeG1sOnNwYWNlPSJwcmVzZXJ2ZSI+PHRzcGFuIHk9Ijg0MS4wMjA1MSIgeD0iODI3LjE3NTc4IiBpZD0idHNwYW4zMjY3Ij5yb3V0aW5nPC90c3Bhbj48dHNwYW4gaWQ9InRzcGFuMTM4NDIiIHk9Ijg1MS4wMjA1MSIgeD0iODI3LjE3NTc4Ij5kZWNpc2lvbjwvdHNwYW4+PC90ZXh0PiYjeGE7ICAgIDx0ZXh0IGlkPSJ0ZXh0NzY1MCIgeT0iOTA1LjA4NTQ1IiB4PSI4MjYuNzAyMTUiIHN0eWxlPSJmb250LXN0eWxlOm5vcm1hbDtmb250LXZhcmlhbnQ6bm9ybWFsO2ZvbnQtd2VpZ2h0Om5vcm1hbDtmb250LXN0cmV0Y2g6bm9ybWFsO2ZvbnQtc2l6ZToxMHB4O2xpbmUtaGVpZ2h0OjEwMCU7Zm9udC1mYW1pbHk6QXJpYWw7dGV4dC1hbGlnbjpjZW50ZXI7d3JpdGluZy1tb2RlOmxyLXRiO3RleHQtYW5jaG9yOm1pZGRsZTtkaXNwbGF5OmlubGluZTtmaWxsOiMwMDAwMDA7ZmlsbC1vcGFjaXR5OjE7c3Ryb2tlOm5vbmUiIHhtbDpzcGFjZT0icHJlc2VydmUiPjx0c3BhbiB5PSI5MDUuMDg1NDUiIHg9IjgyNi43MDIxNSIgaWQ9InRzcGFuNzY1MiI+aW5wdXQ8L3RzcGFuPjwvdGV4dD4mI3hhOyAgICA8dGV4dCBpZD0idGV4dDEzNzU2IiB5PSI5MzMuNDM5OTQiIHg9Ijc2MS43MDQ1OSIgc3R5bGU9ImZvbnQtc3R5bGU6bm9ybWFsO2ZvbnQtdmFyaWFudDpub3JtYWw7Zm9udC13ZWlnaHQ6bm9ybWFsO2ZvbnQtc3RyZXRjaDpub3JtYWw7Zm9udC1zaXplOjEwcHg7bGluZS1oZWlnaHQ6MTAwJTtmb250LWZhbWlseTpBcmlhbDt0ZXh0LWFsaWduOmNlbnRlcjt3cml0aW5nLW1vZGU6bHItdGI7dGV4dC1hbmNob3I6bWlkZGxlO2Rpc3BsYXk6aW5saW5lO2ZpbGw6IzAwMDAwMDtmaWxsLW9wYWNpdHk6MTtzdHJva2U6bm9uZSIgeG1sOnNwYWNlPSJwcmVzZXJ2ZSI+PHRzcGFuIHk9IjkzMy40Mzk5NCIgeD0iNzYxLjcwNDU5IiBpZD0idHNwYW4xMzc1OCI+bmF0PC90c3Bhbj48L3RleHQ+JiN4YTsgICAgPHRleHQgaWQ9InRleHQxMzc2MCIgeT0iOTQ1LjAyNjg2IiB4PSI3NjIuMDA3MzIiIHN0eWxlPSJmb250LXN0eWxlOm5vcm1hbDtmb250LXZhcmlhbnQ6bm9ybWFsO2ZvbnQtd2VpZ2h0Om5vcm1hbDtmb250LXN0cmV0Y2g6bm9ybWFsO2ZvbnQtc2l6ZToxMHB4O2xpbmUtaGVpZ2h0OjEwMCU7Zm9udC1mYW1pbHk6QXJpYWw7dGV4dC1hbGlnbjpjZW50ZXI7d3JpdGluZy1tb2RlOmxyLXRiO3RleHQtYW5jaG9yOm1pZGRsZTtkaXNwbGF5OmlubGluZTtmaWxsOiMwMDAwMDA7ZmlsbC1vcGFjaXR5OjE7c3Ryb2tlOm5vbmUiIHhtbDpzcGFjZT0icHJlc2VydmUiPjx0c3BhbiB5PSI5NDUuMDI2ODYiIHg9Ijc2Mi4wMDczMiIgaWQ9InRzcGFuMTM3NjIiPnByZXJvdXRpbmc8L3RzcGFuPjwvdGV4dD4mI3hhOyAgICA8dGV4dCBpZD0idGV4dDEzNzY4IiB5PSI5MzIuNzk1NjUiIHg9IjY5Ni44OTIzMyIgc3R5bGU9ImZvbnQtc3R5bGU6bm9ybWFsO2ZvbnQtdmFyaWFudDpub3JtYWw7Zm9udC13ZWlnaHQ6bm9ybWFsO2ZvbnQtc3RyZXRjaDpub3JtYWw7Zm9udC1zaXplOjlweDtsaW5lLWhlaWdodDoxMDAlO2ZvbnQtZmFtaWx5OkFyaWFsO3RleHQtYWxpZ246Y2VudGVyO3dyaXRpbmctbW9kZTpsci10Yjt0ZXh0LWFuY2hvcjptaWRkbGU7ZGlzcGxheTppbmxpbmU7ZmlsbDojMDAwMDAwO2ZpbGwtb3BhY2l0eToxO3N0cm9rZTpub25lIiB4bWw6c3BhY2U9InByZXNlcnZlIj48dHNwYW4geT0iOTMyLjc5NTY1IiB4PSI2OTYuODkyMzMiIGlkPSJ0c3BhbjEzNzcwIj5tYW5nbGU8L3RzcGFuPjwvdGV4dD4mI3hhOyAgICA8dGV4dCBpZD0idGV4dDEzODM2IiB5PSI5MzYuMDIwNTEiIHg9IjgyNy4xNzU3OCIgc3R5bGU9ImZvbnQtc3R5bGU6bm9ybWFsO2ZvbnQtdmFyaWFudDpub3JtYWw7Zm9udC13ZWlnaHQ6bm9ybWFsO2ZvbnQtc3RyZXRjaDpub3JtYWw7Zm9udC1zaXplOjEwcHg7bGluZS1oZWlnaHQ6MTAwJTtmb250LWZhbWlseTpBcmlhbDt0ZXh0LWFsaWduOmNlbnRlcjt3cml0aW5nLW1vZGU6bHItdGI7dGV4dC1hbmNob3I6bWlkZGxlO2Rpc3BsYXk6aW5saW5lO2ZpbGw6IzAwMDAwMDtmaWxsLW9wYWNpdHk6MTtzdHJva2U6bm9uZSIgeG1sOnNwYWNlPSJwcmVzZXJ2ZSI+PHRzcGFuIHk9IjkzNi4wMjA1MSIgeD0iODI3LjE3NTc4IiBpZD0idHNwYW4xMzgzOCI+YnJpZGdpbmc8L3RzcGFuPjx0c3BhbiBpZD0idHNwYW4xMzg0MCIgeT0iOTQ2LjAyMDUxIiB4PSI4MjcuMTc1NzgiPmRlY2lzaW9uPC90c3Bhbj48L3RleHQ+JiN4YTsgICAgPHVzZSB0cmFuc2Zvcm09InRyYW5zbGF0ZSgtNjUpIiBoZWlnaHQ9IjEwNTIiIHdpZHRoPSIxNDg4IiBpZD0idXNlMjUwNzgiIHhsaW5rOmhyZWY9IiN0ZXh0MTM3NjAiIHk9IjAiIHg9IjAiIHN0eWxlPSJkaXNwbGF5OmlubGluZSIvPiYjeGE7ICAgIDx1c2UgaGVpZ2h0PSIxMDUyIiB3aWR0aD0iMTQ4OCIgdHJhbnNmb3JtPSJ0cmFuc2xhdGUoLTgwLjAwMDAxLC00MCkiIGlkPSJ1c2UyNTE0NCIgeGxpbms6aHJlZj0iI3RleHQxMzgyOCIgeT0iMCIgeD0iMCIgc3R5bGU9ImRpc3BsYXk6aW5saW5lIi8+JiN4YTsgICAgPHRleHQgaWQ9InRleHQ3NzA2IiB5PSI5NDYuMDgxNTQiIHg9IjkwNy4zMTczOCIgc3R5bGU9ImZvbnQtc3R5bGU6bm9ybWFsO2ZvbnQtdmFyaWFudDpub3JtYWw7Zm9udC13ZWlnaHQ6bm9ybWFsO2ZvbnQtc3RyZXRjaDpub3JtYWw7Zm9udC1zaXplOjEwcHg7bGluZS1oZWlnaHQ6MTAwJTtmb250LWZhbWlseTpBcmlhbDt0ZXh0LWFsaWduOmNlbnRlcjt3cml0aW5nLW1vZGU6bHItdGI7dGV4dC1hbmNob3I6bWlkZGxlO2Rpc3BsYXk6aW5saW5lO2ZpbGw6IzAwMDAwMDtmaWxsLW9wYWNpdHk6MTtzdHJva2U6bm9uZSIgeG1sOnNwYWNlPSJwcmVzZXJ2ZSI+PHRzcGFuIHk9Ijk0Ni4wODE1NCIgeD0iOTA3LjMxNzM4IiBpZD0idHNwYW43NzA4Ij5mb3J3YXJkPC90c3Bhbj48L3RleHQ+JiN4YTsgICAgPHRleHQgaWQ9InRleHQxMzgyOCIgeT0iOTM0LjEwMzAzIiB4PSI5MDYuODkwMTQiIHN0eWxlPSJmb250LXN0eWxlOm5vcm1hbDtmb250LXZhcmlhbnQ6bm9ybWFsO2ZvbnQtd2VpZ2h0Om5vcm1hbDtmb250LXN0cmV0Y2g6bm9ybWFsO2ZvbnQtc2l6ZToxMHB4O2xpbmUtaGVpZ2h0OjEwMCU7Zm9udC1mYW1pbHk6QXJpYWw7dGV4dC1hbGlnbjpjZW50ZXI7d3JpdGluZy1tb2RlOmxyLXRiO3RleHQtYW5jaG9yOm1pZGRsZTtkaXNwbGF5OmlubGluZTtmaWxsOiNmZmZmZmY7ZmlsbC1vcGFjaXR5OjE7c3Ryb2tlOm5vbmUiIHhtbDpzcGFjZT0icHJlc2VydmUiPjx0c3BhbiBzdHlsZT0iZmlsbDojZmZmZmZmO2ZpbGwtb3BhY2l0eToxIiB5PSI5MzQuMTAzMDMiIHg9IjkwNi44OTAxNCIgaWQ9InRzcGFuMTM4MzAiPmZpbHRlcjwvdHNwYW4+PC90ZXh0PiYjeGE7ICAgIDx1c2UgaGVpZ2h0PSIxMDUyIiB3aWR0aD0iMTQ4OCIgdHJhbnNmb3JtPSJ0cmFuc2xhdGUoMjc1KSIgaWQ9InVzZTI1MDk0IiB4bGluazpocmVmPSIjdGV4dDEzNzY4IiB5PSIwIiB4PSIwIiBzdHlsZT0iZGlzcGxheTppbmxpbmUiLz4mI3hhOyAgICA8dXNlIGhlaWdodD0iMTA1MiIgd2lkdGg9IjE0ODgiIHRyYW5zZm9ybT0idHJhbnNsYXRlKDI3NSwtNDApIiBpZD0idXNlMjUwOTYiIHhsaW5rOmhyZWY9IiN0ZXh0MTM3NjgiIHk9IjAiIHg9IjAiIHN0eWxlPSJkaXNwbGF5OmlubGluZSIvPiYjeGE7ICAgIDx1c2UgaGVpZ2h0PSIxMDUyIiB3aWR0aD0iMTQ4OCIgdHJhbnNmb3JtPSJ0cmFuc2xhdGUoMjc1LC05NSkiIGlkPSJ1c2UyNTA5OCIgeGxpbms6aHJlZj0iI3RleHQxMzc2OCIgeT0iMCIgeD0iMCIgc3R5bGU9ImRpc3BsYXk6aW5saW5lIi8+JiN4YTsgICAgPHVzZSB0cmFuc2Zvcm09InRyYW5zbGF0ZSg2NC45OTk5OTYpIiBoZWlnaHQ9IjEwNTIiIHdpZHRoPSIxNDg4IiBpZD0idXNlMjUxMTkiIHhsaW5rOmhyZWY9IiN0ZXh0NzcwNiIgeT0iMCIgeD0iMCIgc3R5bGU9ImRpc3BsYXk6aW5saW5lIi8+JiN4YTsgICAgPHVzZSBoZWlnaHQ9IjEwNTIiIHdpZHRoPSIxNDg4IiB0cmFuc2Zvcm09InRyYW5zbGF0ZSg2NSwtNDApIiBpZD0idXNlMjUxMjEiIHhsaW5rOmhyZWY9IiN0ZXh0NzcwNiIgeT0iMCIgeD0iMCIgc3R5bGU9ImRpc3BsYXk6aW5saW5lIi8+JiN4YTsgICAgPHVzZSBoZWlnaHQ9IjEwNTIiIHdpZHRoPSIxNDg4IiB0cmFuc2Zvcm09InRyYW5zbGF0ZSg2NSwtOTUpIiBpZD0idXNlMjUxMjMiIHhsaW5rOmhyZWY9IiN0ZXh0NzcwNiIgeT0iMCIgeD0iMCIgc3R5bGU9ImRpc3BsYXk6aW5saW5lIi8+JiN4YTsgICAgPHVzZSBoZWlnaHQ9IjEwNTIiIHdpZHRoPSIxNDg4IiB0cmFuc2Zvcm09InRyYW5zbGF0ZSgxMzApIiBpZD0idXNlMzQxOSIgeGxpbms6aHJlZj0iI3RleHQ3NzA2IiB5PSIwIiB4PSIwIiBzdHlsZT0iZGlzcGxheTppbmxpbmUiLz4mI3hhOyAgICA8dXNlIGhlaWdodD0iMTA1MiIgd2lkdGg9IjE0ODgiIHRyYW5zZm9ybT0idHJhbnNsYXRlKDEzMCwtNDApIiBpZD0idXNlMzQyMSIgeGxpbms6aHJlZj0iI3RleHQ3NzA2IiB5PSIwIiB4PSIwIiBzdHlsZT0iZGlzcGxheTppbmxpbmUiLz4mI3hhOyAgICA8dXNlIGhlaWdodD0iMTA1MiIgd2lkdGg9IjE0ODgiIHRyYW5zZm9ybT0idHJhbnNsYXRlKDEzMCwtOTUpIiBpZD0idXNlMzQyMyIgeGxpbms6aHJlZj0iI3RleHQ3NzA2IiB5PSIwIiB4PSIwIiBzdHlsZT0iZGlzcGxheTppbmxpbmUiLz4mI3hhOyAgICA8dGV4dCB4bWw6c3BhY2U9InByZXNlcnZlIiBzdHlsZT0iZm9udC1zdHlsZTpub3JtYWw7Zm9udC12YXJpYW50Om5vcm1hbDtmb250LXdlaWdodDpub3JtYWw7Zm9udC1zdHJldGNoOm5vcm1hbDtmb250LXNpemU6MTBweDtsaW5lLWhlaWdodDoxMDAlO2ZvbnQtZmFtaWx5OkFyaWFsO3RleHQtYWxpZ246Y2VudGVyO3dyaXRpbmctbW9kZTpsci10Yjt0ZXh0LWFuY2hvcjptaWRkbGU7ZGlzcGxheTppbmxpbmU7ZmlsbDojMDAwMDAwO2ZpbGwtb3BhY2l0eToxO3N0cm9rZTpub25lIiB4PSIxMDM2Ljg5MDEiIHk9IjkzNC4xMDMwMyIgaWQ9InRleHQzMzk1Ij48dHNwYW4gaWQ9InRzcGFuMzM5NyIgeD0iMTAzNi44OTAxIiB5PSI5MzQuMTAzMDMiPmZpbHRlcjwvdHNwYW4+PC90ZXh0PiYjeGE7ICAgIDx1c2UgaGVpZ2h0PSIxMDUyIiB3aWR0aD0iMTQ4OCIgdHJhbnNmb3JtPSJ0cmFuc2xhdGUoMCwtNDApIiBpZD0idXNlMzg3OCIgeGxpbms6aHJlZj0iI3RleHQzMzk1IiB5PSIwIiB4PSIwIiBzdHlsZT0iZGlzcGxheTppbmxpbmUiLz4mI3hhOyAgICA8dXNlIGhlaWdodD0iMTA1MiIgd2lkdGg9IjE0ODgiIHRyYW5zZm9ybT0idHJhbnNsYXRlKDAsLTk1KSIgaWQ9InVzZTM4ODIiIHhsaW5rOmhyZWY9IiN0ZXh0MzM5NSIgeT0iMCIgeD0iMCIgc3R5bGU9ImRpc3BsYXk6aW5saW5lIi8+JiN4YTsgICAgPHVzZSBoZWlnaHQ9IjEwNTIiIHdpZHRoPSIxNDg4IiB0cmFuc2Zvcm09InRyYW5zbGF0ZSgtMTMwLjQzNjkxLC04OC41ODMyNTUpIiBpZD0idXNlMzg2MCIgeGxpbms6aHJlZj0iI3RleHQ3Njg2IiB5PSIwIiB4PSIwIiBzdHlsZT0iZGlzcGxheTppbmxpbmUiLz4mI3hhOyAgICA8dXNlIGhlaWdodD0iMTA1MiIgd2lkdGg9IjE0ODgiIHRyYW5zZm9ybT0idHJhbnNsYXRlKDQ4NSkiIGlkPSJ1c2UzODcyIiB4bGluazpocmVmPSIjdGV4dDEzNzY4IiB5PSIwIiB4PSIwIiBzdHlsZT0iZGlzcGxheTppbmxpbmUiLz4mI3hhOyAgICA8dXNlIGhlaWdodD0iMTA1MiIgd2lkdGg9IjE0ODgiIHRyYW5zZm9ybT0idHJhbnNsYXRlKDIwOS41NjMwOCwtMTI4LjU4MzI2KSIgaWQ9InVzZTM4NzYiIHhsaW5rOmhyZWY9IiN0ZXh0MzM5NSIgeT0iMCIgeD0iMCIgc3R5bGU9ImRpc3BsYXk6aW5saW5lIi8+JiN4YTsgICAgPHVzZSBoZWlnaHQ9IjEwNTIiIHdpZHRoPSIxNTEwIiB0cmFuc2Zvcm09InRyYW5zbGF0ZSg0ODUsLTQwKSIgaWQ9InVzZTM0NjgiIHhsaW5rOmhyZWY9IiN0ZXh0MTM3NjgiIHk9IjAiIHg9IjAiIHN0eWxlPSJkaXNwbGF5OmlubGluZSIvPiYjeGE7ICAgIDx1c2UgdHJhbnNmb3JtPSJ0cmFuc2xhdGUoNjQuOTk5OTkyKSIgaGVpZ2h0PSIxMDUyIiB3aWR0aD0iMTQ4OCIgaWQ9InVzZTI1MTM2IiB4bGluazpocmVmPSIjdGV4dDEyNjUxIiB5PSIwIiB4PSIwIiBzdHlsZT0iZGlzcGxheTppbmxpbmUiLz4mI3hhOyAgICA8ZyB0cmFuc2Zvcm09InRyYW5zbGF0ZSg2NS42MzMwMDcpIiBpZD0iZzkwNSI+JiN4YTsgICAgICA8dXNlIGhlaWdodD0iNzQ0LjA5NDQ4IiB3aWR0aD0iMTA1Mi4zNjIyIiB0cmFuc2Zvcm09InRyYW5zbGF0ZSg0MjAsLTk1KSIgaWQ9InVzZTMzNjMiIHhsaW5rOmhyZWY9IiNyZWN0MzE2NSIgeT0iMCIgeD0iMCIgc3R5bGU9ImRpc3BsYXk6aW5saW5lIi8+JiN4YTsgICAgICA8dXNlIGhlaWdodD0iNzQ0LjA5NDQ4IiB3aWR0aD0iMTA1Mi4zNjIyIiB0cmFuc2Zvcm09InRyYW5zbGF0ZSg0MjAsLTk1KSIgaWQ9InVzZTMzNjEiIHhsaW5rOmhyZWY9IiNyZWN0MjE4MCIgeT0iMCIgeD0iMCIgc3R5bGU9ImRpc3BsYXk6aW5saW5lIi8+JiN4YTsgICAgICA8dGV4dCB4bWw6c3BhY2U9InByZXNlcnZlIiBzdHlsZT0iZm9udC1zdHlsZTpub3JtYWw7Zm9udC12YXJpYW50Om5vcm1hbDtmb250LXdlaWdodDpub3JtYWw7Zm9udC1zdHJldGNoOm5vcm1hbDtmb250LXNpemU6OXB4O2xpbmUtaGVpZ2h0OjEwMCU7Zm9udC1mYW1pbHk6QXJpYWw7dGV4dC1hbGlnbjpjZW50ZXI7d3JpdGluZy1tb2RlOmxyLXRiO3RleHQtYW5jaG9yOm1pZGRsZTtkaXNwbGF5OmlubGluZTtmaWxsOiMwMDAwMDA7ZmlsbC1vcGFjaXR5OjE7c3Ryb2tlOm5vbmUiIHg9IjExODEuODkyMyIgeT0iODM3LjY1MDYzIiBpZD0idXNlMjUxMDIiPjx0c3BhbiBpZD0idHNwYW4zNTg1IiB4PSIxMTgxLjg5MjMiIHk9IjgzNy42NTA2MyI+bWFuZ2xlPC90c3Bhbj48L3RleHQ+JiN4YTsgICAgICA8dXNlIGhlaWdodD0iMTA1MiIgd2lkdGg9IjE0ODgiIHRyYW5zZm9ybT0idHJhbnNsYXRlKDY1LC05NSkiIGlkPSJ1c2UzODY4IiB4bGluazpocmVmPSIjdGV4dDEyNjUxIiB5PSIwIiB4PSIwIiBzdHlsZT0iZGlzcGxheTppbmxpbmUiLz4mI3hhOyAgICA8L2c+JiN4YTsgICAgPHVzZSBoZWlnaHQ9IjEwNTIiIHdpZHRoPSIxNTEwIiB0cmFuc2Zvcm09InRyYW5zbGF0ZSg2NSwtNDApIiBpZD0idXNlMzQ3MiIgeGxpbms6aHJlZj0iI3RleHQxMjY1MSIgeT0iMCIgeD0iMCIgc3R5bGU9ImRpc3BsYXk6aW5saW5lIi8+JiN4YTsgICAgPHVzZSBoZWlnaHQ9IjEwNTIiIHdpZHRoPSIxNDg4IiB0cmFuc2Zvcm09InRyYW5zbGF0ZSgxMzApIiBpZD0idXNlMjUxMzgiIHhsaW5rOmhyZWY9IiN0ZXh0MTI2NTEiIHk9IjAiIHg9IjAiIHN0eWxlPSJkaXNwbGF5OmlubGluZSIvPiYjeGE7ICAgIDx1c2UgaGVpZ2h0PSIxMDUyIiB3aWR0aD0iMTQ4OCIgdHJhbnNmb3JtPSJ0cmFuc2xhdGUoNDg1LDAuNTIxNDgpIiBpZD0idXNlMzgwOCIgeGxpbms6aHJlZj0iI3RleHQxMzc1NiIgeT0iMCIgeD0iMCIgc3R5bGU9ImRpc3BsYXk6aW5saW5lIi8+JiN4YTsgICAgPHVzZSBoZWlnaHQ9IjEwNTIiIHdpZHRoPSIxNDg4IiB0cmFuc2Zvcm09InRyYW5zbGF0ZSgtNjUuNDM2OTEsLTg4LjU4MzI1NSkiIGlkPSJ1c2UzODYyIiB4bGluazpocmVmPSIjdGV4dDc2ODYiIHk9IjAiIHg9IjAiIHN0eWxlPSJkaXNwbGF5OmlubGluZSIvPiYjeGE7ICAgIDx1c2UgaGVpZ2h0PSIxMDUyIiB3aWR0aD0iMTQ4OCIgdHJhbnNmb3JtPSJ0cmFuc2xhdGUoNTQ5LjU2MzA5LC0xMjguMDYxNzgpIiBpZD0idXNlMzg2NiIgeGxpbms6aHJlZj0iI3RleHQxMzc1NiIgeT0iMCIgeD0iMCIgc3R5bGU9ImRpc3BsYXk6aW5saW5lIi8+JiN4YTsgICAgPGcgaWQ9Imc4OTYiPiYjeGE7ICAgICAgPHVzZSBoZWlnaHQ9Ijc0NC4wOTQ0OCIgd2lkdGg9IjEwNTIuMzYyMiIgdHJhbnNmb3JtPSJ0cmFuc2xhdGUoNTQ5LC05NSkiIGlkPSJ1c2UzMzc3IiB4bGluazpocmVmPSIjcmVjdDIxODAiIHk9IjAiIHg9IjAiIHN0eWxlPSJkaXNwbGF5OmlubGluZSIvPiYjeGE7ICAgICAgPHVzZSBoZWlnaHQ9Ijc0NC4wOTQ0OCIgd2lkdGg9IjEwNTIuMzYyMiIgdHJhbnNmb3JtPSJ0cmFuc2xhdGUoNTQ5LC05NSkiIGlkPSJ1c2UzMzc5IiB4bGluazpocmVmPSIjcmVjdDMxNjUiIHk9IjAiIHg9IjAiIHN0eWxlPSJkaXNwbGF5OmlubGluZSIvPiYjeGE7ICAgICAgPHVzZSBoZWlnaHQ9IjEwNTIiIHdpZHRoPSIxNDg4IiB0cmFuc2Zvcm09InRyYW5zbGF0ZSg1NDksLTk0LjQ3ODUyKSIgaWQ9InVzZTM4MTAiIHhsaW5rOmhyZWY9IiN0ZXh0MTM3NTYiIHk9IjAiIHg9IjAiIHN0eWxlPSJkaXNwbGF5OmlubGluZSIvPiYjeGE7ICAgICAgPHVzZSBoZWlnaHQ9IjEwNTIiIHdpZHRoPSIxNDg4IiB0cmFuc2Zvcm09InRyYW5zbGF0ZSgxOTQsLTk1KSIgaWQ9InVzZTM4NzAiIHhsaW5rOmhyZWY9IiN0ZXh0MTI2NTEiIHk9IjAiIHg9IjAiIHN0eWxlPSJkaXNwbGF5OmlubGluZSIvPiYjeGE7ICAgIDwvZz4mI3hhOyAgICA8dXNlIHRyYW5zZm9ybT0idHJhbnNsYXRlKDQ4NSwtMzkuNDc4NTIpIiBoZWlnaHQ9IjEwNTIiIHdpZHRoPSIxNTEwIiBpZD0idXNlMzQ3MCIgeGxpbms6aHJlZj0iI3RleHQxMzc1NiIgeT0iMCIgeD0iMCIgc3R5bGU9ImRpc3BsYXk6aW5saW5lIi8+JiN4YTsgICAgPHVzZSBoZWlnaHQ9IjEwNTIiIHdpZHRoPSIxNTEwIiB0cmFuc2Zvcm09InRyYW5zbGF0ZSgxMzAsLTQwKSIgaWQ9InVzZTM0NzQiIHhsaW5rOmhyZWY9IiN0ZXh0MTI2NTEiIHk9IjAiIHg9IjAiIHN0eWxlPSJkaXNwbGF5OmlubGluZSIvPiYjeGE7ICAgIDx1c2UgaGVpZ2h0PSIxMDUyIiB3aWR0aD0iMTQ4OCIgdHJhbnNmb3JtPSJ0cmFuc2xhdGUoLTY1KSIgaWQ9InVzZTI1MTI3IiB4bGluazpocmVmPSIjdGV4dDc2ODYiIHk9IjAiIHg9IjAiIHN0eWxlPSJkaXNwbGF5OmlubGluZSIvPiYjeGE7ICAgIDxnIHRyYW5zZm9ybT0idHJhbnNsYXRlKC00Ni4xOTk0NzEsMzMuMzU2Mjk0KSIgaWQ9Imc5MTIiPiYjeGE7ICAgICAgPHVzZSBoZWlnaHQ9IjEwNTIiIHdpZHRoPSIxNDg4IiB0cmFuc2Zvcm09InRyYW5zbGF0ZSgzNTUuMTAxMSwtMTI4LjM0MzUxKSIgaWQ9InVzZTI2MTM4IiB4bGluazpocmVmPSIjcmVjdDI1MTU0IiB5PSIwIiB4PSIwIiBzdHlsZT0iZGlzcGxheTppbmxpbmUiLz4mI3hhOyAgICAgIDx0ZXh0IGlkPSJ0ZXh0MzgzMCIgeT0iODA3LjAyMzkzIiB4PSIxMTgxLjQzNTQiIHN0eWxlPSJmb250LXN0eWxlOm5vcm1hbDtmb250LXZhcmlhbnQ6bm9ybWFsO2ZvbnQtd2VpZ2h0Om5vcm1hbDtmb250LXN0cmV0Y2g6bm9ybWFsO2ZvbnQtc2l6ZToxMHB4O2xpbmUtaGVpZ2h0OjEwMCU7Zm9udC1mYW1pbHk6QXJpYWw7dGV4dC1hbGlnbjpjZW50ZXI7d3JpdGluZy1tb2RlOmxyLXRiO3RleHQtYW5jaG9yOm1pZGRsZTtkaXNwbGF5OmlubGluZTtmaWxsOiMwMDAwMDA7ZmlsbC1vcGFjaXR5OjE7c3Ryb2tlOm5vbmUiIHhtbDpzcGFjZT0icHJlc2VydmUiPjx0c3BhbiBpZD0idHNwYW4zODM0IiB5PSI4MDcuMDIzOTMiIHg9IjExODEuNDM1NCI+cmVyb3V0ZTwvdHNwYW4+PHRzcGFuIGlkPSJ0c3BhbjM4MzgiIHk9IjgxNy4wMjM5MyIgeD0iMTE4MS40MzU0Ij5jaGVjazwvdHNwYW4+PC90ZXh0PiYjeGE7ICAgIDwvZz4mI3hhOyAgICA8dXNlIGhlaWdodD0iMTA1MiIgd2lkdGg9IjE0ODgiIHRyYW5zZm9ybT0idHJhbnNsYXRlKDgxMCwtNDApIiBpZD0idXNlNDM3NSIgeGxpbms6aHJlZj0iI3RleHQxMzgwNCIgeT0iMCIgeD0iMCIgc3R5bGU9ImRpc3BsYXk6aW5saW5lIi8+JiN4YTsgICAgPHRleHQgaWQ9InRleHQ3Njg2IiB5PSI5MDUuMDA0ODgiIHg9IjEzNzYuODY4MiIgc3R5bGU9ImZvbnQtc3R5bGU6bm9ybWFsO2ZvbnQtdmFyaWFudDpub3JtYWw7Zm9udC13ZWlnaHQ6bm9ybWFsO2ZvbnQtc3RyZXRjaDpub3JtYWw7Zm9udC1zaXplOjEwcHg7bGluZS1oZWlnaHQ6MTAwJTtmb250LWZhbWlseTpBcmlhbDt0ZXh0LWFsaWduOmNlbnRlcjt3cml0aW5nLW1vZGU6bHItdGI7dGV4dC1hbmNob3I6bWlkZGxlO2Rpc3BsYXk6aW5saW5lO2ZpbGw6IzAwMDAwMDtmaWxsLW9wYWNpdHk6MTtzdHJva2U6bm9uZSIgeG1sOnNwYWNlPSJwcmVzZXJ2ZSI+PHRzcGFuIHk9IjkwNS4wMDQ4OCIgeD0iMTM3Ni44NjgyIiBpZD0idHNwYW43Njg4Ij5vdXRwdXQ8L3RzcGFuPjwvdGV4dD4mI3hhOyAgICA8dXNlIGhlaWdodD0iMTA1MiIgd2lkdGg9IjE0ODgiIHRyYW5zZm9ybT0idHJhbnNsYXRlKDQ3MCwtNDApIiBpZD0idXNlNDM3MyIgeGxpbms6aHJlZj0iI3RleHQxMzgyOCIgeT0iMCIgeD0iMCIgc3R5bGU9ImRpc3BsYXk6aW5saW5lIi8+JiN4YTsgICAgPHRleHQgeG1sOnNwYWNlPSJwcmVzZXJ2ZSIgc3R5bGU9ImZvbnQtc3R5bGU6bm9ybWFsO2ZvbnQtdmFyaWFudDpub3JtYWw7Zm9udC13ZWlnaHQ6bm9ybWFsO2ZvbnQtc3RyZXRjaDpub3JtYWw7Zm9udC1zaXplOjEwcHg7bGluZS1oZWlnaHQ6MTAwJTtmb250LWZhbWlseTpBcmlhbDt0ZXh0LWFsaWduOmNlbnRlcjt3cml0aW5nLW1vZGU6bHItdGI7dGV4dC1hbmNob3I6bWlkZGxlO2Rpc3BsYXk6aW5saW5lO2ZpbGw6IzAwMDAwMDtmaWxsLW9wYWNpdHk6MTtzdHJva2U6bm9uZSIgeD0iMTM3Ny4wMjY5IiB5PSI4NDEuMDgxNTQiIGlkPSJ0ZXh0NDM4MSI+PHRzcGFuIGlkPSJ0c3BhbjQzODMiIHg9IjEzNzcuMDI2OSIgeT0iODQxLjA4MTU0Ij54ZnJtPC90c3Bhbj48dHNwYW4geD0iMTM3Ny4wMjY5IiB5PSI4NTEuMDgxNTQiIGlkPSJ0c3BhbjQzODUiPmxvb2t1cDwvdHNwYW4+PC90ZXh0PiYjeGE7ICAgIDx1c2UgaGVpZ2h0PSIxMDUyIiB3aWR0aD0iMTUxMCIgdHJhbnNmb3JtPSJ0cmFuc2xhdGUoOTM5Ljk5MjY4LC00MC4wMjY4NSkiIGlkPSJ1c2UzNTExIiB4bGluazpocmVmPSIjdGV4dDEzODA0IiB5PSIwIiB4PSIwIiBzdHlsZT0iZGlzcGxheTppbmxpbmUiLz4mI3hhOyAgICA8dXNlIGhlaWdodD0iMTA1MiIgd2lkdGg9IjE1MTAiIHRyYW5zZm9ybT0idHJhbnNsYXRlKDMyNC45OTI2OCwtNDAuMDI2ODUpIiBpZD0idXNlMzUxMyIgeGxpbms6aHJlZj0iI3RleHQxMjY1MSIgeT0iMCIgeD0iMCIgc3R5bGU9ImRpc3BsYXk6aW5saW5lIi8+JiN4YTsgICAgPHVzZSBoZWlnaHQ9IjEwNTIiIHdpZHRoPSIxNDg4IiB0cmFuc2Zvcm09InRyYW5zbGF0ZSgtMTk1LC0xMzApIiBpZD0idXNlMzg1OCIgeGxpbms6aHJlZj0iI3RleHQ3Njg2IiB5PSIwIiB4PSIwIiBzdHlsZT0iZGlzcGxheTppbmxpbmUiLz4mI3hhOyAgICA8dXNlIGhlaWdodD0iMTA1MiIgd2lkdGg9IjE0ODgiIHRyYW5zZm9ybT0idHJhbnNsYXRlKDYxNSwtMTcwKSIgaWQ9InVzZTM4ODYiIHhsaW5rOmhyZWY9IiN0ZXh0MTM3OTIiIHk9IjAiIHg9IjAiIHN0eWxlPSJkaXNwbGF5OmlubGluZSIvPiYjeGE7ICAgIDx1c2UgaGVpZ2h0PSIxMDUyIiB3aWR0aD0iMTQ4OCIgdHJhbnNmb3JtPSJ0cmFuc2xhdGUoNjE1LC03NSkiIGlkPSJ1c2UzODUwIiB4bGluazpocmVmPSIjdGV4dDMzNTAiIHk9IjAiIHg9IjAiIHN0eWxlPSJkaXNwbGF5OmlubGluZSIvPiYjeGE7ICAgIDx1c2UgaGVpZ2h0PSIxMDUyIiB3aWR0aD0iMTQ4OCIgdHJhbnNmb3JtPSJ0cmFuc2xhdGUoLTY1LC0xMzApIiBpZD0idXNlMzg1NiIgeGxpbms6aHJlZj0iI3RleHQ3Njg2IiB5PSIwIiB4PSIwIiBzdHlsZT0iZGlzcGxheTppbmxpbmUiLz4mI3hhOyAgICA8dXNlIGhlaWdodD0iMTA1MiIgd2lkdGg9IjE0ODgiIHRyYW5zZm9ybT0idHJhbnNsYXRlKDYxNSwtMTcwKSIgaWQ9InVzZTM4ODQiIHhsaW5rOmhyZWY9IiN0ZXh0MTM3NjgiIHk9IjAiIHg9IjAiIHN0eWxlPSJkaXNwbGF5OmlubGluZSIvPiYjeGE7ICAgIDx0ZXh0IGlkPSJ0ZXh0NDM5NyIgeT0iNjYyLjA4MTU0IiB4PSIxMjQ3LjAyNjkiIHN0eWxlPSJmb250LXN0eWxlOm5vcm1hbDtmb250LXZhcmlhbnQ6bm9ybWFsO2ZvbnQtd2VpZ2h0Om5vcm1hbDtmb250LXN0cmV0Y2g6bm9ybWFsO2ZvbnQtc2l6ZToxMHB4O2xpbmUtaGVpZ2h0OjEwMCU7Zm9udC1mYW1pbHk6QXJpYWw7dGV4dC1hbGlnbjpjZW50ZXI7d3JpdGluZy1tb2RlOmxyLXRiO3RleHQtYW5jaG9yOm1pZGRsZTtkaXNwbGF5OmlubGluZTtmaWxsOiMwMDAwMDA7ZmlsbC1vcGFjaXR5OjE7c3Ryb2tlOm5vbmUiIHhtbDpzcGFjZT0icHJlc2VydmUiPjx0c3BhbiB5PSI2NjIuMDgxNTQiIHg9IjEyNDcuMDI2OSIgaWQ9InRzcGFuNDM5OSI+eGZybTwvdHNwYW4+PHRzcGFuIGlkPSJ0c3BhbjQ0MDEiIHk9IjY3Mi4wODE1NCIgeD0iMTI0Ny4wMjY5Ij5lbmNvZGU8L3RzcGFuPjwvdGV4dD4mI3hhOyAgICA8dXNlIGhlaWdodD0iMTA1MiIgd2lkdGg9IjE0ODgiIHRyYW5zZm9ybT0idHJhbnNsYXRlKDI5MCwtNzUpIiBpZD0idXNlMzg0OCIgeGxpbms6aHJlZj0iI3RleHQzMjY1IiB5PSIwIiB4PSIwIiBzdHlsZT0iZGlzcGxheTppbmxpbmUiLz4mI3hhOyAgICA8dGV4dCBpZD0idGV4dDEyNjUxIiB5PSI5NDUuMDI2ODYiIHg9IjExMTcuMDA3MyIgc3R5bGU9ImZvbnQtc3R5bGU6bm9ybWFsO2ZvbnQtdmFyaWFudDpub3JtYWw7Zm9udC13ZWlnaHQ6bm9ybWFsO2ZvbnQtc3RyZXRjaDpub3JtYWw7Zm9udC1zaXplOjEwcHg7bGluZS1oZWlnaHQ6MTAwJTtmb250LWZhbWlseTpBcmlhbDt0ZXh0LWFsaWduOmNlbnRlcjt3cml0aW5nLW1vZGU6bHItdGI7dGV4dC1hbmNob3I6bWlkZGxlO2Rpc3BsYXk6aW5saW5lO2ZpbGw6IzAwMDAwMDtmaWxsLW9wYWNpdHk6MTtzdHJva2U6bm9uZSIgeG1sOnNwYWNlPSJwcmVzZXJ2ZSI+PHRzcGFuIHk9Ijk0NS4wMjY4NiIgeD0iMTExNy4wMDczIiBpZD0idHNwYW4xMjY1MyI+cG9zdHJvdXRpbmc8L3RzcGFuPjwvdGV4dD4mI3hhOyAgICA8dXNlIGhlaWdodD0iMTA1MiIgd2lkdGg9IjE0ODgiIHRyYW5zZm9ybT0idHJhbnNsYXRlKDYxNSkiIGlkPSJ1c2U0Mzc3IiB4bGluazpocmVmPSIjdGV4dDEzODA0IiB5PSIwIiB4PSIwIiBzdHlsZT0iZGlzcGxheTppbmxpbmUiLz4mI3hhOyAgICA8dXNlIGhlaWdodD0iMTA1MiIgd2lkdGg9IjE0ODgiIHRyYW5zZm9ybT0idHJhbnNsYXRlKDEzMCwtMTM1KSIgaWQ9InVzZTI1MDkyIiB4bGluazpocmVmPSIjdGV4dDEzNzY4IiB5PSIwIiB4PSIwIiBzdHlsZT0iZGlzcGxheTppbmxpbmUiLz4mI3hhOyAgICA8dXNlIGhlaWdodD0iMTA1MiIgd2lkdGg9IjE0ODgiIHRyYW5zZm9ybT0idHJhbnNsYXRlKDAsLTk1KSIgaWQ9InVzZTI1MTE3IiB4bGluazpocmVmPSIjdGV4dDc2NTAiIHk9IjAiIHg9IjAiIHN0eWxlPSJkaXNwbGF5OmlubGluZSIvPiYjeGE7ICAgIDx0ZXh0IHhtbDpzcGFjZT0icHJlc2VydmUiIHN0eWxlPSJmb250LXN0eWxlOm5vcm1hbDtmb250LXZhcmlhbnQ6bm9ybWFsO2ZvbnQtd2VpZ2h0Om5vcm1hbDtmb250LXN0cmV0Y2g6bm9ybWFsO2ZvbnQtc2l6ZToxMHB4O2xpbmUtaGVpZ2h0OjEwMCU7Zm9udC1mYW1pbHk6QXJpYWw7dGV4dC1hbGlnbjpjZW50ZXI7d3JpdGluZy1tb2RlOmxyLXRiO3RleHQtYW5jaG9yOm1pZGRsZTtkaXNwbGF5OmlubGluZTtmaWxsOiMwMDAwMDA7ZmlsbC1vcGFjaXR5OjE7c3Ryb2tlOm5vbmUiIHg9IjgyNi43MDIxNSIgeT0iNzcwLjA4NTQ1IiBpZD0idXNlMzM5OSI+PHRzcGFuIGlkPSJ0c3BhbjM1MzMiIHg9IjgyNi43MDIxNSIgeT0iNzcwLjA4NTQ1Ij5pbnB1dDwvdHNwYW4+PC90ZXh0PiYjeGE7ICAgIDx0ZXh0IHhtbDpzcGFjZT0icHJlc2VydmUiIHN0eWxlPSJmb250LXN0eWxlOm5vcm1hbDtmb250LXZhcmlhbnQ6bm9ybWFsO2ZvbnQtd2VpZ2h0Om5vcm1hbDtmb250LXN0cmV0Y2g6bm9ybWFsO2ZvbnQtc2l6ZTo5cHg7bGluZS1oZWlnaHQ6MTAwJTtmb250LWZhbWlseTpBcmlhbDt0ZXh0LWFsaWduOmNlbnRlcjt3cml0aW5nLW1vZGU6bHItdGI7dGV4dC1hbmNob3I6bWlkZGxlO2Rpc3BsYXk6aW5saW5lO2ZpbGw6IzAwMDAwMDtmaWxsLW9wYWNpdHk6MTtzdHJva2U6bm9uZSIgeD0iODI2Ljg4MDM3IiB5PSI2NjAuODg4ODUiIGlkPSJ0ZXh0Mzg0MCI+PHRzcGFuIHN0eWxlPSJmb250LXNpemU6OXB4IiBpZD0idHNwYW4zODQyIiB4PSI4MjYuODgwMzciIHk9IjY2MC44ODg4NSI+eGZybS9zb2NrZXQ8L3RzcGFuPjx0c3BhbiBzdHlsZT0iZm9udC1zaXplOjEwcHgiIGlkPSJ0c3BhbjM4NDQiIHg9IjgyNi44ODAzNyIgeT0iNjcwLjE2NDYxIj5sb29rdXA8L3RzcGFuPjwvdGV4dD4mI3hhOyAgICA8dXNlIGhlaWdodD0iMTA1MiIgd2lkdGg9IjE0ODgiIHRyYW5zZm9ybT0idHJhbnNsYXRlKC0yMTAuNTE5MDEsLTIxNi4xNTM1NSkiIGlkPSJ1c2UzODg4IiB4bGluazpocmVmPSIjdGV4dDMzOTUiIHk9IjAiIHg9IjAiIHN0eWxlPSJkaXNwbGF5OmlubGluZSIvPiYjeGE7ICAgIDx0ZXh0IGlkPSJ0ZXh0MzI5OSIgeT0iNTkxLjA4NTQ1IiB4PSI5NjYuNjYzMjciIHN0eWxlPSJmb250LXN0eWxlOm5vcm1hbDtmb250LXZhcmlhbnQ6bm9ybWFsO2ZvbnQtd2VpZ2h0Om5vcm1hbDtmb250LXN0cmV0Y2g6bm9ybWFsO2ZvbnQtc2l6ZTo5cHg7bGluZS1oZWlnaHQ6MTAwJTtmb250LWZhbWlseTpBcmlhbDt0ZXh0LWFsaWduOmNlbnRlcjt3cml0aW5nLW1vZGU6bHItdGI7dGV4dC1hbmNob3I6bWlkZGxlO2Rpc3BsYXk6aW5saW5lO2ZpbGw6IzAwMDAwMDtmaWxsLW9wYWNpdHk6MTtzdHJva2U6bm9uZSIgeG1sOnNwYWNlPSJwcmVzZXJ2ZSI+PHRzcGFuIHN0eWxlPSJmb250LXNpemU6MTBweCIgeT0iNTkxLjA4NTQ1IiB4PSI5NjYuNjYzMjciIGlkPSJ0c3BhbjMzMDEiPmxvY2FsPC90c3Bhbj48dHNwYW4gc3R5bGU9ImZvbnQtc2l6ZToxMHB4IiBpZD0idHNwYW4zODY0IiB5PSI2MDAuMzYxMjEiIHg9Ijk2Ni42NjMyNyI+cHJvY2VzczwvdHNwYW4+PC90ZXh0PiYjeGE7ICAgIDx0ZXh0IHhtbDpzcGFjZT0icHJlc2VydmUiIHN0eWxlPSJmb250LXN0eWxlOm5vcm1hbDtmb250LXZhcmlhbnQ6bm9ybWFsO2ZvbnQtd2VpZ2h0Om5vcm1hbDtmb250LXN0cmV0Y2g6bm9ybWFsO2ZvbnQtc2l6ZToxMHB4O2xpbmUtaGVpZ2h0OjEwMCU7Zm9udC1mYW1pbHk6QXJpYWw7dGV4dC1hbGlnbjpjZW50ZXI7d3JpdGluZy1tb2RlOmxyLXRiO3RleHQtYW5jaG9yOm1pZGRsZTtkaXNwbGF5OmlubGluZTtmaWxsOiMwMDAwMDA7ZmlsbC1vcGFjaXR5OjE7c3Ryb2tlOm5vbmUiIHg9IjE1MjIuMDA5OCIgeT0iOTM1LjE0NjQ4IiBpZD0idGV4dDI3MjYiPjx0c3BhbiB4PSIxNTIyLjAwOTgiIHk9IjkzNS4xNDY0OCIgaWQ9InRzcGFuMjczMCI+ZWdyZXNzPC90c3Bhbj48dHNwYW4gaWQ9InRzcGFuMzMxOSIgeD0iMTUyMi4wMDk4IiB5PSI5NDUuMTQ2NDgiPihxZGlzYyk8L3RzcGFuPjwvdGV4dD4mI3hhOyAgICA8dGV4dCBpZD0idGV4dDM0MjciIHk9IjkzNS4xNDY0OCIgeD0iMTU4Ni44Nzc5IiBzdHlsZT0iZm9udC1zdHlsZTpub3JtYWw7Zm9udC12YXJpYW50Om5vcm1hbDtmb250LXdlaWdodDpub3JtYWw7Zm9udC1zdHJldGNoOm5vcm1hbDtmb250LXNpemU6MTBweDtsaW5lLWhlaWdodDoxMDAlO2ZvbnQtZmFtaWx5OkFyaWFsO3RleHQtYWxpZ246Y2VudGVyO3dyaXRpbmctbW9kZTpsci10Yjt0ZXh0LWFuY2hvcjptaWRkbGU7ZGlzcGxheTppbmxpbmU7ZmlsbDojMDAwMDAwO2ZpbGwtb3BhY2l0eToxO3N0cm9rZTpub25lIiB4bWw6c3BhY2U9InByZXNlcnZlIj48dHNwYW4geT0iOTM1LjE0NjQ4IiB4PSIxNTg2Ljg3NzkiIGlkPSJ0c3BhbjM0MjkiPmludGVyZmFjZTwvdHNwYW4+PHRzcGFuIGlkPSJ0c3BhbjM4NzQiIHk9Ijk0NS4xNDY0OCIgeD0iMTU4Ni44Nzc5Ij5vdXRwdXQ8L3RzcGFuPjwvdGV4dD4mI3hhOyAgICA8dGV4dCB0cmFuc2Zvcm09InNjYWxlKDAuODEyNDAzODQsMS4yMzA5MTQ5KSIgaWQ9InRleHQzMzQzIiB5PSI2ODIuNDkwNjYiIHg9IjM2NS41MjczNyIgc3R5bGU9ImZvbnQtc3R5bGU6bm9ybWFsO2ZvbnQtdmFyaWFudDpub3JtYWw7Zm9udC13ZWlnaHQ6bm9ybWFsO2ZvbnQtc3RyZXRjaDpub3JtYWw7Zm9udC1zaXplOjguMTI0MDRweDtsaW5lLWhlaWdodDoxMDAlO2ZvbnQtZmFtaWx5OkFyaWFsO3RleHQtYWxpZ246Y2VudGVyO3dyaXRpbmctbW9kZTpsci10Yjt0ZXh0LWFuY2hvcjptaWRkbGU7ZGlzcGxheTppbmxpbmU7ZmlsbDojMDAwMDAwO2ZpbGwtb3BhY2l0eToxO3N0cm9rZTpub25lIiB4bWw6c3BhY2U9InByZXNlcnZlIj48dHNwYW4gaWQ9InRzcGFuMzM0NSIgeT0iNjgyLjQ5MDY2IiB4PSIzNjUuNTI3MzciPnRhcHMgKGUuZy48L3RzcGFuPjx0c3BhbiBpZD0idHNwYW40MjY5IiB5PSI2OTAuNjE0NjkiIHg9IjM2NS41MjczNyI+QUZfUEFDS0VUKTwvdHNwYW4+PC90ZXh0PiYjeGE7ICAgIDx0ZXh0IGlkPSJ0ZXh0MzM0OSIgeT0iOTQxLjY0NiIgeD0iMzEuNDc2MTUxIiBzdHlsZT0iZm9udC1zdHlsZTpub3JtYWw7Zm9udC12YXJpYW50Om5vcm1hbDtmb250LXdlaWdodDpub3JtYWw7Zm9udC1zdHJldGNoOm5vcm1hbDtmb250LXNpemU6MTBweDtsaW5lLWhlaWdodDoxMDAlO2ZvbnQtZmFtaWx5OkFyaWFsO3RleHQtYWxpZ246Y2VudGVyO3dyaXRpbmctbW9kZTpsci10Yjt0ZXh0LWFuY2hvcjptaWRkbGU7ZGlzcGxheTppbmxpbmU7ZmlsbDojMDAwMDAwO2ZpbGwtb3BhY2l0eToxO3N0cm9rZTpub25lIiB4bWw6c3BhY2U9InByZXNlcnZlIj48dHNwYW4gaWQ9InRzcGFuMzM1MSIgeT0iOTQxLjY0NiIgeD0iMzEuNDc2MTUxIj4oc3RhcnQpPC90c3Bhbj48L3RleHQ+JiN4YTsgICAgPHRleHQgdHJhbnNmb3JtPSJzY2FsZSgwLjgxMjQwMzg0LDEuMjMwOTE0OSkiIHhtbDpzcGFjZT0icHJlc2VydmUiIHN0eWxlPSJmb250LXN0eWxlOm5vcm1hbDtmb250LXZhcmlhbnQ6bm9ybWFsO2ZvbnQtd2VpZ2h0Om5vcm1hbDtmb250LXN0cmV0Y2g6bm9ybWFsO2ZvbnQtc2l6ZTo4LjEyNDA0cHg7bGluZS1oZWlnaHQ6MTAwJTtmb250LWZhbWlseTpBcmlhbDt0ZXh0LWFsaWduOmNlbnRlcjt3cml0aW5nLW1vZGU6bHItdGI7dGV4dC1hbmNob3I6bWlkZGxlO2Rpc3BsYXk6aW5saW5lO2ZpbGw6IzAwMDAwMDtmaWxsLW9wYWNpdHk6MTtzdHJva2U6bm9uZSIgeD0iMTk1My41NjY0IiB5PSI2ODcuMzEwMyIgaWQ9InRleHQ0MTQyIj48dHNwYW4geD0iMTk1My41NjY0IiB5PSI2ODcuMzEwMyIgaWQ9InRzcGFuNDE0NiI+QUZfUEFDS0VUPC90c3Bhbj48L3RleHQ+JiN4YTsgICAgPHRleHQgaWQ9InRleHQzMzQ5LTAiIHk9IjkzNi4xMDYwOCIgeD0iMTA5LjAxMTYxIiBzdHlsZT0iZm9udC1zdHlsZTpub3JtYWw7Zm9udC12YXJpYW50Om5vcm1hbDtmb250LXdlaWdodDpub3JtYWw7Zm9udC1zdHJldGNoOm5vcm1hbDtmb250LXNpemU6MTBweDtsaW5lLWhlaWdodDoxMDAlO2ZvbnQtZmFtaWx5OkFyaWFsO3RleHQtYWxpZ246Y2VudGVyO3dyaXRpbmctbW9kZTpsci10Yjt0ZXh0LWFuY2hvcjptaWRkbGU7ZGlzcGxheTppbmxpbmU7ZmlsbDojMDAwMDAwO2ZpbGwtb3BhY2l0eToxO3N0cm9rZTpub25lIiB4bWw6c3BhY2U9InByZXNlcnZlIj48dHNwYW4gaWQ9InRzcGFuNDI1OSIgeT0iOTM2LjEwNjA4IiB4PSIxMDkuMDExNjEiPlhEUDwvdHNwYW4+PHRzcGFuIGlkPSJ0c3BhbjE0NTUiIHk9Ijk0Ni4xMDYwOCIgeD0iMTA5LjAxMTYxIj5lQlBGPC90c3Bhbj48L3RleHQ+JiN4YTsgICAgPHRleHQgaWQ9InRleHQzMzQ5LTkiIHk9IjkzOS40NjU0NSIgeD0iMjMxLjU2ODY2IiBzdHlsZT0iZm9udC1zdHlsZTpub3JtYWw7Zm9udC12YXJpYW50Om5vcm1hbDtmb250LXdlaWdodDpub3JtYWw7Zm9udC1zdHJldGNoOm5vcm1hbDtmb250LXNpemU6MTBweDtsaW5lLWhlaWdodDoxMDAlO2ZvbnQtZmFtaWx5OkFyaWFsO3RleHQtYWxpZ246Y2VudGVyO3dyaXRpbmctbW9kZTpsci10Yjt0ZXh0LWFuY2hvcjptaWRkbGU7ZGlzcGxheTppbmxpbmU7ZmlsbDojMDAwMDAwO2ZpbGwtb3BhY2l0eToxO3N0cm9rZTpub25lIiB4bWw6c3BhY2U9InByZXNlcnZlIj48dHNwYW4gaWQ9InRzcGFuMzM1MS03IiB5PSI5MzkuNDY1NDUiIHg9IjIzMS41Njg2NiI+YWxsb2Nfc2tiPC90c3Bhbj48L3RleHQ+JiN4YTsgICAgPHRleHQgdHJhbnNmb3JtPSJzY2FsZSgxLjA0OTkyOTksMC45NTI0NDQ1MykiIGlkPSJ0ZXh0MzM0My01IiB5PSI2OTEuMTA4NzYiIHg9IjQ1OC45ODA1OSIgc3R5bGU9ImZvbnQtc3R5bGU6bm9ybWFsO2ZvbnQtdmFyaWFudDpub3JtYWw7Zm9udC13ZWlnaHQ6bm9ybWFsO2ZvbnQtc3RyZXRjaDpub3JtYWw7Zm9udC1zaXplOjcuNzU2MDFweDtsaW5lLWhlaWdodDoxMDAlO2ZvbnQtZmFtaWx5OkFyaWFsO3RleHQtYWxpZ246Y2VudGVyO3dyaXRpbmctbW9kZTpsci10Yjt0ZXh0LWFuY2hvcjptaWRkbGU7ZGlzcGxheTppbmxpbmU7ZmlsbDojMDAwMDAwO2ZpbGwtb3BhY2l0eToxO3N0cm9rZTpub25lO3N0cm9rZS13aWR0aDowLjk1NDY5OSIgeG1sOnNwYWNlPSJwcmVzZXJ2ZSI+PHRzcGFuIHN0eWxlPSJmb250LXNpemU6MTBweDtzdHJva2Utd2lkdGg6MC45NTQ2OTkiIGlkPSJ0c3BhbjQyNjktNSIgeT0iNjkxLjEwODc2IiB4PSI0NTguOTgwNTkiPnhmcm08L3RzcGFuPjx0c3BhbiBzdHlsZT0iZm9udC1zaXplOjZweDtzdHJva2Utd2lkdGg6MC45NTQ2OTkiIGlkPSJ0c3BhbjQ0NyIgeT0iNjk4Ljg2NDc1IiB4PSI0NTguOTgwNTkiPihlLmcuIGlwc2VjKTwvdHNwYW4+PHRzcGFuIHN0eWxlPSJmb250LXNpemU6MTAuMjY2N3B4O3N0cm9rZS13aWR0aDowLjk1NDY5OSIgaWQ9InRzcGFuNDQ5IiB5PSI3MDcuNzk3MzYiIHg9IjQ1OC45ODA1OSI+ZGVjb2RlPC90c3Bhbj48L3RleHQ+JiN4YTsgICAgPHVzZSBoZWlnaHQ9IjEwNTIiIHdpZHRoPSIxNDg4IiB0cmFuc2Zvcm09InRyYW5zbGF0ZSg2NC4xODk3NTYsLTE3NS42Mjc4MSkiIGlkPSJ1c2UyNTA3Ni0xIiB4bGluazpocmVmPSIjdGV4dDEzNzU2IiB5PSIwIiB4PSIwIiBzdHlsZT0iZGlzcGxheTppbmxpbmUiLz4mI3hhOyAgICA8dGV4dCB4bWw6c3BhY2U9InByZXNlcnZlIiBzdHlsZT0iZm9udC1zdHlsZTpub3JtYWw7Zm9udC12YXJpYW50Om5vcm1hbDtmb250LXdlaWdodDpub3JtYWw7Zm9udC1zdHJldGNoOm5vcm1hbDtmb250LXNpemU6MTBweDtsaW5lLWhlaWdodDoxMDAlO2ZvbnQtZmFtaWx5OkFyaWFsO3RleHQtYWxpZ246Y2VudGVyO3dyaXRpbmctbW9kZTpsci10Yjt0ZXh0LWFuY2hvcjptaWRkbGU7ZGlzcGxheTppbmxpbmU7ZmlsbDojMDAwMDAwO2ZpbGwtb3BhY2l0eToxO3N0cm9rZTpub25lIiB4PSI4MjYuOTE5NzQiIHk9IjcyOS40MzYxIiBpZD0idXNlMzM5OS05Ij48dHNwYW4gaWQ9InRzcGFuMzUzMy03IiB4PSI4MjYuOTE5NzQiIHk9IjcyOS40MzYxIj5pbnB1dDwvdHNwYW4+PC90ZXh0PiYjeGE7ICA8L2c+JiN4YTsgIDxnIHRyYW5zZm9ybT0idHJhbnNsYXRlKDAsLTQ3NSkiIHN0eWxlPSJkaXNwbGF5OmlubGluZSIgaWQ9ImxheWVyNSI+JiN4YTsgICAgPHBhdGggc3R5bGU9ImRpc3BsYXk6aW5saW5lO2ZpbGw6bm9uZTtzdHJva2U6IzAwMDAwMDtzdHJva2Utd2lkdGg6MS41MDAwMDAzNjtzdHJva2UtbGluZWNhcDpidXR0O3N0cm9rZS1saW5lam9pbjptaXRlcjtzdHJva2UtbWl0ZXJsaW1pdDo0O3N0cm9rZS1kYXNoYXJyYXk6bm9uZTtzdHJva2Utb3BhY2l0eToxO21hcmtlci1lbmQ6dXJsKCNBcnJvdzJNZW5kKSIgZD0iTSA4MjcuMiw2NTEgODI3LDYwNiA4MzcsNTk2IEggOTQyIiBpZD0icGF0aDM2NDMiLz4mI3hhOyAgICA8cGF0aCBpZD0icGF0aDM2MjUiIGQ9Im0gMTI3Mi4wNDU3LDg0NSBoIDEyLjE0NjYiIHN0eWxlPSJkaXNwbGF5OmlubGluZTtvcGFjaXR5OjAuODY7ZmlsbDpub25lO3N0cm9rZTojMDAwMDAwO3N0cm9rZS13aWR0aDoxLjM0OTgxO3N0cm9rZS1saW5lY2FwOmJ1dHQ7c3Ryb2tlLWxpbmVqb2luOm1pdGVyO3N0cm9rZS1taXRlcmxpbWl0OjQ7c3Ryb2tlLWRhc2hhcnJheTpub25lO3N0cm9rZS1vcGFjaXR5OjE7bWFya2VyLWVuZDp1cmwoI0Fycm93Mk1lbmQpIi8+JiN4YTsgICAgPHBhdGggaWQ9InBhdGgxOTczNyIgZD0ibSAxNTQ3LDk0MCBoIDE1IiBzdHlsZT0iZGlzcGxheTppbmxpbmU7b3BhY2l0eTowLjg2MDAwMDAxO2ZpbGw6bm9uZTtzdHJva2U6IzAwMDAwMDtzdHJva2Utd2lkdGg6MS41MDAwMDAzNjtzdHJva2UtbGluZWNhcDpidXR0O3N0cm9rZS1saW5lam9pbjptaXRlcjtzdHJva2UtbWl0ZXJsaW1pdDo0O3N0cm9rZS1kYXNoYXJyYXk6bm9uZTtzdHJva2Utb3BhY2l0eToxO21hcmtlci1lbmQ6dXJsKCNBcnJvdzJNZW5kKSIvPiYjeGE7ICAgIDxwYXRoIHN0eWxlPSJkaXNwbGF5OmlubGluZTtvcGFjaXR5OjAuODYwMDAwMDE7ZmlsbDpub25lO3N0cm9rZTojMDAwMDAwO3N0cm9rZS13aWR0aDoxLjUwMDAwMDM2O3N0cm9rZS1saW5lY2FwOmJ1dHQ7c3Ryb2tlLWxpbmVqb2luOm1pdGVyO3N0cm9rZS1taXRlcmxpbWl0OjQ7c3Ryb2tlLWRhc2hhcnJheTpub25lO3N0cm9rZS1vcGFjaXR5OjE7bWFya2VyLWVuZDp1cmwoI0Fycm93Mk1lbmQpIiBkPSJtIDE0MDIsODQ1IGggMTEwIGwgMTAsMTAgdiA3MCIgaWQ9InBhdGgzNjI3Ii8+JiN4YTsgICAgPHBhdGggaWQ9InBhdGgzNTAxIiBkPSJtIDEyNzIsOTQwIGggMjI1IiBzdHlsZT0iZGlzcGxheTppbmxpbmU7b3BhY2l0eTowLjg2MDAwMDAxO2ZpbGw6bm9uZTtzdHJva2U6IzAwMDAwMDtzdHJva2Utd2lkdGg6MS41MDAwMDAzNjtzdHJva2UtbGluZWNhcDpidXR0O3N0cm9rZS1saW5lam9pbjptaXRlcjtzdHJva2UtbWl0ZXJsaW1pdDo0O3N0cm9rZS1kYXNoYXJyYXk6bm9uZTtzdHJva2Utb3BhY2l0eToxO21hcmtlci1lbmQ6dXJsKCNBcnJvdzJNZW5kKSIvPiYjeGE7ICAgIDxwYXRoIGlkPSJwYXRoMzUwOSIgZD0ibSAxNDY3LDkwMCBoIDQ1IGwgMTAsMTAiIHN0eWxlPSJkaXNwbGF5OmlubGluZTtvcGFjaXR5OjAuODYwMDAwMDE7ZmlsbDpub25lO3N0cm9rZTojMDAwMDAwO3N0cm9rZS13aWR0aDoxLjUwMDAwMDM2O3N0cm9rZS1saW5lY2FwOmJ1dHQ7c3Ryb2tlLWxpbmVqb2luOm1pdGVyO3N0cm9rZS1taXRlcmxpbWl0OjQ7c3Ryb2tlLWRhc2hhcnJheTpub25lO3N0cm9rZS1vcGFjaXR5OjE7bWFya2VyLWVuZDp1cmwoI0Fycm93Mk1lbmQpIi8+JiN4YTsgICAgPHBhdGggaWQ9InBhdGgyNzE1IiBkPSJtIDEzMzYuODE3Miw4NDUgaCAxNi43NTMzIiBzdHlsZT0iZGlzcGxheTppbmxpbmU7b3BhY2l0eTowLjg2O2ZpbGw6bm9uZTtzdHJva2U6IzAwMDAwMDtzdHJva2Utd2lkdGg6MC42ODY0MzI7c3Ryb2tlLWxpbmVjYXA6YnV0dDtzdHJva2UtbGluZWpvaW46bWl0ZXI7c3Ryb2tlLW1pdGVybGltaXQ6NDtzdHJva2UtZGFzaGFycmF5Om5vbmU7c3Ryb2tlLW9wYWNpdHk6MTttYXJrZXItZW5kOnVybCgjQXJyb3cyTWVuZCkiLz4mI3hhOyAgICA8cGF0aCBzdHlsZT0iZGlzcGxheTppbmxpbmU7b3BhY2l0eTowLjg2MDAwMDAxO2ZpbGw6bm9uZTtzdHJva2U6IzAwMDAwMDtzdHJva2Utd2lkdGg6MS41MDAwMDAzNjtzdHJva2UtbGluZWNhcDpidXR0O3N0cm9rZS1saW5lam9pbjptaXRlcjtzdHJva2UtbWl0ZXJsaW1pdDo0O3N0cm9rZS1kYXNoYXJyYXk6bm9uZTtzdHJva2Utb3BhY2l0eToxO21hcmtlci1lbmQ6dXJsKCNBcnJvdzJNZW5kKSIgZD0ibSAxMjA3LDc3MCBoIDE1IiBpZD0icGF0aDQzMTYiLz4mI3hhOyAgICA8cGF0aCBzdHlsZT0iZGlzcGxheTppbmxpbmU7b3BhY2l0eTowLjg2MDAwMDAxO2ZpbGw6bm9uZTtzdHJva2U6IzAwMDAwMDtzdHJva2Utd2lkdGg6MS41MDAwMDAzNjtzdHJva2UtbGluZWNhcDpidXR0O3N0cm9rZS1saW5lam9pbjptaXRlcjtzdHJva2UtbWl0ZXJsaW1pdDo0O3N0cm9rZS1kYXNoYXJyYXk6bm9uZTtzdHJva2Utb3BhY2l0eToxO21hcmtlci1lbmQ6dXJsKCNBcnJvdzJNZW5kKSIgZD0ibSAxMjcyLDc3MCBoIDE1IiBpZD0icGF0aDQzMjAiLz4mI3hhOyAgICA8cGF0aCBpZD0icGF0aDQzMjIiIGQ9Im0gMTI4Nyw4MTAgaCAtMTUiIHN0eWxlPSJkaXNwbGF5OmlubGluZTtvcGFjaXR5OjAuODYwMDAwMDE7ZmlsbDpub25lO3N0cm9rZTojMDAwMDAwO3N0cm9rZS13aWR0aDoxLjUwMDAwMDM2O3N0cm9rZS1saW5lY2FwOmJ1dHQ7c3Ryb2tlLWxpbmVqb2luOm1pdGVyO3N0cm9rZS1taXRlcmxpbWl0OjQ7c3Ryb2tlLWRhc2hhcnJheTpub25lO3N0cm9rZS1vcGFjaXR5OjE7bWFya2VyLWVuZDp1cmwoI0Fycm93Mk1lbmQpIi8+JiN4YTsgICAgPHBhdGggc3R5bGU9ImRpc3BsYXk6aW5saW5lO29wYWNpdHk6MC44NjtmaWxsOm5vbmU7c3Ryb2tlOiMwMDAwMDA7c3Ryb2tlLXdpZHRoOjEuNTtzdHJva2UtbGluZWNhcDpidXR0O3N0cm9rZS1saW5lam9pbjptaXRlcjtzdHJva2UtbWl0ZXJsaW1pdDo0O3N0cm9rZS1kYXNoYXJyYXk6bm9uZTtzdHJva2Utb3BhY2l0eToxO21hcmtlci1lbmQ6dXJsKCNBcnJvdzJNZW5kKSIgZD0ibSAxMjIyLDgxMCAtNzcuMDE0MywwLjM4NjIzIC05LjExMjMsNi45NzY2MSAwLjAxLDEyLjE3NDk3IiBpZD0icGF0aDQzMjQiLz4mI3hhOyAgICA8cGF0aCBzdHlsZT0iZGlzcGxheTppbmxpbmU7b3BhY2l0eTowLjg2MDAwMDAxO2ZpbGw6bm9uZTtzdHJva2U6IzAwMDAwMDtzdHJva2Utd2lkdGg6MS41MDAwMDAzNjtzdHJva2UtbGluZWNhcDpidXR0O3N0cm9rZS1saW5lam9pbjptaXRlcjtzdHJva2UtbWl0ZXJsaW1pdDo0O3N0cm9rZS1kYXNoYXJyYXk6bm9uZTtzdHJva2Utb3BhY2l0eToxO21hcmtlci1lbmQ6dXJsKCNBcnJvdzJNZW5kKSIgZD0ibSAxMzM3LDc3MCBoIDE1IGwgMTAsMTAgdiAyMCBsIC0xMCwxMCBoIC0xNSIgaWQ9InBhdGg4Njk1Ii8+JiN4YTsgICAgPHBhdGggc3R5bGU9ImRpc3BsYXk6aW5saW5lO29wYWNpdHk6MC44NjAwMDAwMTtmaWxsOm5vbmU7c3Ryb2tlOiMwMDAwMDA7c3Ryb2tlLXdpZHRoOjEuNTAwMDAwMzY7c3Ryb2tlLWxpbmVjYXA6YnV0dDtzdHJva2UtbGluZWpvaW46bWl0ZXI7c3Ryb2tlLW1pdGVybGltaXQ6NDtzdHJva2UtZGFzaGFycmF5Om5vbmU7c3Ryb2tlLW9wYWNpdHk6MTttYXJrZXItZW5kOnVybCgjQXJyb3cyTWVuZCkiIGQ9Im0gMTA2Miw5MDAgaCA5NSIgaWQ9InBhdGg4NzEzIi8+JiN4YTsgICAgPHBhdGggaWQ9InBhdGgzNjIxIiBkPSJtIDEwNjIsODQ1IGggNDcuMzg5NSIgc3R5bGU9ImRpc3BsYXk6aW5saW5lO29wYWNpdHk6MC44NjtmaWxsOm5vbmU7c3Ryb2tlOiMwMDAwMDA7c3Ryb2tlLXdpZHRoOjEuMDU5NDM7c3Ryb2tlLWxpbmVjYXA6YnV0dDtzdHJva2UtbGluZWpvaW46bWl0ZXI7c3Ryb2tlLW1pdGVybGltaXQ6NDtzdHJva2UtZGFzaGFycmF5Om5vbmU7c3Ryb2tlLW9wYWNpdHk6MTttYXJrZXItZW5kOnVybCgjQXJyb3cyTWVuZCkiLz4mI3hhOyAgICA8cGF0aCBzdHlsZT0iZGlzcGxheTppbmxpbmU7b3BhY2l0eTowLjg2MDAwMDAxO2ZpbGw6bm9uZTtzdHJva2U6IzAwMDAwMDtzdHJva2Utd2lkdGg6MS43NTgwMDc1MztzdHJva2UtbGluZWNhcDpidXR0O3N0cm9rZS1saW5lam9pbjptaXRlcjtzdHJva2UtbWl0ZXJsaW1pdDo0O3N0cm9rZS1kYXNoYXJyYXk6bm9uZTtzdHJva2Utb3BhY2l0eToxO21hcmtlci1lbmQ6dXJsKCNBcnJvdzJNZW5kKSIgZD0iTSAxMzc2LjcyNTUsODMwLjMwMjczIFYgNjc4LjQyMzA1IGwgLTkuOTQ4MywtMTMuODA3MjQgaCAtOTQuNTA5NCIgaWQ9InBhdGg0NDAzIi8+JiN4YTsgICAgPHBhdGggc3R5bGU9ImRpc3BsYXk6aW5saW5lO29wYWNpdHk6MC44NjAwMDAwMTtmaWxsOm5vbmU7c3Ryb2tlOiMwMDAwMDA7c3Ryb2tlLXdpZHRoOjEuNTAwMDAwMzY7c3Ryb2tlLWxpbmVjYXA6YnV0dDtzdHJva2UtbGluZWpvaW46bWl0ZXI7c3Ryb2tlLW1pdGVybGltaXQ6NDtzdHJva2UtZGFzaGFycmF5Om5vbmU7c3Ryb2tlLW9wYWNpdHk6MTttYXJrZXItZW5kOnVybCgjQXJyb3cyTWVuZCkiIGQ9Im0gMTI3Miw5MDAgaCAxNSIgaWQ9InBhdGgzNDk2Ii8+JiN4YTsgICAgPHBhdGggc3R5bGU9ImRpc3BsYXk6aW5saW5lO29wYWNpdHk6MC44NjAwMDAwMTtmaWxsOm5vbmU7c3Ryb2tlOiMwMDAwMDA7c3Ryb2tlLXdpZHRoOjEuNTAwMDAwMzY7c3Ryb2tlLWxpbmVjYXA6YnV0dDtzdHJva2UtbGluZWpvaW46bWl0ZXI7c3Ryb2tlLW1pdGVybGltaXQ6NDtzdHJva2UtZGFzaGFycmF5Om5vbmU7c3Ryb2tlLW9wYWNpdHk6MTttYXJrZXItZW5kOnVybCgjQXJyb3cyTWVuZCkiIGQ9Im0gMTIwNyw5MDAgaCAxNSIgaWQ9InBhdGgzNTE1Ii8+JiN4YTsgICAgPHBhdGggaWQ9InBhdGg0MzEyIiBkPSJtIDEzMzcsOTAwIGggMTUiIHN0eWxlPSJkaXNwbGF5OmlubGluZTtvcGFjaXR5OjAuODYwMDAwMDE7ZmlsbDpub25lO3N0cm9rZTojMDAwMDAwO3N0cm9rZS13aWR0aDoxLjUwMDAwMDM2O3N0cm9rZS1saW5lY2FwOmJ1dHQ7c3Ryb2tlLWxpbmVqb2luOm1pdGVyO3N0cm9rZS1taXRlcmxpbWl0OjQ7c3Ryb2tlLWRhc2hhcnJheTpub25lO3N0cm9rZS1vcGFjaXR5OjE7bWFya2VyLWVuZDp1cmwoI0Fycm93Mk1lbmQpIi8+JiN4YTsgICAgPHBhdGggc3R5bGU9ImRpc3BsYXk6aW5saW5lO29wYWNpdHk6MC44NjAwMDAwMTtmaWxsOm5vbmU7c3Ryb2tlOiMwMDAwMDA7c3Ryb2tlLXdpZHRoOjEuNTAwMDAwMzY7c3Ryb2tlLWxpbmVjYXA6YnV0dDtzdHJva2UtbGluZWpvaW46bWl0ZXI7c3Ryb2tlLW1pdGVybGltaXQ6NDtzdHJva2UtZGFzaGFycmF5Om5vbmU7c3Ryb2tlLW9wYWNpdHk6MTttYXJrZXItZW5kOnVybCgjQXJyb3cyTWVuZCkiIGQ9Im0gMTQwMiw5MDAgaCAxNSIgaWQ9InBhdGg0MzE0Ii8+JiN4YTsgICAgPHBhdGggaWQ9InBhdGgzNjE3IiBkPSJtIDg3Nyw4NDUgaCA3MCIgc3R5bGU9ImRpc3BsYXk6aW5saW5lO29wYWNpdHk6MC44NjAwMDAwMTtmaWxsOm5vbmU7c3Ryb2tlOiMwMDAwMDA7c3Ryb2tlLXdpZHRoOjEuNTAwMDAwMzY7c3Ryb2tlLWxpbmVjYXA6YnV0dDtzdHJva2UtbGluZWpvaW46bWl0ZXI7c3Ryb2tlLW1pdGVybGltaXQ6NDtzdHJva2UtZGFzaGFycmF5Om5vbmU7c3Ryb2tlLW9wYWNpdHk6MTttYXJrZXItZW5kOnVybCgjQXJyb3cyTWVuZCkiLz4mI3hhOyAgICA8cGF0aCBpZD0icGF0aDg3MTEiIGQ9Im0gOTMyLDk0MCBoIDE1IiBzdHlsZT0iZGlzcGxheTppbmxpbmU7b3BhY2l0eTowLjg2MDAwMDAxO2ZpbGw6bm9uZTtzdHJva2U6IzAwMDAwMDtzdHJva2Utd2lkdGg6MS41MDAwMDAzNjtzdHJva2UtbGluZWNhcDpidXR0O3N0cm9rZS1saW5lam9pbjptaXRlcjtzdHJva2UtbWl0ZXJsaW1pdDo0O3N0cm9rZS1kYXNoYXJyYXk6bm9uZTtzdHJva2Utb3BhY2l0eToxO21hcmtlci1lbmQ6dXJsKCNBcnJvdzJNZW5kKSIvPiYjeGE7ICAgIDxwYXRoIGlkPSJwYXRoMTI2OTkiIGQ9Im0gMTE0Miw5NDAgaCAxNSIgc3R5bGU9ImRpc3BsYXk6aW5saW5lO29wYWNpdHk6MC44NjAwMDAwMTtmaWxsOm5vbmU7c3Ryb2tlOiMwMDAwMDA7c3Ryb2tlLXdpZHRoOjEuNTAwMDAwMzY7c3Ryb2tlLWxpbmVjYXA6YnV0dDtzdHJva2UtbGluZWpvaW46bWl0ZXI7c3Ryb2tlLW1pdGVybGltaXQ6NDtzdHJva2UtZGFzaGFycmF5Om5vbmU7c3Ryb2tlLW9wYWNpdHk6MTttYXJrZXItZW5kOnVybCgjQXJyb3cyTWVuZCkiLz4mI3hhOyAgICA8cGF0aCBzdHlsZT0iZGlzcGxheTppbmxpbmU7b3BhY2l0eTowLjg2O2ZpbGw6bm9uZTtzdHJva2U6IzAwMDAwMDtzdHJva2Utd2lkdGg6MS4yNjQ5NjtzdHJva2UtbGluZWNhcDpidXR0O3N0cm9rZS1saW5lam9pbjptaXRlcjtzdHJva2UtbWl0ZXJsaW1pdDo0O3N0cm9rZS1kYXNoYXJyYXk6bm9uZTtzdHJva2Utb3BhY2l0eToxO21hcmtlci1lbmQ6dXJsKCNBcnJvdzJNZW5kKSIgZD0ibSAxMTM2Ljg2MSw4NTUuMjQ2MTEgdiAzOC4xMTk2MyBsIDEwLjI2MDcsNi45MzA4NCIgaWQ9InBhdGgxMzc1MCIvPiYjeGE7ICAgIDxwYXRoIHN0eWxlPSJkaXNwbGF5OmlubGluZTtvcGFjaXR5OjAuODYwMDAwMDE7ZmlsbDpub25lO3N0cm9rZTojMDAwMDAwO3N0cm9rZS13aWR0aDoxLjUwMDAwMDM2O3N0cm9rZS1saW5lY2FwOmJ1dHQ7c3Ryb2tlLWxpbmVqb2luOm1pdGVyO3N0cm9rZS1taXRlcmxpbWl0OjQ7c3Ryb2tlLWRhc2hhcnJheTpub25lO3N0cm9rZS1vcGFjaXR5OjE7bWFya2VyLWVuZDp1cmwoI0Fycm93Mk1lbmQpIiBkPSJtIDg1Miw4NDUgaCAyNSBsIDQ1LDUwIGggMjUiIGlkPSJwYXRoODcwMSIvPiYjeGE7ICAgIDxwYXRoIGlkPSJwYXRoMTI3MDMiIGQ9Im0gMTIwNyw5NDAgaCAxNSIgc3R5bGU9ImRpc3BsYXk6aW5saW5lO29wYWNpdHk6MC44NjAwMDAwMTtmaWxsOm5vbmU7c3Ryb2tlOiMwMDAwMDA7c3Ryb2tlLXdpZHRoOjEuNTAwMDAwMzY7c3Ryb2tlLWxpbmVjYXA6YnV0dDtzdHJva2UtbGluZWpvaW46bWl0ZXI7c3Ryb2tlLW1pdGVybGltaXQ6NDtzdHJva2UtZGFzaGFycmF5Om5vbmU7c3Ryb2tlLW9wYWNpdHk6MTttYXJrZXItZW5kOnVybCgjQXJyb3cyTWVuZCkiLz4mI3hhOyAgICA8cGF0aCBzdHlsZT0iZGlzcGxheTppbmxpbmU7b3BhY2l0eTowLjg2MDAwMDAxO2ZpbGw6bm9uZTtzdHJva2U6IzAwMDAwMDtzdHJva2Utd2lkdGg6MS41MDAwMDAzNjtzdHJva2UtbGluZWNhcDpidXR0O3N0cm9rZS1saW5lam9pbjptaXRlcjtzdHJva2UtbWl0ZXJsaW1pdDo0O3N0cm9rZS1kYXNoYXJyYXk6bm9uZTtzdHJva2Utb3BhY2l0eToxO21hcmtlci1lbmQ6dXJsKCNBcnJvdzJNZW5kKSIgZD0ibSA5OTcsOTQwIGggMTUiIGlkPSJwYXRoMzM5MSIvPiYjeGE7ICAgIDxwYXRoIGlkPSJwYXRoMzM4OSIgZD0ibSA5OTcsOTAwIGggMTUiIHN0eWxlPSJkaXNwbGF5OmlubGluZTtvcGFjaXR5OjAuODYwMDAwMDE7ZmlsbDpub25lO3N0cm9rZTojMDAwMDAwO3N0cm9rZS13aWR0aDoxLjUwMDAwMDM2O3N0cm9rZS1saW5lY2FwOmJ1dHQ7c3Ryb2tlLWxpbmVqb2luOm1pdGVyO3N0cm9rZS1taXRlcmxpbWl0OjQ7c3Ryb2tlLWRhc2hhcnJheTpub25lO3N0cm9rZS1vcGFjaXR5OjE7bWFya2VyLWVuZDp1cmwoI0Fycm93Mk1lbmQpIi8+JiN4YTsgICAgPHBhdGggaWQ9InBhdGgzNDc2IiBkPSJtIDEwNjIsOTQwIGggMzAiIHN0eWxlPSJkaXNwbGF5OmlubGluZTtvcGFjaXR5OjAuODYwMDAwMDE7ZmlsbDpub25lO3N0cm9rZTojMDAwMDAwO3N0cm9rZS13aWR0aDoxLjUwMDAwMDM2O3N0cm9rZS1saW5lY2FwOmJ1dHQ7c3Ryb2tlLWxpbmVqb2luOm1pdGVyO3N0cm9rZS1taXRlcmxpbWl0OjQ7c3Ryb2tlLWRhc2hhcnJheTpub25lO3N0cm9rZS1vcGFjaXR5OjE7bWFya2VyLWVuZDp1cmwoI0Fycm93Mk1lbmQpIi8+JiN4YTsgICAgPHBhdGggc3R5bGU9ImRpc3BsYXk6aW5saW5lO29wYWNpdHk6MC44NjAwMDAwMTtmaWxsOm5vbmU7c3Ryb2tlOiMwMDAwMDA7c3Ryb2tlLXdpZHRoOjEuNTAwMDAwMzY7c3Ryb2tlLWxpbmVjYXA6YnV0dDtzdHJva2UtbGluZWpvaW46bWl0ZXI7c3Ryb2tlLW1pdGVybGltaXQ6NDtzdHJva2UtZGFzaGFycmF5Om5vbmU7c3Ryb2tlLW9wYWNpdHk6MTttYXJrZXItZW5kOnVybCgjQXJyb3cyTWVuZCkiIGQ9Im0gOTk3LDg0NSBoIDE1IiBpZD0icGF0aDQzMDgiLz4mI3hhOyAgICA8cGF0aCBpZD0icGF0aDM2MTMiIGQ9Im0gNzIyLDg0NSBoIDE1IiBzdHlsZT0iZGlzcGxheTppbmxpbmU7b3BhY2l0eTowLjg2MDAwMDAxO2ZpbGw6bm9uZTtzdHJva2U6IzAwMDAwMDtzdHJva2Utd2lkdGg6MS41MDAwMDAzNjtzdHJva2UtbGluZWNhcDpidXR0O3N0cm9rZS1saW5lam9pbjptaXRlcjtzdHJva2UtbWl0ZXJsaW1pdDo0O3N0cm9rZS1kYXNoYXJyYXk6bm9uZTtzdHJva2Utb3BhY2l0eToxO21hcmtlci1lbmQ6dXJsKCNBcnJvdzJNZW5kKSIvPiYjeGE7ICAgIDxwYXRoIHN0eWxlPSJkaXNwbGF5OmlubGluZTtvcGFjaXR5OjAuODYwMDAwMDE7ZmlsbDpub25lO3N0cm9rZTojMDAwMDAwO3N0cm9rZS13aWR0aDoxLjUwMDAwMDM2O3N0cm9rZS1saW5lY2FwOmJ1dHQ7c3Ryb2tlLWxpbmVqb2luOm1pdGVyO3N0cm9rZS1taXRlcmxpbWl0OjQ7c3Ryb2tlLWRhc2hhcnJheTpub25lO3N0cm9rZS1vcGFjaXR5OjE7bWFya2VyLWVuZDp1cmwoI0Fycm93Mk1lbmQpIiBkPSJtIDc4Nyw4NDUgaCAxNSIgaWQ9InBhdGgxMjY2MSIvPiYjeGE7ICAgIDxwYXRoIGlkPSJwYXRoMzM1NiIgZD0ibSA2NTcsODQ1IGggMTUiIHN0eWxlPSJkaXNwbGF5OmlubGluZTtvcGFjaXR5OjAuODYwMDAwMDE7ZmlsbDpub25lO3N0cm9rZTojMDAwMDAwO3N0cm9rZS13aWR0aDoxLjUwMDAwMDM2O3N0cm9rZS1saW5lY2FwOmJ1dHQ7c3Ryb2tlLWxpbmVqb2luOm1pdGVyO3N0cm9rZS1taXRlcmxpbWl0OjQ7c3Ryb2tlLWRhc2hhcnJheTpub25lO3N0cm9rZS1vcGFjaXR5OjE7bWFya2VyLWVuZDp1cmwoI0Fycm93Mk1lbmQpIi8+JiN4YTsgICAgPHBhdGggaWQ9InBhdGgzODE0IiBkPSJNIDk5Mi4wNzc1NCw1OTUuODgyNDQgSCAxMTA2LjU4MiBsIDkuOTU2OSwxMy43OTkxIDAuMTk5MSwxNDQuODkwNDkiIHN0eWxlPSJkaXNwbGF5OmlubGluZTtvcGFjaXR5OjAuODYwMDAwMDE7ZmlsbDpub25lO3N0cm9rZTojMDAwMDAwO3N0cm9rZS13aWR0aDoxLjc1ODI0MzA4O3N0cm9rZS1saW5lY2FwOmJ1dHQ7c3Ryb2tlLWxpbmVqb2luOm1pdGVyO3N0cm9rZS1taXRlcmxpbWl0OjQ7c3Ryb2tlLWRhc2hhcnJheTpub25lO3N0cm9rZS1vcGFjaXR5OjE7bWFya2VyLWVuZDp1cmwoI0Fycm93Mk1lbmQpIi8+JiN4YTsgICAgPHBhdGggc3R5bGU9ImRpc3BsYXk6aW5saW5lO29wYWNpdHk6MC44NjAwMDAwMTtmaWxsOm5vbmU7c3Ryb2tlOiMwMDAwMDA7c3Ryb2tlLXdpZHRoOjEuNTAwMDAwMzY7c3Ryb2tlLWxpbmVjYXA6YnV0dDtzdHJva2UtbGluZWpvaW46bWl0ZXI7c3Ryb2tlLW1pdGVybGltaXQ6NDtzdHJva2UtZGFzaGFycmF5Om5vbmU7c3Ryb2tlLW9wYWNpdHk6MTttYXJrZXItZW5kOnVybCgjQXJyb3cyTWVuZCkiIGQ9Ik0gODAyLDY2NiBIIDUwNyIgaWQ9InBhdGgzMzk0Ii8+JiN4YTsgICAgPHBhdGggc3R5bGU9ImRpc3BsYXk6aW5saW5lO29wYWNpdHk6MC44NjAwMDAwMTtmaWxsOm5vbmU7c3Ryb2tlOiMwMDAwMDA7c3Ryb2tlLXdpZHRoOjIuMDYwODE3O3N0cm9rZS1saW5lY2FwOmJ1dHQ7c3Ryb2tlLWxpbmVqb2luOm1pdGVyO3N0cm9rZS1taXRlcmxpbWl0OjQ7c3Ryb2tlLWRhc2hhcnJheTpub25lO3N0cm9rZS1vcGFjaXR5OjE7bWFya2VyLWVuZDp1cmwoI0Fycm93Mk1lbmQpIiBkPSJtIDEyMjEuMzYzLDY2Ni41ODIxMyBoIC0yOS4xMzA3IGwgLTkuNzEwMywxOS40Mzg2MyB2IDY4LjAzNTIzIiBpZD0icGF0aDQ0MDUiLz4mI3hhOyAgICA8cGF0aCBzdHlsZT0iZGlzcGxheTppbmxpbmU7b3BhY2l0eTowLjg2MDAwMDAxO2ZpbGw6bm9uZTtzdHJva2U6IzAwMDAwMDtzdHJva2Utd2lkdGg6MS41MDAwMDAzNjtzdHJva2UtbGluZWNhcDpidXR0O3N0cm9rZS1saW5lam9pbjptaXRlcjtzdHJva2UtbWl0ZXJsaW1pdDo0O3N0cm9rZS1kYXNoYXJyYXk6bm9uZTtzdHJva2Utb3BhY2l0eToxO21hcmtlci1lbmQ6dXJsKCNBcnJvdzJNZW5kKSIgZD0ibSA1MjcsOTQwIGggMTUiIGlkPSJwYXRoMTQ4MjYiLz4mI3hhOyAgICA8cGF0aCBpZD0icGF0aDE0ODI4IiBkPSJtIDQ2Miw5NDAgaCAxNSIgc3R5bGU9ImRpc3BsYXk6aW5saW5lO29wYWNpdHk6MC44NjAwMDAwMTtmaWxsOm5vbmU7c3Ryb2tlOiMwMDAwMDA7c3Ryb2tlLXdpZHRoOjEuNTAwMDAwMzY7c3Ryb2tlLWxpbmVjYXA6YnV0dDtzdHJva2UtbGluZWpvaW46bWl0ZXI7c3Ryb2tlLW1pdGVybGltaXQ6NDtzdHJva2UtZGFzaGFycmF5Om5vbmU7c3Ryb2tlLW9wYWNpdHk6MTttYXJrZXItZW5kOnVybCgjQXJyb3cyTWVuZCkiLz4mI3hhOyAgICA8cGF0aCBpZD0icGF0aDE0ODQyIiBkPSJNIDQzNyw5MjUuNTIxNDggViA4NTUgbCAxMCwtMTAiIHN0eWxlPSJkaXNwbGF5OmlubGluZTtvcGFjaXR5OjAuODYwMDAwMDE7ZmlsbDpub25lO3N0cm9rZTojMDAwMDAwO3N0cm9rZS13aWR0aDoxLjUwMDAwMDM2O3N0cm9rZS1saW5lY2FwOmJ1dHQ7c3Ryb2tlLWxpbmVqb2luOm1pdGVyO3N0cm9rZS1taXRlcmxpbWl0OjQ7c3Ryb2tlLWRhc2hhcnJheTpub25lO3N0cm9rZS1vcGFjaXR5OjE7bWFya2VyLWVuZDp1cmwoI0Fycm93Mk1lbmQpIi8+JiN4YTsgICAgPHBhdGggc3R5bGU9ImRpc3BsYXk6aW5saW5lO29wYWNpdHk6MC44NjAwMDAwMTtmaWxsOm5vbmU7c3Ryb2tlOiMwMDAwMDA7c3Ryb2tlLXdpZHRoOjEuNTAwMDAwMzY7c3Ryb2tlLWxpbmVjYXA6YnV0dDtzdHJva2UtbGluZWpvaW46bWl0ZXI7c3Ryb2tlLW1pdGVybGltaXQ6NDtzdHJva2UtZGFzaGFycmF5Om5vbmU7c3Ryb2tlLW9wYWNpdHk6MTttYXJrZXItZW5kOnVybCgjQXJyb3cyTWVuZCkiIGQ9Im0gMzIyLDk0MCBoIDE1IiBpZD0icGF0aDE0ODYyIi8+JiN4YTsgICAgPHBhdGggc3R5bGU9ImRpc3BsYXk6aW5saW5lO29wYWNpdHk6MC44NjAwMDAwMTtmaWxsOm5vbmU7c3Ryb2tlOiMwMDAwMDA7c3Ryb2tlLXdpZHRoOjEuNTAwMDAwMzY7c3Ryb2tlLWxpbmVjYXA6YnV0dDtzdHJva2UtbGluZWpvaW46bWl0ZXI7c3Ryb2tlLW1pdGVybGltaXQ6NDtzdHJva2UtZGFzaGFycmF5Om5vbmU7c3Ryb2tlLW9wYWNpdHk6MTttYXJrZXItZW5kOnVybCgjQXJyb3cyTWVuZCkiIGQ9Im0gNTkyLDg0NSBoIDE1IiBpZD0icGF0aDM2MTEiLz4mI3hhOyAgICA8cGF0aCBzdHlsZT0iZGlzcGxheTppbmxpbmU7b3BhY2l0eTowLjg2MDAwMDAxO2ZpbGw6bm9uZTtzdHJva2U6IzAwMDAwMDtzdHJva2Utd2lkdGg6MS41MDAwMDAzNjtzdHJva2UtbGluZWNhcDpidXR0O3N0cm9rZS1saW5lam9pbjptaXRlcjtzdHJva2UtbWl0ZXJsaW1pdDo0O3N0cm9rZS1kYXNoYXJyYXk6bm9uZTtzdHJva2Utb3BhY2l0eToxO21hcmtlci1lbmQ6dXJsKCNBcnJvdzJNZW5kKSIgZD0ibSAzODcsOTQwIGggMjUiIGlkPSJwYXRoMTQ4NzYiLz4mI3hhOyAgICA8cGF0aCBzdHlsZT0iZGlzcGxheTppbmxpbmU7b3BhY2l0eTowLjg2MDAwMDAxO2ZpbGw6bm9uZTtzdHJva2U6IzAwMDAwMDtzdHJva2Utd2lkdGg6MS41MDAwMDAzNjtzdHJva2UtbGluZWNhcDpidXR0O3N0cm9rZS1saW5lam9pbjptaXRlcjtzdHJva2UtbWl0ZXJsaW1pdDo0O3N0cm9rZS1kYXNoYXJyYXk6bm9uZTtzdHJva2Utb3BhY2l0eToxO21hcmtlci1lbmQ6dXJsKCNBcnJvdzJNZW5kKSIgZD0ibSAzNjIsOTI1IHYgLTcwIGwgMTAsLTEwIGggMTcwIiBpZD0icGF0aDE0ODc0Ii8+JiN4YTsgICAgPHBhdGggaWQ9InBhdGgxNDgyNCIgZD0ibSA1OTIsOTQwIGggMTUiIHN0eWxlPSJkaXNwbGF5OmlubGluZTtvcGFjaXR5OjAuODYwMDAwMDE7ZmlsbDpub25lO3N0cm9rZTojMDAwMDAwO3N0cm9rZS13aWR0aDoxLjUwMDAwMDM2O3N0cm9rZS1saW5lY2FwOmJ1dHQ7c3Ryb2tlLWxpbmVqb2luOm1pdGVyO3N0cm9rZS1taXRlcmxpbWl0OjQ7c3Ryb2tlLWRhc2hhcnJheTpub25lO3N0cm9rZS1vcGFjaXR5OjE7bWFya2VyLWVuZDp1cmwoI0Fycm93Mk1lbmQpIi8+JiN4YTsgICAgPHBhdGggc3R5bGU9ImRpc3BsYXk6aW5saW5lO29wYWNpdHk6MC44NjAwMDAwMTtmaWxsOm5vbmU7c3Ryb2tlOiMwMDAwMDA7c3Ryb2tlLXdpZHRoOjEuNzIwNzM2NzQ7c3Ryb2tlLWxpbmVjYXA6YnV0dDtzdHJva2UtbGluZWpvaW46bWl0ZXI7c3Ryb2tlLW1pdGVybGltaXQ6NDtzdHJva2UtZGFzaGFycmF5Om5vbmU7c3Ryb2tlLW9wYWNpdHk6MTttYXJrZXItZW5kOnVybCgjQXJyb3cyTWVuZCkiIGQ9Im0gNDU2LjkwMDYxLDY2NS4yODIzOSBoIC05LjkwNDIgbCAtOS45MDQyMSwxMy4yODY5OSB2IDE1Mi44MDAzNyBsIDkuOTA0MjEsMTMuMjg2OTkiIGlkPSJwYXRoMjQyMSIvPiYjeGE7ICAgIDxwYXRoIGlkPSJwYXRoMjcyMCIgZD0ibSAyNTcsOTQwIGggMTUiIHN0eWxlPSJkaXNwbGF5OmlubGluZTtvcGFjaXR5OjAuODYwMDAwMDE7ZmlsbDpub25lO3N0cm9rZTojMDAwMDAwO3N0cm9rZS13aWR0aDoxLjUwMDAwMDM2O3N0cm9rZS1saW5lY2FwOmJ1dHQ7c3Ryb2tlLWxpbmVqb2luOm1pdGVyO3N0cm9rZS1taXRlcmxpbWl0OjQ7c3Ryb2tlLWRhc2hhcnJheTpub25lO3N0cm9rZS1vcGFjaXR5OjE7bWFya2VyLWVuZDp1cmwoI0Fycm93Mk1lbmQpIi8+JiN4YTsgICAgPHBhdGggc3R5bGU9ImRpc3BsYXk6aW5saW5lO29wYWNpdHk6MC44NjAwMDAwMTtmaWxsOm5vbmU7c3Ryb2tlOiMwMDAwMDA7c3Ryb2tlLXdpZHRoOjEuNTAwMDAwMzY7c3Ryb2tlLWxpbmVjYXA6YnV0dDtzdHJva2UtbGluZWpvaW46bWl0ZXI7c3Ryb2tlLW1pdGVybGltaXQ6NDtzdHJva2UtZGFzaGFycmF5Om5vbmU7c3Ryb2tlLW9wYWNpdHk6MTttYXJrZXItZW5kOnVybCgjQXJyb3cyTWVuZCkiIGQ9Im0gODUyLDk0MCBoIDMwIiBpZD0icGF0aDg3MzkiLz4mI3hhOyAgICA8cGF0aCBzdHlsZT0iZGlzcGxheTppbmxpbmU7b3BhY2l0eTowLjg2MDAwMDAxO2ZpbGw6bm9uZTtzdHJva2U6IzAwMDAwMDtzdHJva2Utd2lkdGg6MS41MDAwMDAzNjtzdHJva2UtbGluZWNhcDpidXR0O3N0cm9rZS1saW5lam9pbjptaXRlcjtzdHJva2UtbWl0ZXJsaW1pdDo0O3N0cm9rZS1kYXNoYXJyYXk6bm9uZTtzdHJva2Utb3BhY2l0eToxO21hcmtlci1lbmQ6dXJsKCNBcnJvdzJNZW5kKSIgZD0ibSA2NTcsOTQwIGggMTUiIGlkPSJwYXRoMzM2NCIvPiYjeGE7ICAgIDxwYXRoIGlkPSJwYXRoMzM2OCIgZD0ibSA3MjIsOTQwIGggMTUiIHN0eWxlPSJkaXNwbGF5OmlubGluZTtvcGFjaXR5OjAuODYwMDAwMDE7ZmlsbDpub25lO3N0cm9rZTojMDAwMDAwO3N0cm9rZS13aWR0aDoxLjUwMDAwMDM2O3N0cm9rZS1saW5lY2FwOmJ1dHQ7c3Ryb2tlLWxpbmVqb2luOm1pdGVyO3N0cm9rZS1taXRlcmxpbWl0OjQ7c3Ryb2tlLWRhc2hhcnJheTpub25lO3N0cm9rZS1vcGFjaXR5OjE7bWFya2VyLWVuZDp1cmwoI0Fycm93Mk1lbmQpIi8+JiN4YTsgICAgPHBhdGggc3R5bGU9ImRpc3BsYXk6aW5saW5lO29wYWNpdHk6MC44NjAwMDAwMTtmaWxsOm5vbmU7c3Ryb2tlOiMwMDAwMDA7c3Ryb2tlLXdpZHRoOjEuNTAwMDAwMzY7c3Ryb2tlLWxpbmVjYXA6YnV0dDtzdHJva2UtbGluZWpvaW46bWl0ZXI7c3Ryb2tlLW1pdGVybGltaXQ6NDtzdHJva2UtZGFzaGFycmF5Om5vbmU7c3Ryb2tlLW9wYWNpdHk6MTttYXJrZXItZW5kOnVybCgjQXJyb3cyTWVuZCkiIGQ9Im0gNzg3LDk0MCBoIDE1IiBpZD0icGF0aDMzNzAiLz4mI3hhOyAgICA8cGF0aCBpZD0icGF0aDQzMTgiIGQ9Im0gMTE0Miw3NzAgaCAxNSIgc3R5bGU9ImRpc3BsYXk6aW5saW5lO29wYWNpdHk6MC44NjAwMDAwMTtmaWxsOm5vbmU7c3Ryb2tlOiMwMDAwMDA7c3Ryb2tlLXdpZHRoOjEuNTAwMDAwMzY7c3Ryb2tlLWxpbmVjYXA6YnV0dDtzdHJva2UtbGluZWpvaW46bWl0ZXI7c3Ryb2tlLW1pdGVybGltaXQ6NDtzdHJva2UtZGFzaGFycmF5Om5vbmU7c3Ryb2tlLW9wYWNpdHk6MTttYXJrZXItZW5kOnVybCgjQXJyb3cyTWVuZCkiLz4mI3hhOyAgICA8cGF0aCBzdHlsZT0iZGlzcGxheTppbmxpbmU7b3BhY2l0eTowLjg2MDAwMDAxO2ZpbGw6bm9uZTtzdHJva2U6IzAwMDAwMDtzdHJva2Utd2lkdGg6MS41MDAwMDAzNjtzdHJva2UtbGluZWNhcDpidXR0O3N0cm9rZS1saW5lam9pbjptaXRlcjtzdHJva2UtbWl0ZXJsaW1pdDo0O3N0cm9rZS1kYXNoYXJyYXk6bm9uZTtzdHJva2Utb3BhY2l0eToxO21hcmtlci1lbmQ6dXJsKCNBcnJvdzJNZW5kKSIgZD0iTSA4MjcsODMwIFYgODE1IiBpZD0icGF0aDM2MzkiLz4mI3hhOyAgICA8cGF0aCBpZD0icGF0aDMzNzIiIGQ9Ik0gODI3LDc5MCBWIDc3NSIgc3R5bGU9ImRpc3BsYXk6aW5saW5lO29wYWNpdHk6MC44NjAwMDAwMTtmaWxsOm5vbmU7c3Ryb2tlOiMwMDAwMDA7c3Ryb2tlLXdpZHRoOjEuNTAwMDAwMzY7c3Ryb2tlLWxpbmVjYXA6YnV0dDtzdHJva2UtbGluZWpvaW46bWl0ZXI7c3Ryb2tlLW1pdGVybGltaXQ6NDtzdHJva2UtZGFzaGFycmF5Om5vbmU7c3Ryb2tlLW9wYWNpdHk6MTttYXJrZXItZW5kOnVybCgjQXJyb3cyTWVuZCkiLz4mI3hhOyAgICA8cGF0aCBzdHlsZT0iZGlzcGxheTppbmxpbmU7b3BhY2l0eTowLjg2MDAwMDAxO2ZpbGw6bm9uZTtzdHJva2U6IzAwMDAwMDtzdHJva2Utd2lkdGg6MS41ODI4OTUxNjtzdHJva2UtbGluZWNhcDpidXR0O3N0cm9rZS1saW5lam9pbjptaXRlcjtzdHJva2UtbWl0ZXJsaW1pdDo0O3N0cm9rZS1kYXNoYXJyYXk6bm9uZTtzdHJva2Utb3BhY2l0eToxO21hcmtlci1lbmQ6dXJsKCNBcnJvdzJNZW5kKSIgZD0iTSA4MjcsNzA5LjYzMzA0IFYgNjc2LjIyNTYzIiBpZD0icGF0aDQzMTAiLz4mI3hhOyAgICA8cGF0aCBpZD0icGF0aDg3MDMiIGQ9Ik0gODI3LDg4NSBWIDg1NSIgc3R5bGU9ImRpc3BsYXk6aW5saW5lO29wYWNpdHk6MC44NjAwMDAwMTtmaWxsOm5vbmU7c3Ryb2tlOiMwMDAwMDA7c3Ryb2tlLXdpZHRoOjEuNTAwMDAwMzY7c3Ryb2tlLWxpbmVjYXA6YnV0dDtzdHJva2UtbGluZWpvaW46bWl0ZXI7c3Ryb2tlLW1pdGVybGltaXQ6NDtzdHJva2UtZGFzaGFycmF5Om5vbmU7c3Ryb2tlLW9wYWNpdHk6MTttYXJrZXItZW5kOnVybCgjQXJyb3cyTWVuZCkiLz4mI3hhOyAgICA8cGF0aCBzdHlsZT0iZGlzcGxheTppbmxpbmU7b3BhY2l0eTowLjg2MDAwMDAxO2ZpbGw6bm9uZTtzdHJva2U6IzAwMDAwMDtzdHJva2Utd2lkdGg6MS41MDAwMDAzNjtzdHJva2UtbGluZWNhcDpidXR0O3N0cm9rZS1saW5lam9pbjptaXRlcjtzdHJva2UtbWl0ZXJsaW1pdDo0O3N0cm9rZS1kYXNoYXJyYXk6bm9uZTtzdHJva2Utb3BhY2l0eToxO21hcmtlci1lbmQ6dXJsKCNBcnJvdzJNZW5kKSIgZD0iTSA4MjcsOTI1IFYgOTEwIiBpZD0icGF0aDg3MTkiLz4mI3hhOyAgICA8cGF0aCBzdHlsZT0iZGlzcGxheTppbmxpbmU7b3BhY2l0eTowLjg2MDAwMDAxO2ZpbGw6bm9uZTtzdHJva2U6IzAwMDAwMDtzdHJva2Utd2lkdGg6MS41MDAwMDAzNjtzdHJva2UtbGluZWNhcDpidXR0O3N0cm9rZS1saW5lam9pbjptaXRlcjtzdHJva2UtbWl0ZXJsaW1pdDo0O3N0cm9rZS1kYXNoYXJyYXk6bm9uZTtzdHJva2Utb3BhY2l0eToxO21hcmtlci1lbmQ6dXJsKCNBcnJvdzJNZW5kKSIgZD0ibSAyMzIsOTI1IHYgLTcwIGwgMTAsLTEwIGggMzAiIGlkPSJwYXRoMzM0MSIvPiYjeGE7ICAgIDxwYXRoIHN0eWxlPSJkaXNwbGF5OmlubGluZTtvcGFjaXR5OjAuODYwMDAwMDE7ZmlsbDpub25lO3N0cm9rZTojMDAwMDAwO3N0cm9rZS13aWR0aDoxLjUwMDAwMDM2O3N0cm9rZS1saW5lY2FwOmJ1dHQ7c3Ryb2tlLWxpbmVqb2luOm1pdGVyO3N0cm9rZS1taXRlcmxpbWl0OjQ7c3Ryb2tlLWRhc2hhcnJheTpub25lO3N0cm9rZS1vcGFjaXR5OjE7bWFya2VyLWVuZDp1cmwoI0Fycm93Mk1lbmQpIiBkPSJtIDE1NDcsOTM1IGMgMCwwIDguNTMzNCwtNS41MTk5MSAxMCwtMTAgNi44MjAzLC0yMC44MzM2IC0xNi44MjAzLC00NC4xNjY0IC0xMCwtNjUgMi4yLC02LjcyMDEzIDE1LC0xNSAxNSwtMTUiIGlkPSJwYXRoNDE0MCIvPiYjeGE7ICAgIDx0ZXh0IHk9IjMzNi43ODQwMyIgeD0iMjczNi4wMTk4IiB4bWw6c3BhY2U9InByZXNlcnZlIiBzdHlsZT0iZm9udC1zdHlsZTpub3JtYWw7Zm9udC12YXJpYW50Om5vcm1hbDtmb250LXdlaWdodDpub3JtYWw7Zm9udC1zdHJldGNoOm5vcm1hbDtmb250LXNpemU6Ny4yNTAyNnB4O2xpbmUtaGVpZ2h0OjEwMCU7Zm9udC1mYW1pbHk6QXJpYWw7LWlua3NjYXBlLWZvbnQtc3BlY2lmaWNhdGlvbjpBcmlhbDt0ZXh0LWFsaWduOnN0YXJ0O2xldHRlci1zcGFjaW5nOjBweDt3b3JkLXNwYWNpbmc6MHB4O3dyaXRpbmctbW9kZTpsci10Yjt0ZXh0LWFuY2hvcjpzdGFydDtmaWxsOiNmZjAwNDg7ZmlsbC1vcGFjaXR5OjE7c3Ryb2tlOm5vbmUiIGlkPSJ0ZXh0NDE1NCI+Y2xvbmUgcGFja2V0PC90ZXh0PiYjeGE7ICAgIDxwYXRoIGlkPSJwYXRoNDI0NiIgZD0iTSA0NDYuNzM0MDYsNjY1Ljg4NjIyIEggMzA3LjIxODg0IGwgLTkuOTY1MzcsMTMuNjQxNzkgdiAxNTAuMDU5NjgiIHN0eWxlPSJkaXNwbGF5OmlubGluZTtvcGFjaXR5OjAuODYwMDAwMDE7ZmlsbDpub25lO3N0cm9rZTojMDAwMDAwO3N0cm9rZS13aWR0aDoxLjc0ODkzNTQ2O3N0cm9rZS1saW5lY2FwOmJ1dHQ7c3Ryb2tlLWxpbmVqb2luOm1pdGVyO3N0cm9rZS1taXRlcmxpbWl0OjQ7c3Ryb2tlLWRhc2hhcnJheTpub25lO3N0cm9rZS1vcGFjaXR5OjE7bWFya2VyLWVuZDp1cmwoI0Fycm93Mk1lbmQpIi8+JiN4YTsgICAgPHRleHQgeD0iMzMyIiB5PSI2NjEiIGlkPSJ0ZXh0NDI1MiIgc3R5bGU9ImZvbnQtc3R5bGU6bm9ybWFsO2ZvbnQtdmFyaWFudDpub3JtYWw7Zm9udC13ZWlnaHQ6bm9ybWFsO2ZvbnQtc3RyZXRjaDpub3JtYWw7Zm9udC1zaXplOjEwcHg7bGluZS1oZWlnaHQ6MTAwJTtmb250LWZhbWlseTpBcmlhbDstaW5rc2NhcGUtZm9udC1zcGVjaWZpY2F0aW9uOkFyaWFsO3RleHQtYWxpZ246c3RhcnQ7bGV0dGVyLXNwYWNpbmc6MHB4O3dvcmQtc3BhY2luZzowcHg7d3JpdGluZy1tb2RlOmxyLXRiO3RleHQtYW5jaG9yOnN0YXJ0O2ZpbGw6I2ZmMDAwMDtmaWxsLW9wYWNpdHk6MTtzdHJva2U6bm9uZSIgeG1sOnNwYWNlPSJwcmVzZXJ2ZSI+PHRzcGFuIHk9IjY2MSIgeD0iMzMyIiBpZD0idHNwYW40MjU0Ij5jbG9uZSBwYWNrZXQ8L3RzcGFuPjwvdGV4dD4mI3hhOyAgICA8dGV4dCBpZD0idGV4dDQyNTkiIHk9IjY1MSIgeD0iMTE2MiIgc3R5bGU9ImZvbnQtc3R5bGU6bm9ybWFsO2ZvbnQtdmFyaWFudDpub3JtYWw7Zm9udC13ZWlnaHQ6bm9ybWFsO2ZvbnQtc3RyZXRjaDpub3JtYWw7Zm9udC1zaXplOjEwcHg7bGluZS1oZWlnaHQ6MTAwJTtmb250LWZhbWlseTpBcmlhbDstaW5rc2NhcGUtZm9udC1zcGVjaWZpY2F0aW9uOkFyaWFsO3RleHQtYWxpZ246c3RhcnQ7bGV0dGVyLXNwYWNpbmc6MHB4O3dvcmQtc3BhY2luZzowcHg7d3JpdGluZy1tb2RlOmxyLXRiO3RleHQtYW5jaG9yOnN0YXJ0O2ZpbGw6I2ZmMDAwMDtmaWxsLW9wYWNpdHk6MTtzdHJva2U6bm9uZSIgeG1sOnNwYWNlPSJwcmVzZXJ2ZSI+PHRzcGFuIHk9IjY1MSIgeD0iMTE2MiIgaWQ9InRzcGFuNDI2MSI+bm8gY2xvbmUgdG88L3RzcGFuPjx0c3BhbiBpZD0idHNwYW40MjYzIiB5PSI2NjEiIHg9IjExNjIiPkFGX1BBQ0tFVDwvdHNwYW4+PC90ZXh0PiYjeGE7ICAgIDx0ZXh0IHRyYW5zZm9ybT0icm90YXRlKC05MCkiIHhtbDpzcGFjZT0icHJlc2VydmUiIHN0eWxlPSJmb250LXN0eWxlOm5vcm1hbDtmb250LXZhcmlhbnQ6bm9ybWFsO2ZvbnQtd2VpZ2h0Om5vcm1hbDtmb250LXN0cmV0Y2g6bm9ybWFsO2ZvbnQtc2l6ZToxMHB4O2xpbmUtaGVpZ2h0OjEwMCU7Zm9udC1mYW1pbHk6QXJpYWw7LWlua3NjYXBlLWZvbnQtc3BlY2lmaWNhdGlvbjpBcmlhbDt0ZXh0LWFsaWduOnN0YXJ0O2xldHRlci1zcGFjaW5nOjBweDt3b3JkLXNwYWNpbmc6MHB4O3dyaXRpbmctbW9kZTpsci10Yjt0ZXh0LWFuY2hvcjpzdGFydDtmaWxsOiNmZjAwMDA7ZmlsbC1vcGFjaXR5OjE7c3Ryb2tlOm5vbmUiIGlkPSJ0ZXh0MzM1NSIgeT0iMjI3IiB4PSItOTIwIj48dHNwYW4gaWQ9InRzcGFuMzM1NyIgeD0iLTkyMCIgeT0iMjI3Ij5jbG9uZSBwYWNrZXQ8L3RzcGFuPjwvdGV4dD4mI3hhOyAgICA8dGV4dCB4PSItOTAwIiB5PSIxNTQyIiBpZD0idGV4dDMzNTkiIHN0eWxlPSJmb250LXN0eWxlOm5vcm1hbDtmb250LXZhcmlhbnQ6bm9ybWFsO2ZvbnQtd2VpZ2h0Om5vcm1hbDtmb250LXN0cmV0Y2g6bm9ybWFsO2ZvbnQtc2l6ZToxMHB4O2xpbmUtaGVpZ2h0OjEwMCU7Zm9udC1mYW1pbHk6QXJpYWw7LWlua3NjYXBlLWZvbnQtc3BlY2lmaWNhdGlvbjpBcmlhbDt0ZXh0LWFsaWduOnN0YXJ0O2xldHRlci1zcGFjaW5nOjBweDt3b3JkLXNwYWNpbmc6MHB4O3dyaXRpbmctbW9kZTpsci10Yjt0ZXh0LWFuY2hvcjpzdGFydDtmaWxsOiNmZjAwMDA7ZmlsbC1vcGFjaXR5OjE7c3Ryb2tlOm5vbmUiIHhtbDpzcGFjZT0icHJlc2VydmUiIHRyYW5zZm9ybT0icm90YXRlKC05MCkiPjx0c3BhbiB5PSIxNTQyIiB4PSItOTAwIiBpZD0idHNwYW4zMzYxIj5jbG9uZSBwYWNrZXQ8L3RzcGFuPjwvdGV4dD4mI3hhOyAgICA8cGF0aCBpZD0icGF0aDI3MjAtMSIgZD0ibSAxMzIuNDcyMjcsOTM4LjkyOTk3IGggNzQuODM5OTUiIHN0eWxlPSJkaXNwbGF5OmlubGluZTtvcGFjaXR5OjAuODYwMDAwMDE7ZmlsbDpub25lO3N0cm9rZTojMDAwMDAwO3N0cm9rZS13aWR0aDoxLjUwMDAwMDM2O3N0cm9rZS1saW5lY2FwOmJ1dHQ7c3Ryb2tlLWxpbmVqb2luOm1pdGVyO3N0cm9rZS1taXRlcmxpbWl0OjQ7c3Ryb2tlLWRhc2hhcnJheTpub25lO3N0cm9rZS1vcGFjaXR5OjE7bWFya2VyLWVuZDp1cmwoI0Fycm93Mk1lbmQtMikiLz4mI3hhOyAgICA8cGF0aCBpZD0icGF0aDI3MjAtMS02IiBkPSJNIDU1LjM5NDgwNiw5MzkuMjQ0NzQgSCA4Mi41NDc5NDEiIHN0eWxlPSJkaXNwbGF5OmlubGluZTtvcGFjaXR5OjAuODYwMDAwMDE7ZmlsbDpub25lO3N0cm9rZTojMDAwMDAwO3N0cm9rZS13aWR0aDoxLjUwMDAwMDM2O3N0cm9rZS1saW5lY2FwOmJ1dHQ7c3Ryb2tlLWxpbmVqb2luOm1pdGVyO3N0cm9rZS1taXRlcmxpbWl0OjQ7c3Ryb2tlLWRhc2hhcnJheTpub25lO3N0cm9rZS1vcGFjaXR5OjE7bWFya2VyLWVuZDp1cmwoI0Fycm93Mk1lbmQtMi05KSIvPiYjeGE7ICAgIDx0ZXh0IHhtbDpzcGFjZT0icHJlc2VydmUiIHN0eWxlPSJmb250LXN0eWxlOm5vcm1hbDtmb250LXZhcmlhbnQ6bm9ybWFsO2ZvbnQtd2VpZ2h0Om5vcm1hbDtmb250LXN0cmV0Y2g6bm9ybWFsO2ZvbnQtc2l6ZToxMHB4O2xpbmUtaGVpZ2h0OjEwMCU7Zm9udC1mYW1pbHk6QXJpYWw7LWlua3NjYXBlLWZvbnQtc3BlY2lmaWNhdGlvbjpBcmlhbDt0ZXh0LWFsaWduOnN0YXJ0O2xldHRlci1zcGFjaW5nOjBweDt3b3JkLXNwYWNpbmc6MHB4O3dyaXRpbmctbW9kZTpsci10Yjt0ZXh0LWFuY2hvcjpzdGFydDtkaXNwbGF5OmlubGluZTtmaWxsOiNmZjAwMDA7ZmlsbC1vcGFjaXR5OjE7c3Ryb2tlOm5vbmUiIGlkPSJ0ZXh0MzM1NS05IiB5PSI5ODMuNjEzNzciIHg9IjExNC4yOTU5NyI+PHRzcGFuIGlkPSJ0c3BhbjMzNTctMiIgeD0iMTE0LjI5NTk3IiB5PSI5ODMuNjEzNzciPlhEUF9UWDwvdHNwYW4+PC90ZXh0PiYjeGE7ICAgIDx0ZXh0IHhtbDpzcGFjZT0icHJlc2VydmUiIHN0eWxlPSJmb250LXN0eWxlOm5vcm1hbDtmb250LXZhcmlhbnQ6bm9ybWFsO2ZvbnQtd2VpZ2h0Om5vcm1hbDtmb250LXN0cmV0Y2g6bm9ybWFsO2ZvbnQtc2l6ZToxMHB4O2xpbmUtaGVpZ2h0OjEwMCU7Zm9udC1mYW1pbHk6QXJpYWw7LWlua3NjYXBlLWZvbnQtc3BlY2lmaWNhdGlvbjpBcmlhbDt0ZXh0LWFsaWduOnN0YXJ0O2xldHRlci1zcGFjaW5nOjBweDt3b3JkLXNwYWNpbmc6MHB4O3dyaXRpbmctbW9kZTpsci10Yjt0ZXh0LWFuY2hvcjpzdGFydDtkaXNwbGF5OmlubGluZTtmaWxsOiNmZjAwMDA7ZmlsbC1vcGFjaXR5OjE7c3Ryb2tlOm5vbmUiIGlkPSJ0ZXh0MzM1NS05LTIiIHk9IjkzNC40OTM4NCIgeD0iMTMzLjYzNzczIj48dHNwYW4gaWQ9InRzcGFuNTI4OCIgeD0iMTMzLjYzNzczIiB5PSI5MzQuNDkzODQiPlhEUF9QQVNTPC90c3Bhbj48L3RleHQ+JiN4YTsgICAgPHBhdGggaWQ9InBhdGg1MjQ4IiBkPSJtIDExMC4yODM1Myw5NTAuNDU0NTUgdiAzOC4xODE4MSBIIDE1NDcuMzY1IGwgMzguMDI4LC0zNi44MTgxOCIgc3R5bGU9ImRpc3BsYXk6aW5saW5lO29wYWNpdHk6MC44NjAwMDAwMTtmaWxsOm5vbmU7c3Ryb2tlOiMwMDAwMDA7c3Ryb2tlLXdpZHRoOjEuNTtzdHJva2UtbGluZWNhcDpidXR0O3N0cm9rZS1saW5lam9pbjptaXRlcjtzdHJva2UtbWl0ZXJsaW1pdDo0O3N0cm9rZS1kYXNoYXJyYXk6bm9uZTtzdHJva2Utb3BhY2l0eToxO21hcmtlci1lbmQ6dXJsKCNBcnJvdzJNZW5kKSIvPiYjeGE7ICAgIDx1c2UgaGVpZ2h0PSI0NzUiIHdpZHRoPSIxNDAwIiB0cmFuc2Zvcm09InRyYW5zbGF0ZSgtNjUyLjM4MzYzLC0xMTEuMjc4NSkiIGlkPSJ1c2UzMzM5LTIiIHhsaW5rOmhyZWY9IiNyZWN0MjUxNTQiIHk9IjAiIHg9IjAiIHN0eWxlPSJkaXNwbGF5OmlubGluZSIvPiYjeGE7ICAgIDx0ZXh0IHRyYW5zZm9ybT0ic2NhbGUoMC44MTI0MDM4NCwxLjIzMDkxNDkpIiBpZD0idGV4dDMzNDMtMCIgeT0iNjY5LjI2NTkzIiB4PSIyMTQuODgzNTQiIHN0eWxlPSJmb250LXN0eWxlOm5vcm1hbDtmb250LXZhcmlhbnQ6bm9ybWFsO2ZvbnQtd2VpZ2h0Om5vcm1hbDtmb250LXN0cmV0Y2g6bm9ybWFsO2ZvbnQtc2l6ZTo4LjEyNDA0cHg7bGluZS1oZWlnaHQ6MTAwJTtmb250LWZhbWlseTpBcmlhbDt0ZXh0LWFsaWduOmNlbnRlcjt3cml0aW5nLW1vZGU6bHItdGI7dGV4dC1hbmNob3I6bWlkZGxlO2Rpc3BsYXk6aW5saW5lO2ZpbGw6IzAwMDAwMDtmaWxsLW9wYWNpdHk6MTtzdHJva2U6bm9uZSIgeG1sOnNwYWNlPSJwcmVzZXJ2ZSI+PHRzcGFuIGlkPSJ0c3BhbjQyNjktMyIgeT0iNjY5LjI2NTkzIiB4PSIyMTQuODgzNTQiPnVzZXJzcGFjZTwvdHNwYW4+PHRzcGFuIGlkPSJ0c3BhbjE0NTEiIHk9IjY3Ny4zODk5NSIgeD0iMjE0Ljg4MzU0Ij4oQUZfWERQKTwvdHNwYW4+PC90ZXh0PiYjeGE7ICAgIDx0ZXh0IHRyYW5zZm9ybT0icm90YXRlKC05MCkiIHhtbDpzcGFjZT0icHJlc2VydmUiIHN0eWxlPSJmb250LXN0eWxlOm5vcm1hbDtmb250LXZhcmlhbnQ6bm9ybWFsO2ZvbnQtd2VpZ2h0Om5vcm1hbDtmb250LXN0cmV0Y2g6bm9ybWFsO2ZvbnQtc2l6ZToxMHB4O2xpbmUtaGVpZ2h0OjEwMCU7Zm9udC1mYW1pbHk6QXJpYWw7LWlua3NjYXBlLWZvbnQtc3BlY2lmaWNhdGlvbjpBcmlhbDt0ZXh0LWFsaWduOnN0YXJ0O2xldHRlci1zcGFjaW5nOjBweDt3b3JkLXNwYWNpbmc6MHB4O3dyaXRpbmctbW9kZTpsci10Yjt0ZXh0LWFuY2hvcjpzdGFydDtkaXNwbGF5OmlubGluZTtmaWxsOiNmZjAwMDA7ZmlsbC1vcGFjaXR5OjE7c3Ryb2tlOm5vbmUiIGlkPSJ0ZXh0MzM1NS01IiB5PSIxMDQuNjE2MzciIHg9Ii05MjAuMzE3NjkiPjx0c3BhbiBpZD0idHNwYW4zMzU3LTkiIHg9Ii05MjAuMzE3NjkiIHk9IjEwNC42MTYzNyI+WERQX1JFRElSRUNUPC90c3Bhbj48L3RleHQ+JiN4YTsgICAgPHBhdGggaWQ9InBhdGgzMzcyLTYiIGQ9Im0gODI2LjI3MjQ2LDc0OS41MDkxMyB2IC0xNSIgc3R5bGU9ImRpc3BsYXk6aW5saW5lO29wYWNpdHk6MC44NjAwMDAwMTtmaWxsOm5vbmU7c3Ryb2tlOiMwMDAwMDA7c3Ryb2tlLXdpZHRoOjEuNTAwMDAwMzY7c3Ryb2tlLWxpbmVjYXA6YnV0dDtzdHJva2UtbGluZWpvaW46bWl0ZXI7c3Ryb2tlLW1pdGVybGltaXQ6NDtzdHJva2UtZGFzaGFycmF5Om5vbmU7c3Ryb2tlLW9wYWNpdHk6MTttYXJrZXItZW5kOnVybCgjQXJyb3cyTWVuZC03NikiLz4mI3hhOyAgICA8cGF0aCBpZD0icGF0aDkzNSIgZD0ibSAxMDYyLDg0NSBoIDQ3LjM4OTUiIHN0eWxlPSJkaXNwbGF5OmlubGluZTtvcGFjaXR5OjAuODY7ZmlsbDpub25lO3N0cm9rZTojMDAwMDAwO3N0cm9rZS13aWR0aDoxLjA1OTQzO3N0cm9rZS1saW5lY2FwOmJ1dHQ7c3Ryb2tlLWxpbmVqb2luOm1pdGVyO3N0cm9rZS1taXRlcmxpbWl0OjQ7c3Ryb2tlLWRhc2hhcnJheTpub25lO3N0cm9rZS1vcGFjaXR5OjE7bWFya2VyLWVuZDp1cmwoI0Fycm93Mk1lbmQpIi8+JiN4YTsgICAgPHBhdGggaWQ9InBhdGg5MzUtMCIgZD0ibSAxMTYxLjAyMzMsODQ0Ljk4NTY2IGggNjAuMDc0NCIgc3R5bGU9ImRpc3BsYXk6aW5saW5lO29wYWNpdHk6MC44NjtmaWxsOm5vbmU7c3Ryb2tlOiMwMDAwMDA7c3Ryb2tlLXdpZHRoOjEuMTkyODM7c3Ryb2tlLWxpbmVjYXA6YnV0dDtzdHJva2UtbGluZWpvaW46bWl0ZXI7c3Ryb2tlLW1pdGVybGltaXQ6NDtzdHJva2UtZGFzaGFycmF5Om5vbmU7c3Ryb2tlLW9wYWNpdHk6MTttYXJrZXItZW5kOnVybCgjQXJyb3cyTWVuZC04KSIvPiYjeGE7ICA8L2c+JiN4YTsgIDxnIHRyYW5zZm9ybT0idHJhbnNsYXRlKDAsLTQ3NSkiIHN0eWxlPSJkaXNwbGF5OmlubGluZSIgaWQ9ImxheWVyNCI+JiN4YTsgICAgPHRleHQgaWQ9InRleHQyNjU4NSIgeT0iNjM5LjU1MDk2IiB4PSI4NzkuMTM3NzYiIHN0eWxlPSJmb250LXN0eWxlOm5vcm1hbDtmb250LXZhcmlhbnQ6bm9ybWFsO2ZvbnQtd2VpZ2h0Om5vcm1hbDtmb250LXN0cmV0Y2g6bm9ybWFsO2ZvbnQtc2l6ZToxMHB4O2xpbmUtaGVpZ2h0OjEyNSU7Zm9udC1mYW1pbHk6J1RpbWVzIE5ldyBSb21hbic7LWlua3NjYXBlLWZvbnQtc3BlY2lmaWNhdGlvbjonVGltZXMgTmV3IFJvbWFuLCc7dGV4dC1hbGlnbjpzdGFydDt3cml0aW5nLW1vZGU6bHItdGI7dGV4dC1hbmNob3I6c3RhcnQiIHhtbDpzcGFjZT0icHJlc2VydmUiPjx0c3BhbiBzdHlsZT0iZm9udC1zdHlsZTpub3JtYWw7Zm9udC12YXJpYW50Om5vcm1hbDtmb250LXdlaWdodDpub3JtYWw7Zm9udC1zdHJldGNoOm5vcm1hbDtmb250LXNpemU6MTBweDtsaW5lLWhlaWdodDoxMjUlO2ZvbnQtZmFtaWx5OidUaW1lcyBOZXcgUm9tYW4nOy1pbmtzY2FwZS1mb250LXNwZWNpZmljYXRpb246J1RpbWVzIE5ldyBSb21hbiwnO3RleHQtYWxpZ246c3RhcnQ7d3JpdGluZy1tb2RlOmxyLXRiO3RleHQtYW5jaG9yOnN0YXJ0IiB5PSI2MzkuNTUwOTYiIHg9Ijg3OS4xMzc3NiIgaWQ9InRzcGFuMjY1ODciPmJ5IEphbiBFbmdlbGhhcmR0PC90c3Bhbj48dHNwYW4gaWQ9InRzcGFuMzQwMiIgc3R5bGU9ImZvbnQtc3R5bGU6bm9ybWFsO2ZvbnQtdmFyaWFudDpub3JtYWw7Zm9udC13ZWlnaHQ6bm9ybWFsO2ZvbnQtc3RyZXRjaDpub3JtYWw7Zm9udC1zaXplOjEwcHg7bGluZS1oZWlnaHQ6MTI1JTtmb250LWZhbWlseTonVGltZXMgTmV3IFJvbWFuJzstaW5rc2NhcGUtZm9udC1zcGVjaWZpY2F0aW9uOidUaW1lcyBOZXcgUm9tYW4sJzt0ZXh0LWFsaWduOnN0YXJ0O3dyaXRpbmctbW9kZTpsci10Yjt0ZXh0LWFuY2hvcjpzdGFydCIgeT0iNjUyLjA1MDk2IiB4PSI4NzkuMTM3NzYiPihiYXNlZCBpbiBwYXJ0IG9uIEpvc2h1YSBTbnlkZXIncyBncmFwaCk8L3RzcGFuPjx0c3BhbiBpZD0idHNwYW4xNDU5IiBzdHlsZT0iZm9udC1zdHlsZTpub3JtYWw7Zm9udC12YXJpYW50Om5vcm1hbDtmb250LXdlaWdodDpub3JtYWw7Zm9udC1zdHJldGNoOm5vcm1hbDtmb250LXNpemU6MTBweDtsaW5lLWhlaWdodDoxMjUlO2ZvbnQtZmFtaWx5OidUaW1lcyBOZXcgUm9tYW4nOy1pbmtzY2FwZS1mb250LXNwZWNpZmljYXRpb246J1RpbWVzIE5ldyBSb21hbiwnO3RleHQtYWxpZ246c3RhcnQ7d3JpdGluZy1tb2RlOmxyLXRiO3RleHQtYW5jaG9yOnN0YXJ0IiB5PSI2NjQuNTUwOTYiIHg9Ijg3OS4xMzc3NiI+WERQIGZsb3cgYnkgTWF0dGVvIENyb2NlPC90c3Bhbj48dHNwYW4gaWQ9InRzcGFuMTMxOSIgc3R5bGU9ImZvbnQtc3R5bGU6bm9ybWFsO2ZvbnQtdmFyaWFudDpub3JtYWw7Zm9udC13ZWlnaHQ6bm9ybWFsO2ZvbnQtc3RyZXRjaDpub3JtYWw7Zm9udC1zaXplOjEwcHg7bGluZS1oZWlnaHQ6MTI1JTtmb250LWZhbWlseTonVGltZXMgTmV3IFJvbWFuJzstaW5rc2NhcGUtZm9udC1zcGVjaWZpY2F0aW9uOidUaW1lcyBOZXcgUm9tYW4sJzt0ZXh0LWFsaWduOnN0YXJ0O3dyaXRpbmctbW9kZTpsci10Yjt0ZXh0LWFuY2hvcjpzdGFydCIgeT0iNjc3LjA1MDk2IiB4PSI4NzkuMTM3NzYiPkxhc3QgdXBkYXRlZCAyMDE5LU1heS0xOTsgTGludXggNS4xPC90c3Bhbj48L3RleHQ+JiN4YTsgICAgPHRleHQgaWQ9InRleHQyNzE5LTciIHk9Ijc2MCIgeD0iODgyIiBzdHlsZT0iZm9udC1zdHlsZTpub3JtYWw7Zm9udC12YXJpYW50Om5vcm1hbDtmb250LXdlaWdodDpub3JtYWw7Zm9udC1zdHJldGNoOm5vcm1hbDtmb250LXNpemU6MTJweDtsaW5lLWhlaWdodDoxMDAlO2ZvbnQtZmFtaWx5OkFyaWFsO3RleHQtYWxpZ246c3RhcnQ7d3JpdGluZy1tb2RlOmxyLXRiO3RleHQtYW5jaG9yOnN0YXJ0O2Rpc3BsYXk6aW5saW5lO2ZpbGw6IzAwMDAwMDtmaWxsLW9wYWNpdHk6MTtzdHJva2U6bm9uZSIgeG1sOnNwYWNlPSJwcmVzZXJ2ZSI+PHRzcGFuIGlkPSJ0c3BhbjQyOTgiIHk9Ijc2MCIgeD0iODgyIj4qIOKAnHNlY3VyaXR54oCdIHRhYmxlIGxlZnQ8L3RzcGFuPjx0c3BhbiBpZD0idHNwYW40MzM0IiB5PSI3NzIiIHg9Ijg4MiI+ICAgb3V0IGZvciBicmV2aXR5PC90c3Bhbj48dHNwYW4gaWQ9InRzcGFuNDMzNiIgeT0iNzg0IiB4PSI4ODIiPiog4oCcbmF04oCdIHRhYmxlIG9ubHkgY29uc3VsdGVkPC90c3Bhbj48dHNwYW4gaWQ9InRzcGFuNDMzOCIgeT0iNzk2IiB4PSI4ODIiPiAgIGZvciDigJxORVfigJ0gY29ubmVjdGlvbnM8L3RzcGFuPjwvdGV4dD4mI3hhOyAgICA8dGV4dCB4bWw6c3BhY2U9InByZXNlcnZlIiBzdHlsZT0iZm9udC1zdHlsZTpub3JtYWw7Zm9udC12YXJpYW50Om5vcm1hbDtmb250LXdlaWdodDpub3JtYWw7Zm9udC1zdHJldGNoOm5vcm1hbDtmb250LXNpemU6MzZweDtsaW5lLWhlaWdodDoxMDAlO2ZvbnQtZmFtaWx5OidBcmlhbCBCbGFjayc7dGV4dC1hbGlnbjplbmQ7d3JpdGluZy1tb2RlOmxyLXRiO3RleHQtYW5jaG9yOmVuZDtkaXNwbGF5OmlubGluZTtmaWxsOiNmZmZmZmY7ZmlsbC1vcGFjaXR5OjAuNTAxOTYxO3N0cm9rZTojMDAwMDAwO3N0cm9rZS13aWR0aDoxcHg7c3Ryb2tlLWxpbmVjYXA6YnV0dDtzdHJva2UtbGluZWpvaW46bWl0ZXI7c3Ryb2tlLW9wYWNpdHk6MSIgeD0iNzg3IiB5PSI3NzUiIGlkPSJ0ZXh0MjYxNTYiPjx0c3BhbiBzdHlsZT0iZm9udC1zaXplOjMycHgiIGlkPSJ0c3BhbjI2MTU4IiB4PSI3ODciIHk9Ijc3NSI+TmV0d29yayBMYXllcjwvdHNwYW4+PC90ZXh0PiYjeGE7ICAgIDx0ZXh0IGlkPSJ0ZXh0MjYxNTIiIHk9IjkxMCIgeD0iNzg3IiBzdHlsZT0iZm9udC1zdHlsZTpub3JtYWw7Zm9udC12YXJpYW50Om5vcm1hbDtmb250LXdlaWdodDpub3JtYWw7Zm9udC1zdHJldGNoOm5vcm1hbDtmb250LXNpemU6MzZweDtsaW5lLWhlaWdodDoxMDAlO2ZvbnQtZmFtaWx5OidBcmlhbCBCbGFjayc7dGV4dC1hbGlnbjplbmQ7d3JpdGluZy1tb2RlOmxyLXRiO3RleHQtYW5jaG9yOmVuZDtkaXNwbGF5OmlubGluZTtmaWxsOiNmZmZmZmY7ZmlsbC1vcGFjaXR5OjAuNTAxOTYxO3N0cm9rZTojMDAwMDAwO3N0cm9rZS13aWR0aDoxcHg7c3Ryb2tlLWxpbmVjYXA6YnV0dDtzdHJva2UtbGluZWpvaW46bWl0ZXI7c3Ryb2tlLW9wYWNpdHk6MSIgeG1sOnNwYWNlPSJwcmVzZXJ2ZSI+PHRzcGFuIHN0eWxlPSJmb250LXNpemU6MzJweCIgeT0iOTEwIiB4PSI3ODciIGlkPSJ0c3BhbjI2MTU0Ij5MaW5rIExheWVyPC90c3Bhbj48L3RleHQ+JiN4YTsgICAgPHRleHQgaWQ9InRleHQxMzcyNiIgeT0iNTY5LjU4MTU0IiB4PSI5NzEuOTk1MTIiIHN0eWxlPSJmb250LXN0eWxlOm5vcm1hbDtmb250LXZhcmlhbnQ6bm9ybWFsO2ZvbnQtd2VpZ2h0Om5vcm1hbDtmb250LXN0cmV0Y2g6bm9ybWFsO2ZvbnQtc2l6ZToxMHB4O2xpbmUtaGVpZ2h0OjEwMCU7Zm9udC1mYW1pbHk6QXJpYWw7dGV4dC1hbGlnbjpjZW50ZXI7d3JpdGluZy1tb2RlOmxyLXRiO3RleHQtYW5jaG9yOm1pZGRsZTtkaXNwbGF5OmlubGluZTtmaWxsOiMwMDAwMDA7ZmlsbC1vcGFjaXR5OjE7c3Ryb2tlOm5vbmUiIHhtbDpzcGFjZT0icHJlc2VydmUiPjx0c3BhbiB5PSI1NjkuNTgxNTQiIHg9Ijk3MS45OTUxMiIgaWQ9InRzcGFuMTM3MjgiPkZPUldBUkQgUEFUSDwvdHNwYW4+PC90ZXh0PiYjeGE7ICAgIDx0ZXh0IGlkPSJ0ZXh0MTM3MzAiIHk9IjU2OS41ODE1NCIgeD0iMTI3OS42NjM2IiBzdHlsZT0iZm9udC1zdHlsZTpub3JtYWw7Zm9udC12YXJpYW50Om5vcm1hbDtmb250LXdlaWdodDpub3JtYWw7Zm9udC1zdHJldGNoOm5vcm1hbDtmb250LXNpemU6MTBweDtsaW5lLWhlaWdodDoxMDAlO2ZvbnQtZmFtaWx5OkFyaWFsO3RleHQtYWxpZ246Y2VudGVyO3dyaXRpbmctbW9kZTpsci10Yjt0ZXh0LWFuY2hvcjptaWRkbGU7ZGlzcGxheTppbmxpbmU7ZmlsbDojMDAwMDAwO2ZpbGwtb3BhY2l0eToxO3N0cm9rZTpub25lIiB4bWw6c3BhY2U9InByZXNlcnZlIj48dHNwYW4geT0iNTY5LjU4MTU0IiB4PSIxMjc5LjY2MzYiIGlkPSJ0c3BhbjEzNzMyIj5PVVRQVVQgUEFUSDwvdHNwYW4+PC90ZXh0PiYjeGE7ICAgIDx0ZXh0IHhtbDpzcGFjZT0icHJlc2VydmUiIHN0eWxlPSJmb250LXN0eWxlOm5vcm1hbDtmb250LXZhcmlhbnQ6bm9ybWFsO2ZvbnQtd2VpZ2h0Om5vcm1hbDtmb250LXN0cmV0Y2g6bm9ybWFsO2ZvbnQtc2l6ZTozNnB4O2xpbmUtaGVpZ2h0OjEwMCU7Zm9udC1mYW1pbHk6J0FyaWFsIEJsYWNrJzt0ZXh0LWFsaWduOmVuZDt3cml0aW5nLW1vZGU6bHItdGI7dGV4dC1hbmNob3I6ZW5kO2Rpc3BsYXk6aW5saW5lO2ZpbGw6I2ZmZmZmZjtmaWxsLW9wYWNpdHk6MC41MDE5NjE7c3Ryb2tlOiMwMDAwMDA7c3Ryb2tlLXdpZHRoOjFweDtzdHJva2UtbGluZWNhcDpidXR0O3N0cm9rZS1saW5lam9pbjptaXRlcjtzdHJva2Utb3BhY2l0eToxIiB4PSI3ODciIHk9IjY1NiIgaWQ9InRleHQzNDIxIj48dHNwYW4gc3R5bGU9ImZvbnQtc2l6ZTozMnB4IiBpZD0idHNwYW4zNDIzIiB4PSI3ODciIHk9IjY1NiI+UHJvdG9jb2wgTGF5ZXI8L3RzcGFuPjwvdGV4dD4mI3hhOyAgICA8dGV4dCBpZD0idGV4dDEzNzM4IiB5PSI1NjkuNTgxNTQiIHg9IjYzMS45Mzg5NiIgc3R5bGU9ImZvbnQtc3R5bGU6bm9ybWFsO2ZvbnQtdmFyaWFudDpub3JtYWw7Zm9udC13ZWlnaHQ6bm9ybWFsO2ZvbnQtc3RyZXRjaDpub3JtYWw7Zm9udC1zaXplOjEwcHg7bGluZS1oZWlnaHQ6MTAwJTtmb250LWZhbWlseTpBcmlhbDt0ZXh0LWFsaWduOmNlbnRlcjt3cml0aW5nLW1vZGU6bHItdGI7dGV4dC1hbmNob3I6bWlkZGxlO2Rpc3BsYXk6aW5saW5lO2ZpbGw6IzAwMDAwMDtmaWxsLW9wYWNpdHk6MTtzdHJva2U6bm9uZSIgeG1sOnNwYWNlPSJwcmVzZXJ2ZSI+PHRzcGFuIHk9IjU2OS41ODE1NCIgeD0iNjMxLjkzODk2IiBpZD0idHNwYW4xMzc0MCI+SU5QVVQgUEFUSDwvdHNwYW4+PC90ZXh0PiYjeGE7ICAgIDx0ZXh0IGlkPSJ0ZXh0NDEwMCIgeT0iNjA2IiB4PSI3ODciIHN0eWxlPSJmb250LXN0eWxlOm5vcm1hbDtmb250LXZhcmlhbnQ6bm9ybWFsO2ZvbnQtd2VpZ2h0Om5vcm1hbDtmb250LXN0cmV0Y2g6bm9ybWFsO2ZvbnQtc2l6ZTozNnB4O2xpbmUtaGVpZ2h0OjEwMCU7Zm9udC1mYW1pbHk6J0FyaWFsIEJsYWNrJzt0ZXh0LWFsaWduOmVuZDt3cml0aW5nLW1vZGU6bHItdGI7dGV4dC1hbmNob3I6ZW5kO2Rpc3BsYXk6aW5saW5lO2ZpbGw6I2ZmZmZmZjtmaWxsLW9wYWNpdHk6MC41MDE5NjE7c3Ryb2tlOiMwMDAwMDA7c3Ryb2tlLXdpZHRoOjFweDtzdHJva2UtbGluZWNhcDpidXR0O3N0cm9rZS1saW5lam9pbjptaXRlcjtzdHJva2Utb3BhY2l0eToxIiB4bWw6c3BhY2U9InByZXNlcnZlIj48dHNwYW4geT0iNjA2IiB4PSI3ODciIGlkPSJ0c3BhbjQxMDIiIHN0eWxlPSJmb250LXNpemU6MzJweCI+QXBwbGljYXRpb24gTGF5ZXI8L3RzcGFuPjwvdGV4dD4mI3hhOyAgICA8dGV4dCBpZD0idGV4dDI2MTY1IiB5PSI1NDEuMTYyMTEiIHg9IjkwNy4wNzAzMSIgc3R5bGU9ImZvbnQtc3R5bGU6aXRhbGljO2ZvbnQtdmFyaWFudDpub3JtYWw7Zm9udC13ZWlnaHQ6bm9ybWFsO2ZvbnQtc3RyZXRjaDpub3JtYWw7Zm9udC1zaXplOjQ4cHg7bGluZS1oZWlnaHQ6MTAwJTtmb250LWZhbWlseTonVGltZXMgTmV3IFJvbWFuJzt0ZXh0LWFsaWduOmNlbnRlcjt3cml0aW5nLW1vZGU6bHItdGI7dGV4dC1hbmNob3I6bWlkZGxlO2Rpc3BsYXk6aW5saW5lO2ZpbGw6IzAwMDAwMDtmaWxsLW9wYWNpdHk6MTtzdHJva2U6bm9uZSIgeG1sOnNwYWNlPSJwcmVzZXJ2ZSI+PHRzcGFuIHk9IjU0MS4xNjIxMSIgeD0iOTA3LjA3MDMxIiBpZD0idHNwYW4yNjE2NyI+UGFja2V0IGZsb3cgaW4gTmV0ZmlsdGVyIGFuZCBHZW5lcmFsIE5ldHdvcmtpbmc8L3RzcGFuPjwvdGV4dD4mI3hhOyAgICA8cmVjdCB5PSI2OTIiIHg9IjY3IiBoZWlnaHQ9IjEwIiB3aWR0aD0iMjAiIGlkPSJyZWN0MzQyMyIgc3R5bGU9ImRpc3BsYXk6aW5saW5lO2ZpbGw6dXJsKCNsaW5lYXJHcmFkaWVudDM0MjUpO2ZpbGwtb3BhY2l0eToxO2ZpbGwtcnVsZTpldmVub2RkO3N0cm9rZTojMDAwMDAwO3N0cm9rZS13aWR0aDowLjI1O3N0cm9rZS1saW5lY2FwOmJ1dHQ7c3Ryb2tlLWxpbmVqb2luOmJldmVsO3N0cm9rZS1taXRlcmxpbWl0OjQ7c3Ryb2tlLWRhc2hhcnJheTpub25lO3N0cm9rZS1kYXNob2Zmc2V0OjA7c3Ryb2tlLW9wYWNpdHk6MSIvPiYjeGE7ICAgIDxyZWN0IHN0eWxlPSJkaXNwbGF5OmlubGluZTtmaWxsOnVybCgjbGluZWFyR3JhZGllbnQ0Mzk4KTtmaWxsLW9wYWNpdHk6MTtmaWxsLXJ1bGU6ZXZlbm9kZDtzdHJva2U6IzAwMDAwMDtzdHJva2Utd2lkdGg6MC4yNTtzdHJva2UtbGluZWNhcDpidXR0O3N0cm9rZS1saW5lam9pbjpiZXZlbDtzdHJva2UtbWl0ZXJsaW1pdDo0O3N0cm9rZS1kYXNoYXJyYXk6bm9uZTtzdHJva2UtZGFzaG9mZnNldDowO3N0cm9rZS1vcGFjaXR5OjEiIGlkPSJyZWN0NDM5NiIgd2lkdGg9IjIwIiBoZWlnaHQ9IjEwIiB4PSI2NyIgeT0iNjcyIi8+JiN4YTsgICAgPHRleHQgaWQ9InRleHQ0NDAwIiB5PSI3MDIiIHg9IjkyIiBzdHlsZT0iZm9udC1zdHlsZTpub3JtYWw7Zm9udC12YXJpYW50Om5vcm1hbDtmb250LXdlaWdodDpub3JtYWw7Zm9udC1zdHJldGNoOm5vcm1hbDtmb250LXNpemU6MTBweDtsaW5lLWhlaWdodDoxMDAlO2ZvbnQtZmFtaWx5OkFyaWFsO3RleHQtYWxpZ246c3RhcnQ7d3JpdGluZy1tb2RlOmxyLXRiO3RleHQtYW5jaG9yOnN0YXJ0O2Rpc3BsYXk6aW5saW5lO2ZpbGw6IzAwMDAwMDtmaWxsLW9wYWNpdHk6MTtzdHJva2U6bm9uZSIgeG1sOnNwYWNlPSJwcmVzZXJ2ZSI+PHRzcGFuIHN0eWxlPSJmb250LXNpemU6MTZweCIgeT0iNzAyIiB4PSI5MiIgaWQ9InRzcGFuNDQwMiI+YnJpZGdlIGxldmVsPC90c3Bhbj48L3RleHQ+JiN4YTsgICAgPHRleHQgaWQ9InRleHQ0NDA0IiB5PSI2NDciIHg9IjkyIiBzdHlsZT0iZm9udC1zdHlsZTpub3JtYWw7Zm9udC12YXJpYW50Om5vcm1hbDtmb250LXdlaWdodDpub3JtYWw7Zm9udC1zdHJldGNoOm5vcm1hbDtmb250LXNpemU6MTBweDtsaW5lLWhlaWdodDoxMDAlO2ZvbnQtZmFtaWx5OkFyaWFsO3RleHQtYWxpZ246c3RhcnQ7d3JpdGluZy1tb2RlOmxyLXRiO3RleHQtYW5jaG9yOnN0YXJ0O2Rpc3BsYXk6aW5saW5lO2ZpbGw6IzAwMDAwMDtmaWxsLW9wYWNpdHk6MTtzdHJva2U6bm9uZSIgeG1sOnNwYWNlPSJwcmVzZXJ2ZSI+PHRzcGFuIHN0eWxlPSJmb250LXNpemU6MTZweCIgeT0iNjQ3IiB4PSI5MiIgaWQ9InRzcGFuNDQwNiI+YmFzaWMgc2V0IG9mIGZpbHRlcmluZzwvdHNwYW4+PHRzcGFuIGlkPSJ0c3BhbjM1MTkiIHN0eWxlPSJmb250LXNpemU6MTZweCIgeT0iNjU4LjY1NDU0IiB4PSI5MiI+b3Bwb3J0dW5pdGllcyBhdCB0aGU8L3RzcGFuPjwvdGV4dD4mI3hhOyAgICA8cmVjdCB5PSI1OTIiIHg9IjY3IiBoZWlnaHQ9IjEwIiB3aWR0aD0iMjAiIGlkPSJyZWN0MzMwNCIgc3R5bGU9ImRpc3BsYXk6aW5saW5lO2ZpbGw6dXJsKCNsaW5lYXJHcmFkaWVudDMzMDcpO2ZpbGwtb3BhY2l0eToxO2ZpbGwtcnVsZTpldmVub2RkO3N0cm9rZTojMDAwMDAwO3N0cm9rZS13aWR0aDowLjI1O3N0cm9rZS1saW5lY2FwOmJ1dHQ7c3Ryb2tlLWxpbmVqb2luOmJldmVsO3N0cm9rZS1taXRlcmxpbWl0OjQ7c3Ryb2tlLWRhc2hhcnJheTpub25lO3N0cm9rZS1kYXNob2Zmc2V0OjA7c3Ryb2tlLW9wYWNpdHk6MSIgcnk9IjQuODEzNzk2NSIgcng9IjUuNzQ0ODEzNCIvPiYjeGE7ICAgIDx0ZXh0IHhtbDpzcGFjZT0icHJlc2VydmUiIHN0eWxlPSJmb250LXN0eWxlOm5vcm1hbDtmb250LXZhcmlhbnQ6bm9ybWFsO2ZvbnQtd2VpZ2h0Om5vcm1hbDtmb250LXN0cmV0Y2g6bm9ybWFsO2ZvbnQtc2l6ZToxMHB4O2xpbmUtaGVpZ2h0OjEwMCU7Zm9udC1mYW1pbHk6QXJpYWw7dGV4dC1hbGlnbjpzdGFydDt3cml0aW5nLW1vZGU6bHItdGI7dGV4dC1hbmNob3I6c3RhcnQ7ZGlzcGxheTppbmxpbmU7ZmlsbDojMDAwMDAwO2ZpbGwtb3BhY2l0eToxO3N0cm9rZTpub25lIiB4PSI5MiIgeT0iNjAyIiBpZD0idGV4dDMzMDkiPjx0c3BhbiBpZD0idHNwYW4zMzExIiB4PSI5MiIgeT0iNjAyIiBzdHlsZT0iZm9udC1zaXplOjE2cHgiPk90aGVyIE5GIHBhcnRzPC90c3Bhbj48L3RleHQ+JiN4YTsgICAgPHJlY3Qgcng9IjUuNzQ0ODEzNCIgcnk9IjQuODEzNzk2NSIgc3R5bGU9ImRpc3BsYXk6aW5saW5lO2ZpbGw6dXJsKCNsaW5lYXJHcmFkaWVudDQyNzUpO2ZpbGwtb3BhY2l0eToxO2ZpbGwtcnVsZTpldmVub2RkO3N0cm9rZTojMDAwMDAwO3N0cm9rZS13aWR0aDowLjI1O3N0cm9rZS1saW5lY2FwOmJ1dHQ7c3Ryb2tlLWxpbmVqb2luOmJldmVsO3N0cm9rZS1taXRlcmxpbWl0OjQ7c3Ryb2tlLWRhc2hhcnJheTpub25lO3N0cm9rZS1kYXNob2Zmc2V0OjA7c3Ryb2tlLW9wYWNpdHk6MSIgaWQ9InJlY3Q0MjczIiB3aWR0aD0iMjAiIGhlaWdodD0iMTAiIHg9IjY3IiB5PSI2MTIiLz4mI3hhOyAgICA8dGV4dCBpZD0idGV4dDQyNzciIHk9IjYyMiIgeD0iOTIiIHN0eWxlPSJmb250LXN0eWxlOm5vcm1hbDtmb250LXZhcmlhbnQ6bm9ybWFsO2ZvbnQtd2VpZ2h0Om5vcm1hbDtmb250LXN0cmV0Y2g6bm9ybWFsO2ZvbnQtc2l6ZToxMHB4O2xpbmUtaGVpZ2h0OjEwMCU7Zm9udC1mYW1pbHk6QXJpYWw7dGV4dC1hbGlnbjpzdGFydDt3cml0aW5nLW1vZGU6bHItdGI7dGV4dC1hbmNob3I6c3RhcnQ7ZGlzcGxheTppbmxpbmU7ZmlsbDojMDAwMDAwO2ZpbGwtb3BhY2l0eToxO3N0cm9rZTpub25lIiB4bWw6c3BhY2U9InByZXNlcnZlIj48dHNwYW4gc3R5bGU9ImZvbnQtc2l6ZToxNnB4IiB5PSI2MjIiIHg9IjkyIiBpZD0idHNwYW40Mjc5Ij5PdGhlciBOZXR3b3JraW5nPC90c3Bhbj48L3RleHQ+JiN4YTsgICAgPHRleHQgeG1sOnNwYWNlPSJwcmVzZXJ2ZSIgc3R5bGU9ImZvbnQtc3R5bGU6bm9ybWFsO2ZvbnQtdmFyaWFudDpub3JtYWw7Zm9udC13ZWlnaHQ6bm9ybWFsO2ZvbnQtc3RyZXRjaDpub3JtYWw7Zm9udC1zaXplOjEwcHg7bGluZS1oZWlnaHQ6MTAwJTtmb250LWZhbWlseTpBcmlhbDt0ZXh0LWFsaWduOnN0YXJ0O3dyaXRpbmctbW9kZTpsci10Yjt0ZXh0LWFuY2hvcjpzdGFydDtkaXNwbGF5OmlubGluZTtmaWxsOiMwMDAwMDA7ZmlsbC1vcGFjaXR5OjE7c3Ryb2tlOm5vbmUiIHg9IjkyIiB5PSI2ODIiIGlkPSJ0ZXh0MzM2OCI+PHRzcGFuIHg9IjkyIiB5PSI2ODIiIHN0eWxlPSJmb250LXNpemU6MTZweCIgaWQ9InRzcGFuMzM3MiI+bmV0d29yayBsZXZlbDwvdHNwYW4+PC90ZXh0PiYjeGE7ICA8L2c+JiN4YTs8L3N2Zz4=;" vertex="1" parent="1">
          <mxGeometry x="660" y="250" width="1600" height="509.34" as="geometry" />
        </mxCell>
        <mxCell id="ypXd9VW-_T2MgpefGKx2-2" value="" style="rounded=0;whiteSpace=wrap;html=1;strokeColor=none;" vertex="1" parent="1">
          <mxGeometry x="1060" y="260" width="1000" height="70" as="geometry" />
        </mxCell>
        <mxCell id="ypXd9VW-_T2MgpefGKx2-4" value="" style="ellipse;whiteSpace=wrap;html=1;aspect=fixed;fillColor=none;strokeColor=#FF0000;strokeWidth=3;" vertex="1" parent="1">
          <mxGeometry x="1568.5" y="340" width="60" height="60" as="geometry" />
        </mxCell>
        <mxCell id="ypXd9VW-_T2MgpefGKx2-5" value="Text" style="text;html=1;strokeColor=none;fillColor=none;align=center;verticalAlign=middle;whiteSpace=wrap;rounded=0;" vertex="1" parent="1">
          <mxGeometry x="1400" y="590" width="60" height="30" as="geometry" />
        </mxCell>
        <mxCell id="ypXd9VW-_T2MgpefGKx2-6" value="&lt;font style=&quot;font-size: 17px;&quot; color=&quot;#ff0000&quot;&gt;当执行curl等命令时，处在这个位置&lt;/font&gt;" style="text;html=1;strokeColor=none;fillColor=none;align=center;verticalAlign=middle;whiteSpace=wrap;rounded=0;" vertex="1" parent="1">
          <mxGeometry x="1590" y="280" width="270" height="30" as="geometry" />
        </mxCell>
        <mxCell id="ypXd9VW-_T2MgpefGKx2-7" value="" style="endArrow=classic;html=1;rounded=0;entryX=1;entryY=0;entryDx=0;entryDy=0;strokeColor=#FF0000;" edge="1" parent="1" source="ypXd9VW-_T2MgpefGKx2-6" target="ypXd9VW-_T2MgpefGKx2-4">
          <mxGeometry width="50" height="50" relative="1" as="geometry">
            <mxPoint x="1370" y="260" as="sourcePoint" />
            <mxPoint x="1420" y="210" as="targetPoint" />
          </mxGeometry>
        </mxCell>
        <mxCell id="ypXd9VW-_T2MgpefGKx2-8" value="" style="rounded=0;whiteSpace=wrap;html=1;fillColor=none;strokeColor=#6600CC;" vertex="1" parent="1">
          <mxGeometry x="1010" y="310" width="480" height="490" as="geometry" />
        </mxCell>
        <mxCell id="ypXd9VW-_T2MgpefGKx2-9" value="" style="rounded=0;whiteSpace=wrap;html=1;fillColor=none;strokeColor=#6600CC;" vertex="1" parent="1">
          <mxGeometry x="1496" y="310" width="205" height="490" as="geometry" />
        </mxCell>
        <mxCell id="ypXd9VW-_T2MgpefGKx2-10" value="" style="rounded=0;whiteSpace=wrap;html=1;fillColor=none;strokeColor=#6600CC;" vertex="1" parent="1">
          <mxGeometry x="1710" y="310" width="400" height="490" as="geometry" />
        </mxCell>
        <mxCell id="ypXd9VW-_T2MgpefGKx2-12" value="" style="ellipse;whiteSpace=wrap;html=1;aspect=fixed;fillColor=none;strokeColor=#FF0000;strokeWidth=3;" vertex="1" parent="1">
          <mxGeometry x="1435" y="580" width="50" height="50" as="geometry" />
        </mxCell>
        <mxCell id="ypXd9VW-_T2MgpefGKx2-13" value="" style="ellipse;whiteSpace=wrap;html=1;aspect=fixed;fillColor=none;strokeColor=#FF0000;strokeWidth=3;" vertex="1" parent="1">
          <mxGeometry x="1720" y="510" width="50" height="50" as="geometry" />
        </mxCell>
        <mxCell id="ypXd9VW-_T2MgpefGKx2-14" value="" style="ellipse;whiteSpace=wrap;html=1;aspect=fixed;fillColor=none;strokeColor=#FF0000;strokeWidth=3;" vertex="1" parent="1">
          <mxGeometry x="2170" y="670" width="60" height="60" as="geometry" />
        </mxCell>
        <mxCell id="ypXd9VW-_T2MgpefGKx2-15" value="interface&lt;br&gt;input" style="rounded=1;whiteSpace=wrap;html=1;" vertex="1" parent="1">
          <mxGeometry x="660" y="680" width="60" height="40" as="geometry" />
        </mxCell>
        <mxCell id="ypXd9VW-_T2MgpefGKx2-16" value="" style="ellipse;whiteSpace=wrap;html=1;aspect=fixed;fillColor=none;strokeColor=#FF0000;strokeWidth=3;" vertex="1" parent="1">
          <mxGeometry x="655" y="665" width="70" height="70" as="geometry" />
        </mxCell>
        <mxCell id="ypXd9VW-_T2MgpefGKx2-17" value="流量进入" style="rounded=0;whiteSpace=wrap;html=1;strokeColor=none;" vertex="1" parent="1">
          <mxGeometry x="1200" y="750" width="100" height="40" as="geometry" />
        </mxCell>
        <mxCell id="ypXd9VW-_T2MgpefGKx2-18" value="流量外出" style="rounded=0;whiteSpace=wrap;html=1;strokeColor=none;" vertex="1" parent="1">
          <mxGeometry x="1860" y="750" width="100" height="40" as="geometry" />
        </mxCell>
        <mxCell id="ypXd9VW-_T2MgpefGKx2-19" value="转发或被本地进程接收" style="rounded=0;whiteSpace=wrap;html=1;strokeColor=none;" vertex="1" parent="1">
          <mxGeometry x="1540" y="750" width="140" height="40" as="geometry" />
        </mxCell>
      </root>
    </mxGraphModel>
  </diagram>
</mxfile>
